<svg width="111" height="58" viewBox="0 0 111 58" fill="none" xmlns="http://www.w3.org/2000/svg">
  <path d="M73.6108 15.4031V26.5931C73.6108 26.9309 73.3575 27.1843 73.0197 27.1843H69.346C69.0082 27.1843 68.7548 26.9309 68.7548 26.5931V26.1286C67.6147 27.0576 66.1368 27.6065 64.4899 27.6065C60.9007 27.6065 58.0715 25.0307 58.0715 21.6526C58.0715 18.2323 60.9007 15.6564 64.4899 15.6564C66.0101 15.6564 67.3613 16.1209 68.4592 16.9232V15.4031C68.4592 13.9674 67.5302 13.0384 66.1368 13.0384C65.0811 13.0384 64.321 13.5029 63.9832 14.3052C63.8988 14.5585 63.6454 14.7275 63.3498 14.7275H59.5072C59.0427 14.7275 58.7049 14.3052 58.8316 13.8407C59.6761 10.8426 62.3786 8.77352 66.179 8.77352C70.4861 8.81575 73.6108 11.5182 73.6108 15.4031ZM68.4592 21.6948C68.4592 20.5547 67.3191 19.6257 65.8834 19.6257C64.4899 19.6257 63.3498 20.5547 63.3498 21.6948C63.3498 22.8349 64.4899 23.7217 65.8834 23.7217C67.3613 23.7217 68.4592 22.7927 68.4592 21.6948ZM97.3421 21.7371H100.72C101.1 21.7371 101.48 21.9904 101.607 22.3704C101.86 23.0461 102.578 23.5528 103.381 23.5528C104.352 23.5528 105.154 22.9616 105.154 22.1593C105.154 21.0192 103.761 20.5125 102.283 20.1747C99.5801 19.5413 96.6243 18.19 96.6243 14.4741C96.6243 10.8004 99.749 8.81575 103.296 8.81575C106.716 8.81575 109.377 10.7582 109.926 13.3762C110.052 13.9252 109.63 14.4741 109.081 14.4741H105.576C105.238 14.4741 104.943 14.3052 104.816 13.9674C104.605 13.3762 104.014 12.9117 103.254 12.9117C102.409 12.9117 101.734 13.4607 101.734 14.1363C101.734 15.1497 102.958 15.6987 104.732 16.1209C107.434 16.7966 110.306 18.0633 110.306 21.6948C110.306 25.453 107.181 27.6065 103.381 27.6065C99.7913 27.6065 97.0466 25.5374 96.4976 22.7927C96.3709 22.286 96.7932 21.7371 97.3421 21.7371ZM57.3959 22.7505V26.5086C57.3959 26.8887 57.1003 27.1843 56.7203 27.1843H44.9813C44.6013 27.1843 44.3057 26.8887 44.3057 26.5086V3.62189C44.3057 3.24185 44.6013 2.94626 44.9813 2.94626H49.0773C49.4573 2.94626 49.7529 3.24185 49.7529 3.62189V22.0749H56.7203C57.1003 22.0749 57.3959 22.3704 57.3959 22.7505ZM95.5686 18.2323C95.5686 23.595 91.8949 27.6065 86.9122 27.6065C84.7164 27.6065 82.8162 26.6776 81.5072 25.1996V26.2975C81.5072 26.8042 81.0849 27.1843 80.6204 27.1843H77.2846C76.7778 27.1843 76.3978 26.762 76.3978 26.2975V2.77736C76.3978 2.27064 76.8201 1.8906 77.2846 1.8906H80.6204C81.1272 1.8906 81.5072 2.31287 81.5072 2.77736V11.2649C82.8584 9.74473 84.7164 8.85797 86.9122 8.85797C91.8949 8.81575 95.5686 12.8695 95.5686 18.2323ZM90.2903 18.2323C90.2903 15.6987 88.4323 13.7985 85.8988 13.7985C83.3652 13.7985 81.5072 15.6987 81.5072 18.2323C81.5072 20.7658 83.3652 22.666 85.8988 22.666C88.4323 22.666 90.2903 20.7658 90.2903 18.2323Z" fill="white"/>
  <path d="M44.3057 39.1766L46.5014 33.0538H47.5571L49.7529 39.1766H48.7817L48.2327 37.572H45.8258L45.2769 39.1766H44.3057ZM47.9371 36.7697L47.0504 34.1516H47.0082L46.1214 36.7697H47.9371ZM52.8354 34.5739H53.7222V35.334H53.8066C53.9755 35.0384 54.2711 34.5317 55.1156 34.5317C56.2135 34.5317 57.0581 35.4184 57.0581 36.8964C57.0581 38.3743 56.2558 39.261 55.1156 39.261C54.2711 39.261 53.9333 38.7543 53.7644 38.4587H53.7222V40.9079H52.8354V34.5739ZM54.9045 38.501C55.7068 38.501 56.1291 37.7831 56.1291 36.8541C56.1291 35.9252 55.7068 35.2495 54.9045 35.2495C54.1022 35.2495 53.7222 35.8829 53.7222 36.8541C53.7222 37.8253 54.1444 38.501 54.9045 38.501ZM58.916 39.1766H58.0293V33.0538H58.916V39.1766ZM59.9295 37.8676C59.9295 36.8119 60.8162 36.6008 61.703 36.4741C62.5475 36.3896 62.8853 36.3896 62.8853 36.0518C62.8853 35.5451 62.5897 35.2073 61.9986 35.2073C61.4074 35.2073 61.0696 35.5029 60.9429 35.8407L60.0984 35.6296C60.394 34.785 61.154 34.4472 61.9986 34.4472C62.7164 34.4472 63.7721 34.7006 63.7721 36.0518V39.0921H62.8853V38.4587H62.8431C62.6742 38.7966 62.2519 39.1766 61.4918 39.1766C60.6051 39.261 59.9295 38.7543 59.9295 37.8676ZM62.8431 37.5298V36.9386C62.7164 37.0653 62.0408 37.1497 61.7452 37.1919C61.2385 37.2764 60.8162 37.4453 60.8162 37.9098C60.8162 38.3321 61.1963 38.5854 61.703 38.5854C62.4208 38.5432 62.8431 38.0365 62.8431 37.5298ZM64.7433 36.8964C64.7433 35.5029 65.5878 34.5317 66.8968 34.5317C67.9525 34.5317 68.7126 35.1651 68.797 36.0941H67.9103C67.8258 35.6718 67.4458 35.2918 66.8968 35.2918C66.1368 35.2918 65.63 35.9252 65.63 36.8964C65.63 37.9098 66.1368 38.5432 66.8968 38.5432C67.4036 38.5432 67.7836 38.2476 67.9103 37.7409H68.797C68.7126 38.6276 67.9947 39.3033 66.8968 39.3033C65.5456 39.261 64.7433 38.2898 64.7433 36.8964ZM69.5571 36.8964C69.5571 35.5029 70.4016 34.4895 71.6684 34.4895C72.7241 34.4895 73.6953 35.1229 73.6953 36.8119V37.1497H70.4439C70.4861 38.0365 70.9928 38.5432 71.7529 38.5432C72.2596 38.5432 72.6396 38.3321 72.8085 37.8676L73.6531 38.0365C73.4419 38.7966 72.7241 39.261 71.7529 39.261C70.3594 39.261 69.5571 38.3321 69.5571 36.8964ZM72.8085 36.4741C72.8085 35.7562 72.3441 35.2495 71.6684 35.2495C70.9506 35.2495 70.4861 35.7985 70.4439 36.4741H72.8085ZM79.1425 35.2918H78.1713V39.1766H77.2845V35.2918H76.5667V34.5739H77.2845V34.025C77.2845 33.1804 77.9179 32.7159 78.6358 32.7159C79.0158 32.7159 79.2692 32.8004 79.3959 32.8426L79.1847 33.5605C79.1003 33.5182 78.9736 33.476 78.7625 33.476C78.3402 33.476 78.1713 33.6871 78.1713 34.1094V34.5317H79.1425V35.2918ZM79.6492 36.8964C79.6492 35.4607 80.4938 34.5317 81.8028 34.5317C83.1118 34.5317 83.9563 35.4607 83.9563 36.8964C83.9563 38.3321 83.1118 39.261 81.8028 39.261C80.4938 39.261 79.6492 38.3321 79.6492 36.8964ZM83.0696 36.8964C83.0696 36.0096 82.6895 35.2495 81.845 35.2495C81.0005 35.2495 80.6204 36.0096 80.6204 36.8964C80.6204 37.7831 81.0005 38.501 81.845 38.501C82.6473 38.501 83.0696 37.7831 83.0696 36.8964ZM84.9698 34.5739H85.8565V35.2918H85.8988C86.0677 34.785 86.5322 34.4895 87.0811 34.4895C87.2078 34.4895 87.3767 34.4895 87.4611 34.4895V35.334C87.3767 35.334 87.1656 35.2918 86.9966 35.2918C86.3632 35.2918 85.8988 35.714 85.8988 36.3474V39.1766H85.012V34.5739H84.9698ZM44.4746 45.3417C44.4746 43.9482 45.3191 42.9348 46.5859 42.9348C47.6416 42.9348 48.6128 43.5681 48.6128 45.2572V45.595H45.3613C45.4036 46.4818 45.9103 46.9885 46.6703 46.9885C47.1771 46.9885 47.5571 46.7774 47.726 46.3129L48.5705 46.4818C48.3594 47.2419 47.6416 47.7063 46.6703 47.7063C45.3191 47.7063 44.4746 46.7774 44.4746 45.3417ZM47.7682 44.9194C47.7682 44.2015 47.3037 43.6948 46.6281 43.6948C45.9103 43.6948 45.4458 44.2438 45.4036 44.9194H47.7682ZM51.273 44.7927L52.2865 43.0192H53.2577L51.822 45.2994L53.2577 47.5797H52.2865L51.2308 45.8484L50.2174 47.5797H49.2462L50.6819 45.2994L49.2884 43.0192H50.2596L51.273 44.7927ZM54.1867 43.0192H55.0734V43.7793H55.1579C55.3268 43.4837 55.6224 42.977 56.4669 42.977C57.5648 42.977 58.4093 43.8637 58.4093 45.3417C58.4093 46.8196 57.607 47.7063 56.4669 47.7063C55.6224 47.7063 55.2846 47.1996 55.1156 46.904H55.0734V49.3532H54.1867V43.0192ZM56.2558 46.9463C57.0581 46.9463 57.4803 46.2284 57.4803 45.2994C57.4803 44.3705 57.0581 43.6948 56.2558 43.6948C55.4535 43.6948 55.0734 44.3282 55.0734 45.2994C55.0734 46.2706 55.4957 46.9463 56.2558 46.9463ZM59.2116 45.3417C59.2116 43.9482 60.0561 42.9348 61.3229 42.9348C62.3786 42.9348 63.3498 43.5681 63.3498 45.2572V45.595H60.0984C60.1406 46.4818 60.6473 46.9885 61.4074 46.9885C61.9141 46.9885 62.2941 46.7774 62.4631 46.3129L63.3076 46.4818C63.0964 47.2419 62.3786 47.7063 61.4074 47.7063C60.0139 47.7063 59.2116 46.7774 59.2116 45.3417ZM62.4631 44.9194C62.4631 44.2015 61.9986 43.6948 61.3229 43.6948C60.6051 43.6948 60.1406 44.2438 60.0984 44.9194H62.4631ZM64.3632 43.0192H65.25V43.7371H65.2922C65.4611 43.2303 65.9256 42.9348 66.4746 42.9348C66.6012 42.9348 66.7702 42.9348 66.8546 42.9348V43.7793C66.7702 43.7793 66.559 43.7371 66.3901 43.7371C65.7567 43.7371 65.2922 44.1593 65.2922 44.7927V47.6219H64.4055V43.0192H64.3632ZM67.488 41.7524C67.488 41.4568 67.7414 41.2035 68.0369 41.2035C68.3325 41.2035 68.5859 41.4568 68.5859 41.7524C68.5859 42.048 68.3325 42.3014 68.0369 42.3014C67.7414 42.3014 67.488 42.048 67.488 41.7524ZM67.6147 43.0192H68.5014V47.6219H67.6147V43.0192ZM69.726 43.0192H70.5705V43.7793H70.6128C70.8239 43.2726 71.2462 42.977 71.8796 42.977C72.513 42.977 72.9352 43.2726 73.1041 43.7793H73.1464C73.3575 43.2726 73.8642 42.977 74.5398 42.977C75.3844 42.977 75.9755 43.4837 75.9755 44.5394V47.6219H75.0465V44.6238C75.0465 43.9904 74.6665 43.7371 74.202 43.7371C73.6108 43.7371 73.273 44.1593 73.273 44.7083V47.6219H72.3863V44.5816C72.3863 44.0749 72.0485 43.7371 71.5417 43.7371C71.035 43.7371 70.6128 44.1593 70.6128 44.7927V47.6219H69.726V43.0192ZM76.9467 45.3417C76.9467 43.9482 77.7913 42.9348 79.0581 42.9348C80.1137 42.9348 81.0849 43.5681 81.0849 45.2572V45.595H77.8335C77.8757 46.4818 78.3824 46.9885 79.1425 46.9885C79.6492 46.9885 80.0293 46.7774 80.1982 46.3129L81.0427 46.4818C80.8316 47.2419 80.1137 47.7063 79.1425 47.7063C77.7913 47.7063 76.9467 46.7774 76.9467 45.3417ZM80.2404 44.9194C80.2404 44.2015 79.7759 43.6948 79.1003 43.6948C78.3824 43.6948 77.9179 44.2438 77.8757 44.9194H80.2404ZM83.0273 47.6219H82.1406V43.0192H82.9851V43.7793H83.0273C83.2385 43.2726 83.703 42.977 84.3786 42.977C85.3076 42.977 85.941 43.5681 85.941 44.7083V47.6219H85.0542V44.7927C85.0542 44.1171 84.6742 43.7371 84.083 43.7371C83.4496 43.7371 83.0273 44.1593 83.0273 44.8772V47.6219ZM89.3191 43.7371H88.3901V46.2706C88.3901 46.7774 88.6435 46.904 88.9391 46.904C89.0657 46.904 89.1924 46.8618 89.2346 46.8618L89.4035 47.6219C89.3191 47.6641 89.108 47.7063 88.8124 47.7063C88.0945 47.7063 87.4611 47.3263 87.4611 46.4818V43.7793H86.7855V43.0614H87.4611V41.9635H88.3479V43.0614H89.2769V43.7371H89.3191ZM90.0792 46.3129C90.0792 45.2572 90.9659 45.0461 91.8527 44.9194C92.6972 44.8349 93.035 44.8349 93.035 44.4971C93.035 43.9904 92.7394 43.6526 92.1483 43.6526C91.5571 43.6526 91.2193 43.9482 91.0926 44.286L90.2481 44.0749C90.5437 43.2303 91.3037 42.8925 92.1483 42.8925C92.8661 42.8925 93.9218 43.1459 93.9218 44.4971V47.5374H93.035V46.904H92.9928C92.8239 47.2419 92.4016 47.6219 91.6416 47.6219C90.797 47.7063 90.0792 47.1996 90.0792 46.3129ZM93.035 45.9751V45.3839C92.9084 45.5106 92.2327 45.595 91.9371 45.6372C91.4304 45.7217 91.0082 45.8906 91.0082 46.3551C91.0082 46.7774 91.3882 47.0307 91.8949 47.0307C92.6128 46.9885 93.035 46.4818 93.035 45.9751ZM97.2577 43.7371H96.3287V46.2706C96.3287 46.7774 96.5821 46.904 96.8776 46.904C97.0043 46.904 97.131 46.8618 97.1732 46.8618L97.3421 47.6219C97.2577 47.6641 97.0465 47.7063 96.751 47.7063C96.0331 47.7063 95.3997 47.3263 95.3997 46.4818V43.7793H94.7241V43.0614H95.3997V41.9635H96.2865V43.0614H97.2155V43.7371H97.2577ZM98.1444 41.7524C98.1444 41.4568 98.3978 41.2035 98.6934 41.2035C98.989 41.2035 99.2423 41.4568 99.2423 41.7524C99.2423 42.048 98.989 42.3014 98.6934 42.3014C98.3978 42.3014 98.1444 42.048 98.1444 41.7524ZM98.2711 43.0192H99.1579V47.6219H98.2711V43.0192ZM100.171 45.3417C100.171 43.906 101.016 42.977 102.325 42.977C103.634 42.977 104.478 43.906 104.478 45.3417C104.478 46.7774 103.634 47.7063 102.325 47.7063C101.016 47.7063 100.171 46.7774 100.171 45.3417ZM103.549 45.3417C103.549 44.4549 103.169 43.6948 102.325 43.6948C101.48 43.6948 101.1 44.4549 101.1 45.3417C101.1 46.2284 101.48 46.9463 102.325 46.9463C103.127 46.9463 103.549 46.2284 103.549 45.3417ZM106.336 47.6219H105.45V43.0192H106.294V43.7793H106.336C106.548 43.2726 107.012 42.977 107.688 42.977C108.617 42.977 109.25 43.5681 109.25 44.7083V47.6219H108.405V44.7927C108.405 44.1171 108.025 43.7371 107.434 43.7371C106.801 43.7371 106.379 44.1593 106.379 44.8772V47.6219H106.336ZM44.4746 54.7582C44.4746 53.7025 45.3613 53.4914 46.2481 53.3647C47.0926 53.2802 47.4304 53.2802 47.4304 52.9424C47.4304 52.4357 47.1348 52.0979 46.5437 52.0979C45.9525 52.0979 45.6147 52.3935 45.488 52.7313L44.6435 52.5202C44.9391 51.6756 45.6991 51.3378 46.5437 51.3378C47.2615 51.3378 48.3172 51.5912 48.3172 52.9424V55.9827H47.4304V55.3493H47.3882C47.2193 55.6871 46.797 56.0672 46.037 56.0672C45.1502 56.1516 44.4746 55.6449 44.4746 54.7582ZM47.3882 54.4204V53.8292C47.2615 53.9559 46.5859 54.0403 46.2903 54.0825C45.7836 54.167 45.3613 54.3359 45.3613 54.8004C45.3613 55.2227 45.7414 55.476 46.2481 55.476C46.9659 55.4338 47.3882 54.9271 47.3882 54.4204ZM51.6531 52.1824H50.7241V54.7159C50.7241 55.2227 50.9774 55.3493 51.273 55.3493C51.3997 55.3493 51.5264 55.3071 51.5686 55.3071L51.7375 56.0672C51.6531 56.1094 51.4419 56.1516 51.1464 56.1516C50.4285 56.1516 49.7951 55.7716 49.7951 54.9271V52.2246H49.1195V51.5067H49.7951V50.4088H50.6819V51.5067H51.6108V52.1824H51.6531ZM57.0158 50.62C56.2558 50.62 55.7913 51 55.7913 51.549C55.7913 52.1401 56.4247 52.3513 56.8892 52.4779L57.4803 52.6468C58.2404 52.858 59.2538 53.2802 59.2538 54.3781C59.2538 55.4338 58.4093 56.1939 56.9736 56.1939C55.5801 56.1939 54.7356 55.5182 54.6934 54.3781H55.6224C55.6646 55.0538 56.2558 55.3493 56.9736 55.3493C57.7759 55.3493 58.3249 54.9693 58.3249 54.3359C58.3249 53.787 57.8181 53.5758 57.1425 53.4069L56.4247 53.1958C55.4535 52.9424 54.8201 52.4357 54.8201 51.5912C54.8201 50.5355 55.749 49.8177 57.0158 49.8177C58.2826 49.8177 59.1272 50.5355 59.1694 51.5067H58.2826C58.1982 50.9578 57.7337 50.62 57.0158 50.62ZM60.0984 54.7582C60.0984 53.7025 60.9851 53.4914 61.8719 53.3647C62.7164 53.2802 63.0542 53.2802 63.0542 52.9424C63.0542 52.4357 62.7586 52.0979 62.1675 52.0979C61.5763 52.0979 61.2385 52.3935 61.1118 52.7313L60.2673 52.5202C60.5629 51.6756 61.3229 51.3378 62.1675 51.3378C62.8853 51.3378 63.941 51.5912 63.941 52.9424V55.9827H63.0542V55.3493H63.012C62.8431 55.6871 62.4208 56.0672 61.6608 56.0672C60.774 56.1516 60.0984 55.6449 60.0984 54.7582ZM63.012 54.4204V53.8292C62.8853 53.9559 62.2097 54.0403 61.9141 54.0825C61.4074 54.167 60.9851 54.3359 60.9851 54.8004C60.9851 55.2227 61.3652 55.476 61.8719 55.476C62.5897 55.4338 63.012 54.9271 63.012 54.4204ZM67.1924 56.0672H66.2212L64.5322 51.4645H65.5034L66.6857 55.0115H66.7279L67.9103 51.4645H68.8815L67.1924 56.0672ZM69.346 54.7582C69.346 53.7025 70.2327 53.4914 71.1195 53.3647C71.964 53.2802 72.3018 53.2802 72.3018 52.9424C72.3018 52.4357 72.0062 52.0979 71.4151 52.0979C70.8239 52.0979 70.4861 52.3935 70.3594 52.7313L69.5149 52.5202C69.8105 51.6756 70.5705 51.3378 71.4151 51.3378C72.1329 51.3378 73.1886 51.5912 73.1886 52.9424V55.9827H72.3018V55.3493H72.2596C72.0907 55.6871 71.6684 56.0672 70.9083 56.0672C70.0638 56.1516 69.346 55.6449 69.346 54.7582ZM72.3018 54.4204V53.8292C72.1751 53.9559 71.4995 54.0403 71.2039 54.0825C70.6972 54.167 70.275 54.3359 70.275 54.8004C70.275 55.2227 70.655 55.476 71.1617 55.476C71.8796 55.4338 72.3018 54.9271 72.3018 54.4204ZM77.0312 52.7313C76.9467 52.4357 76.6512 52.0979 76.1022 52.0979C75.5955 52.0979 75.2155 52.3513 75.2155 52.6891C75.2155 52.9847 75.4266 53.1536 75.9333 53.2802L76.6512 53.4491C77.4957 53.6603 77.9179 54.0403 77.9179 54.7159C77.9179 55.5605 77.1579 56.1516 76.0178 56.1516C75.0043 56.1516 74.2865 55.6872 74.1598 54.8848L75.0465 54.7582C75.1732 55.2227 75.511 55.4338 76.0178 55.4338C76.6089 55.4338 76.989 55.1382 76.989 54.8004C76.989 54.5048 76.7778 54.3359 76.3556 54.2092L75.5955 54.0403C74.751 53.8292 74.3287 53.4069 74.3287 52.7735C74.3287 51.9712 75.0465 51.4223 76.1022 51.4223C77.1156 51.4223 77.6646 51.8868 77.8335 52.6046L77.0312 52.7313ZM81.2116 49.9443H82.1406V55.2649H84.9275V56.0672H81.2116V49.9443ZM85.6876 54.7582C85.6876 53.7025 86.5744 53.4914 87.4611 53.3647C88.3057 53.2802 88.6435 53.2802 88.6435 52.9424C88.6435 52.4357 88.3479 52.0979 87.7567 52.0979C87.1656 52.0979 86.8277 52.3935 86.7011 52.7313L85.8565 52.5202C86.1521 51.6756 86.9122 51.3378 87.7567 51.3378C88.4746 51.3378 89.5302 51.5912 89.5302 52.9424V55.9827H88.6435V55.3493H88.6012C88.4323 55.6871 88.0101 56.0672 87.25 56.0672C86.3632 56.1516 85.6876 55.6449 85.6876 54.7582ZM88.6435 54.4204V53.8292C88.5168 53.9559 87.8412 54.0403 87.5456 54.0825C87.0389 54.167 86.6166 54.3359 86.6166 54.8004C86.6166 55.2227 86.9966 55.476 87.5034 55.476C88.179 55.4338 88.6435 54.9271 88.6435 54.4204ZM90.797 49.9443H91.6838V52.2246H91.726C91.8949 51.929 92.1905 51.4223 93.035 51.4223C94.1329 51.4223 94.9774 52.309 94.9774 53.787C94.9774 55.2649 94.1751 56.1516 93.035 56.1516C92.1905 56.1516 91.8527 55.6449 91.6838 55.3493H91.5993V56.0672H90.7126V49.9443H90.797ZM92.8661 55.3916C93.6684 55.3916 94.0907 54.6737 94.0907 53.7447C94.0907 52.8157 93.6684 52.1401 92.8661 52.1401C92.0638 52.1401 91.6838 52.7735 91.6838 53.7447C91.6838 54.7159 92.106 55.3916 92.8661 55.3916ZM98.6511 52.7313C98.5667 52.4357 98.2711 52.0979 97.7222 52.0979C97.2155 52.0979 96.8354 52.3513 96.8354 52.6891C96.8354 52.9847 97.0465 53.1536 97.5533 53.2802L98.2711 53.4491C99.1156 53.6603 99.5379 54.0403 99.5379 54.7159C99.5379 55.5605 98.7778 56.1516 97.6377 56.1516C96.6243 56.1516 95.9064 55.6872 95.7798 54.8848L96.6665 54.7582C96.7932 55.2227 97.131 55.4338 97.6377 55.4338C98.2289 55.4338 98.6089 55.1382 98.6089 54.8004C98.6089 54.5048 98.3978 54.3359 97.9755 54.2092L97.2155 54.0403C96.3709 53.8292 95.9487 53.4069 95.9487 52.7735C95.9487 51.9712 96.6665 51.4223 97.7222 51.4223C98.7356 51.4223 99.2845 51.8868 99.4535 52.6046L98.6511 52.7313Z" fill="white"/>
  <path fill-rule="evenodd" clip-rule="evenodd" d="M39.5763 12.5317V18.9079H39.4918V19.8791C39.4918 23.0461 38.6895 26.1708 37.2538 28.9578C38.7318 31.7447 39.4918 34.8695 39.4918 38.0365V55.3071C39.4918 56.6161 38.4362 57.714 37.0849 57.714H34.9736C31.6377 57.714 28.3863 57.0806 25.346 55.7716C25.0927 55.645 24.7973 55.5183 24.5019 55.3917L24.5014 55.3915C24.5014 55.4338 24.4909 55.476 24.4803 55.5182C24.4698 55.5605 24.4592 55.6027 24.4592 55.6449C24.2481 56.6583 23.4458 57.4184 22.3901 57.5451C21.5456 57.6718 20.7433 57.714 19.8988 57.714C14.536 57.714 9.46881 55.5182 5.79511 51.7178L5.75288 51.7601L4.69722 50.4511L3.85269 49.3954L3.89492 49.3532C1.57246 46.0595 0.305664 42.0902 0.305664 38.0365C0.305664 34.8695 1.06574 31.7869 2.50144 29C1.06574 26.213 0.305664 23.0883 0.305664 19.9213V18.9079V12.5317C0.305664 11.5182 1.10797 10.7159 2.1214 10.7582H2.58589C3.17707 9.57581 3.93714 8.52015 4.73944 7.50672L2.79703 5.18426C2.24808 4.55086 2.1214 3.66411 2.50144 2.90403C2.83925 2.14395 3.5571 1.67946 4.40163 1.67946H9.97553C11.5379 1.67946 13.0581 1.46833 14.536 1.04606C16.2673 0.539347 18.083 0.285988 19.941 0.285988C21.7989 0.285988 23.6147 0.539347 25.346 1.08829C26.8239 1.51056 28.344 1.72169 29.9064 1.72169H35.5226C36.3249 1.72169 37.0849 2.18618 37.4227 2.94626C37.8028 3.66411 37.6761 4.55086 37.1272 5.18426L36.7049 5.69098L35.1425 7.50672C35.9448 8.47793 36.6627 9.57582 37.2961 10.7159H37.7606C38.774 10.7159 39.5763 11.5182 39.5763 12.5317Z" fill="white"/>
  <path d="M3.93677 4.17002C3.59896 3.78998 3.89455 3.19881 4.40127 3.19881H9.97516C11.6642 3.19881 13.3111 2.98768 14.9157 2.52319C16.5203 2.0587 18.1671 1.80534 19.9406 1.80534C21.7141 1.80534 23.361 2.0587 24.9656 2.52319C26.5702 2.98768 28.2592 3.19881 29.9061 3.19881H35.48C35.9867 3.19881 36.2823 3.78998 35.9445 4.21225L33.6642 6.91474C33.3686 7.25255 33.3686 7.75927 33.6642 8.09708C34.4665 9.02606 35.1844 10.0395 35.7755 11.0952C34.2976 9.11052 31.9329 7.88595 29.3993 7.88595H10.5663C7.86384 7.88595 5.33025 9.27942 3.89455 11.5597C4.52794 10.3351 5.33025 9.15274 6.25923 8.09708C6.55482 7.75927 6.55482 7.25255 6.25923 6.91474L3.93677 4.17002ZM18.1671 14.8533C18.1671 13.2065 16.8159 11.813 15.1268 11.813C13.4377 11.813 12.1287 13.1643 12.1287 14.8533C12.1287 16.5424 13.48 17.8936 15.169 17.8936C16.8581 17.8936 18.1671 16.5002 18.1671 14.8533ZM24.7122 17.8514C23.0654 17.8514 21.6719 16.5002 21.6719 14.8111C21.6719 13.122 23.0231 11.7708 24.7122 11.7708C26.4013 11.7708 27.7525 13.122 27.7525 14.8111C27.7525 16.5002 26.4013 17.8514 24.7122 17.8514ZM7.86384 38.0357C7.86384 31.3639 13.2688 25.9589 19.9406 25.9589C26.6124 25.9589 32.0174 31.3639 32.0174 38.0357V49.8169C28.597 49.1835 25.3878 47.5788 22.8965 45.0875C19.645 41.836 17.8293 37.4867 17.8293 32.884C17.8293 31.4906 17.9982 30.1393 18.2938 28.8303C18.4627 28.1969 17.8715 27.6057 17.2381 27.7746C15.6757 28.1969 14.1978 28.957 12.9732 30.0549C12.8888 30.1393 12.8043 30.2238 12.7199 30.3082C12.1709 30.8149 11.8331 31.575 11.8331 32.3351C11.8331 32.504 11.8331 32.6729 11.8331 32.884C11.8331 36.0088 12.4665 39.0491 13.6489 41.9205C14.8312 44.7074 16.478 47.1566 18.6316 49.3101C20.7851 51.4637 23.2343 53.1105 26.0212 54.2929C28.8926 55.5174 31.9329 56.1086 35.0577 56.1086H37.169C37.6757 56.1086 38.0558 55.6863 38.0558 55.2218V38.0357C38.0558 34.742 37.169 31.6595 35.6066 28.957C37.169 26.2967 38.0558 23.2142 38.0558 19.8783V19.836C37.9713 19.8783 37.8446 19.8783 37.7602 19.8783H36.1556C34.7199 22.243 32.1441 23.6787 29.3993 23.6787C27.1191 23.6787 24.9656 22.6652 23.4454 20.9762C23.1498 20.6806 22.812 20.385 22.4742 20.1739C22.3053 20.2583 22.0942 20.3428 21.9675 20.5117L19.9828 22.8764L17.9982 20.5117C17.8715 20.385 17.7026 20.2583 17.5337 20.1739C17.1537 20.385 16.8159 20.6806 16.5203 21.0184C15.9291 21.694 15.2112 22.243 14.4089 22.7074C13.2688 23.3408 11.9598 23.6787 10.6508 23.6787C7.86384 23.6787 5.28802 22.243 3.85232 19.8783H2.16326C2.03658 19.8783 1.95213 19.836 1.86768 19.836V19.8783C1.86768 23.1719 2.75443 26.2967 4.31681 28.957C2.75443 31.6172 1.86768 34.6998 1.86768 37.9934C1.86768 42.3428 3.38783 46.3121 5.96364 49.4368C9.29954 53.4906 14.3245 56.1086 19.9828 56.1086C20.7851 56.1086 21.5452 56.0664 22.3053 55.9819C23.1498 55.8552 23.4032 54.7573 22.6431 54.2929C20.7851 53.2372 19.0961 51.9282 17.5759 50.3658C17.1537 49.9435 16.6469 49.6057 16.0558 49.3946C13.86 48.6345 11.9176 47.241 10.4819 45.4253C8.83505 43.4407 7.86384 40.8648 7.86384 38.0357Z" fill="black"/>
  <path d="M37.7604 12.2372H35.6913C34.4245 9.95699 32.0176 8.56351 29.3996 8.56351H10.5666C7.94852 8.56351 5.54161 9.95699 4.27482 12.2372H2.12127C1.95236 12.2372 1.82568 12.3639 1.82568 12.5328V18.909C1.82568 19.0779 1.95236 19.2046 2.12127 19.2046H4.19037C6.09056 22.7094 10.4821 24.0184 13.9869 22.1182C14.7048 21.7382 15.3804 21.1892 15.9293 20.5981C16.9428 19.4579 18.4207 18.8246 19.9408 18.8246C21.461 18.8246 22.8967 19.4579 23.9101 20.5558C25.3036 22.1182 27.246 23.005 29.3574 23.005C32.0176 23.005 34.4668 21.527 35.7336 19.2046H37.7604C37.9293 19.2046 38.056 19.0779 38.056 18.909V12.5328C38.056 12.3639 37.9293 12.2372 37.7604 12.2372ZM29.3574 22.4138C27.4572 22.4138 25.7259 21.6115 24.4169 20.1758C23.2767 18.9512 21.6721 18.2334 19.9831 18.2334C18.294 18.2334 16.6472 18.9512 15.5071 20.218C13.0579 22.9205 8.87751 23.1317 6.17501 20.6825C3.47252 18.2334 3.26138 14.053 5.71052 11.3505C6.97731 9.95699 8.75083 9.15469 10.6088 9.15469H29.3996C33.0311 9.15469 36.0291 12.1105 36.0291 15.7842C36.0291 19.4579 33.0311 22.4138 29.3574 22.4138Z" fill="#D31029"/>
</svg>
