<svg width="163" height="72" viewBox="0 0 163 72" fill="none" xmlns="http://www.w3.org/2000/svg">
<path d="M76.9278 30.5413C76.2488 36.8944 75.2092 43.2402 74.4018 49.572C74.1329 51.6555 73.7682 53.8101 73.6586 55.9144C73.4069 57.6516 73.1876 59.5934 73.6233 61.3031C73.8334 63.0005 75.3467 64.3721 76.8624 64.9897C78.2483 65.5238 79.7862 65.5635 81.2507 65.607C83.5607 65.5818 85.9203 65.6701 88.2363 65.5875C99.5551 65.2819 96.4022 57.2604 104.295 53.6585C107.795 51.9687 112.161 52.2858 115.532 54.1682C117.173 54.9075 118.662 56.1102 120.262 56.9146C122.165 57.9447 124.252 58.685 126.313 59.3064C129.84 60.2576 133.549 60.7138 137.134 61.2535C144.749 62.3997 149.027 62.6955 154.112 63.1587C155.946 63.3257 157.412 62.1981 156.895 60.4256C156.463 59.2694 155.413 58.4615 154.443 57.8478C137.388 47.6329 120.73 36.6015 103.858 26.1158C93.5522 19.5583 83.2656 13.0028 73.042 6.39592C71.7176 5.60526 70.1315 6.02465 69.4962 7.42323C69.3525 8.97463 69.0345 10.7203 67.4231 11.3072C66.5365 11.8396 65.3584 11.6332 64.4007 11.6706C62.5938 11.7029 60.7645 11.435 58.9977 11.7075C56.2939 11.8572 53.7671 12.958 51.3533 14.009C47.373 15.7676 43.7441 18.171 40.2985 20.7331C29.9543 28.2715 19.973 36.5643 12.2103 46.7639C10.3991 49.0703 8.47796 51.2142 6.96491 53.6104C3.98429 58.2992 8.55361 62.0807 11.933 64.1575C15.3123 66.2342 19.8009 66.7975 22.0178 64.5795C23.9067 62.4864 23.5432 58.9546 23.5626 56.3533C23.6436 53.4955 23.722 50.6258 23.8875 47.8427C24.0942 39.3581 31.5136 31.6944 39.9868 31.9375C42.227 31.7346 45.6989 31.8135 45.8127 34.6843C45.7844 35.9424 45.2296 37.0865 44.9431 38.2398C44.2383 40.2267 45.0419 42.5712 46.8907 43.495C48.4067 44.2557 50.1642 44.6205 51.7866 44.7349C55.2586 45.0691 57.0262 41.4583 57.2359 38.5097C57.7695 34.7484 57.322 30.9175 57.6246 27.2322C57.6413 24.3637 57.939 20.7978 60.6443 19.3523C61.7422 18.4555 63.1935 18.1843 64.4619 17.8974C65.6387 17.5312 66.8442 17.1836 67.9617 16.9426C71.0259 16.0343 75.2598 14.3877 77.4474 17.5408C78.7882 19.8225 78.1898 22.6641 77.7536 25.0586C77.3522 26.9037 77.2039 28.7177 76.9278 30.5413Z" stroke="white" stroke-width="12" stroke-miterlimit="3.9273"/>
<path d="M76.9278 30.5413C76.2488 36.8944 75.2092 43.2402 74.4018 49.572C74.1329 51.6555 73.7682 53.8101 73.6586 55.9144C73.4069 57.6516 73.1876 59.5934 73.6233 61.3031C73.8334 63.0005 75.3467 64.3721 76.8624 64.9897C78.2483 65.5238 79.7862 65.5635 81.2507 65.607C83.5607 65.5818 85.9203 65.6701 88.2363 65.5875C99.5551 65.2819 96.4022 57.2604 104.295 53.6585C107.795 51.9687 112.161 52.2858 115.532 54.1682C117.173 54.9075 118.662 56.1102 120.262 56.9146C122.165 57.9447 124.252 58.685 126.313 59.3064C129.84 60.2576 133.549 60.7138 137.134 61.2535C144.749 62.3997 149.027 62.6955 154.112 63.1587C155.946 63.3257 157.412 62.1981 156.895 60.4256C156.463 59.2694 155.413 58.4615 154.443 57.8478C137.388 47.6329 120.73 36.6015 103.858 26.1158C93.5522 19.5583 83.2656 13.0028 73.042 6.39592C71.7176 5.60526 70.1315 6.02465 69.4962 7.42323C69.3525 8.97463 69.0345 10.7203 67.4231 11.3072C66.5365 11.8396 65.3584 11.6332 64.4007 11.6706C62.5938 11.7029 60.7645 11.435 58.9977 11.7075C56.2939 11.8572 53.7671 12.958 51.3533 14.009C47.373 15.7676 43.7441 18.171 40.2985 20.7331C29.9543 28.2715 19.973 36.5643 12.2103 46.7639C10.3991 49.0703 8.47796 51.2142 6.96491 53.6104C3.98429 58.2992 8.55361 62.0807 11.933 64.1575C15.3123 66.2342 19.8009 66.7975 22.0178 64.5795C23.9067 62.4864 23.5432 58.9546 23.5626 56.3533C23.6436 53.4955 23.722 50.6258 23.8875 47.8427C24.0942 39.3581 31.5136 31.6944 39.9868 31.9375C42.227 31.7346 45.6989 31.8135 45.8127 34.6843C45.7844 35.9424 45.2296 37.0865 44.9431 38.2398C44.2383 40.2267 45.0419 42.5712 46.8907 43.495C48.4067 44.2557 50.1642 44.6205 51.7866 44.7349C55.2586 45.0691 57.0262 41.4583 57.2359 38.5097C57.7695 34.7484 57.322 30.9175 57.6246 27.2322C57.6413 24.3637 57.939 20.7978 60.6443 19.3523C61.7422 18.4555 63.1935 18.1843 64.4619 17.8974C65.6387 17.5312 66.8442 17.1836 67.9617 16.9426C71.0259 16.0343 75.2598 14.3877 77.4474 17.5408C78.7882 19.8225 78.1898 22.6641 77.7536 25.0586C77.3522 26.9037 77.2039 28.7177 76.9278 30.5413Z" stroke="black" stroke-width="4" stroke-miterlimit="3.9273"/>
</svg>
