<svg width="133" height="73" viewBox="0 0 133 73" fill="none" xmlns="http://www.w3.org/2000/svg">
<path d="M75.253 66.3846C68.9901 66.4246 62.679 66.4638 56.4172 66.44C51.2523 66.9628 51.7935 63.9774 48.9726 61.1316C46.1366 58.2377 41.8521 59.3114 38.2273 59.3426C29.7644 59.551 21.1773 58.6072 13.1339 55.9159C11.6423 55.4659 11.0711 53.7386 11.8955 52.4434C13.0506 51.0343 14.8812 49.9808 15.0918 48.0197C15.6594 43.062 8.68031 42.7858 6.57149 37.7323C4.30849 32.3248 9.39584 23.8375 10.8924 18.489C12.9967 13.1473 13.1806 13.3452 17.9853 11.3235C19.7422 10.8117 21.1426 9.59071 22.6657 8.69139C24.9383 7.11856 27.7271 6.28974 30.4488 6.54595C34.6258 7.03578 38.2052 9.60752 41.5325 11.9192C45.3574 14.6492 46.7182 20.1617 48.1642 24.2894C48.859 26.2906 50.3797 27.8272 51.5775 29.4859C55.0122 34.3793 59.6668 38.7433 65.541 40.3017C69.4759 41.3383 73.654 41.309 77.6125 40.9883C81.0939 40.9066 83.2468 40.2182 85.0795 37.1999C86.813 34.8107 89.7989 33.7139 92.5988 33.628C97.3137 33.161 102.15 33.1115 106.754 33.9285C110.73 34.8779 114.147 37.1034 117.669 38.8674C119.48 39.8581 121.235 40.8079 122.991 41.7258C124.589 42.529 126.107 43.7222 125.994 45.6211C125.981 46.8109 125.44 47.9434 124.942 48.9249C124.481 50.0748 123.964 51.1997 123.497 52.2616C122.056 55.7981 120.665 59.2556 116.234 59.0727C113.763 59.1085 107.542 56.3411 105.856 57.5242C104.169 58.7072 104.808 59.995 104.764 61.5437C104.32 66.32 99.6634 66.6842 95.8439 66.3844C88.9065 66.4763 82.1018 66.315 75.253 66.3846Z" stroke="white" stroke-width="12" stroke-miterlimit="2.16"/>
<path d="M75.253 66.3846C68.9901 66.4246 62.679 66.4638 56.4172 66.44C51.2523 66.9628 51.7935 63.9774 48.9726 61.1316C46.1366 58.2377 41.8521 59.3114 38.2273 59.3426C29.7644 59.551 21.1773 58.6072 13.1339 55.9159C11.6423 55.4659 11.0711 53.7386 11.8955 52.4434C13.0506 51.0343 14.8812 49.9808 15.0918 48.0197C15.6594 43.062 8.68031 42.7858 6.57149 37.7323C4.30849 32.3248 9.39584 23.8375 10.8924 18.489C12.9967 13.1473 13.1806 13.3452 17.9853 11.3235C19.7422 10.8117 21.1426 9.59071 22.6657 8.69139C24.9383 7.11856 27.7271 6.28974 30.4488 6.54595C34.6258 7.03578 38.2052 9.60752 41.5325 11.9192C45.3574 14.6492 46.7182 20.1617 48.1642 24.2894C48.859 26.2906 50.3797 27.8272 51.5775 29.4859C55.0122 34.3793 59.6668 38.7433 65.541 40.3017C69.4759 41.3383 73.654 41.309 77.6125 40.9883C81.0939 40.9066 83.2468 40.2182 85.0795 37.1999C86.813 34.8107 89.7989 33.7139 92.5988 33.628C97.3137 33.161 102.15 33.1115 106.754 33.9285C110.73 34.8779 114.147 37.1034 117.669 38.8674C119.48 39.8581 121.235 40.8079 122.991 41.7258C124.589 42.529 126.107 43.7222 125.994 45.6211C125.981 46.8109 125.44 47.9434 124.942 48.9249C124.481 50.0748 123.964 51.1997 123.497 52.2616C122.056 55.7981 120.665 59.2556 116.234 59.0727C113.763 59.1085 107.542 56.3411 105.856 57.5242C104.169 58.7072 104.808 59.995 104.764 61.5437C104.32 66.32 99.6634 66.6842 95.8439 66.3844C88.9065 66.4763 82.1018 66.315 75.253 66.3846Z" stroke="black" stroke-width="4" stroke-miterlimit="2.16"/>
</svg>
