<svg width="109" height="73" viewBox="0 0 109 73" fill="none" xmlns="http://www.w3.org/2000/svg">
<path d="M81.0279 57.2636C73.589 59.4716 66.1039 61.6184 58.6418 63.7804C56.257 64.5394 53.8107 65.2371 51.4106 65.9271C48.9719 66.8855 47.141 66.7628 45.4102 64.6237C41.3868 58.5746 36.8788 52.8015 33.0247 46.6067C29.4168 40.803 26.7704 34.4625 23.4087 28.5131C20.7239 24.0203 17.2083 19.9492 13.2541 16.5528C11.554 14.8891 9.83853 13.2638 8.09995 11.7228C7.54606 10.9407 6.61523 10.4731 6.25367 9.57605C5.29976 7.81268 7.23835 6.94633 8.71537 6.89267C12.3772 6.30232 16.1466 6.46333 19.793 6.816C28.0551 7.15334 36.2557 8.64837 44.4101 9.72939C50.9336 10.8641 57.5725 10.5727 64.1037 10.8027C67.7963 10.8411 68.2271 14.4751 66.3346 16.9362C64.7345 19.1136 62.3498 20.6623 59.8727 21.6129C54.5646 23.9513 49.2412 22.5483 43.8716 21.5363C40.6098 20.9843 36.4865 20.7696 34.4094 23.7596C30.663 28.8351 35.2325 33.7112 37.6404 38.0966C40.6868 43.264 46.2794 44.5827 50.1797 39.6223C55.0031 33.4428 61.8651 32.8908 69.1041 32.7988C75.4814 32.4845 81.828 32.3235 88.1053 31.9555C91.8056 31.6871 96.2213 31.2961 98.6445 34.5622C100.368 36.4789 100.991 39.0933 101.876 41.3856C102.676 43.77 103.783 46.6221 102.183 48.8225C100.083 52.0425 95.4597 52.8322 92.1056 54.0359C88.39 55.1782 84.7436 56.3206 81.0279 57.2636Z" stroke="white" stroke-width="12"/>
<path d="M81.0279 57.2636C73.589 59.4716 66.1039 61.6184 58.6418 63.7804C56.257 64.5394 53.8107 65.2371 51.4106 65.9271C48.9719 66.8855 47.141 66.7628 45.4102 64.6237C41.3868 58.5746 36.8788 52.8015 33.0247 46.6067C29.4168 40.803 26.7704 34.4625 23.4087 28.5131C20.7239 24.0203 17.2083 19.9492 13.2541 16.5528C11.554 14.8891 9.83853 13.2638 8.09995 11.7228C7.54606 10.9407 6.61523 10.4731 6.25367 9.57605C5.29976 7.81268 7.23835 6.94633 8.71537 6.89267C12.3772 6.30232 16.1466 6.46333 19.793 6.816C28.0551 7.15334 36.2557 8.64837 44.4101 9.72939C50.9336 10.8641 57.5725 10.5727 64.1037 10.8027C67.7963 10.8411 68.2271 14.4751 66.3346 16.9362C64.7345 19.1136 62.3498 20.6623 59.8727 21.6129C54.5646 23.9513 49.2412 22.5483 43.8716 21.5363C40.6098 20.9843 36.4865 20.7696 34.4094 23.7596C30.663 28.8351 35.2325 33.7112 37.6404 38.0966C40.6868 43.264 46.2794 44.5827 50.1797 39.6223C55.0031 33.4428 61.8651 32.8908 69.1041 32.7988C75.4814 32.4845 81.828 32.3235 88.1053 31.9555C91.8056 31.6871 96.2213 31.2961 98.6445 34.5622C100.368 36.4789 100.991 39.0933 101.876 41.3856C102.676 43.77 103.783 46.6221 102.183 48.8225C100.083 52.0425 95.4597 52.8322 92.1056 54.0359C88.39 55.1782 84.7436 56.3206 81.0279 57.2636Z" stroke="black" stroke-width="4"/>
</svg>
