<svg width="122" height="73" viewBox="0 0 122 73" fill="none" xmlns="http://www.w3.org/2000/svg">
<path d="M100.69 27.0452C104.567 26.107 108.513 25.3645 112.378 24.4014C116.922 23.8979 116.324 21.1872 115.193 17.6776C114.626 15.5107 114.054 13.3276 113.496 11.1543C113.125 9.91099 112.974 8.54783 112.421 7.38397C111.202 5.52399 108.239 7.15072 106.488 7.31767C103.781 7.99858 101.017 8.45494 98.3071 9.10461C90.7821 10.6083 83.4095 12.821 75.9493 14.6043C74.1696 15.098 72.2688 15.3265 70.6188 16.1792C68.7108 17.6924 71.3702 22.4171 71.6862 24.5065C71.8592 25.3804 72.27 26.268 72.0297 27.1624C71.2862 28.7024 69.1802 28.5603 67.7344 28.8979C65.3108 29.2532 62.9106 29.9047 60.6425 30.8C59.1864 31.4517 56.3202 31.9154 56.5705 33.9792C57.0921 35.7926 56.5449 36.6702 54.8423 37.3144C52.5318 38.2339 50.4334 39.579 48.2313 40.6463C45.7555 42.0791 43.1818 43.2965 40.7496 44.6976C38.6205 45.5452 38.3982 43.0545 38.4197 41.5795C38.3097 40.4998 38.2486 39.4047 38.0624 38.3671C37.8746 35.7047 37.4376 34.4896 34.6159 33.9746C32.3527 33.6002 33.2388 31.6434 31.8254 30.5848C30.474 29.6743 28.7695 30.48 27.3356 30.6424C24.4209 31.2679 21.5674 32.1955 18.7535 33.0677C12.577 34.7576 10.2594 39.1409 8.53975 44.8489C7.78212 47.9652 7.71442 51.1732 7.11781 54.299C6.80904 56.6226 7.00451 56.9071 8.96328 58.2891C10.3187 59.2232 11.6164 60.2793 12.9416 61.2088C14.6413 62.4659 16.2943 63.8236 17.9836 65.0482C19.6109 66.4712 21.1636 67.282 22.8123 65.3974C24.1992 63.6031 25.2146 61.5124 26.6984 59.8409C29.2793 56.9922 33.158 55.8927 35.8763 53.304C38.2457 51.1155 38.5214 47.6164 40.8246 45.4561C43.2516 43.2458 46.4043 42.0874 49.1536 40.4892C54.072 37.6877 59.5765 36.3862 64.9878 35.1857C76.8953 32.3295 88.7156 29.4367 100.69 27.0452Z" stroke="white" stroke-width="12" stroke-miterlimit="2.6024"/>
<path d="M100.69 27.0452C104.567 26.107 108.513 25.3645 112.378 24.4014C116.922 23.8979 116.324 21.1872 115.193 17.6776C114.626 15.5107 114.054 13.3276 113.496 11.1543C113.125 9.91099 112.974 8.54783 112.421 7.38397C111.202 5.52399 108.239 7.15072 106.488 7.31767C103.781 7.99858 101.017 8.45494 98.3071 9.10461C90.7821 10.6083 83.4095 12.821 75.9493 14.6043C74.1696 15.098 72.2688 15.3265 70.6188 16.1792C68.7108 17.6924 71.3702 22.4171 71.6862 24.5065C71.8592 25.3804 72.27 26.268 72.0297 27.1624C71.2862 28.7024 69.1802 28.5603 67.7344 28.8979C65.3108 29.2532 62.9106 29.9047 60.6425 30.8C59.1864 31.4517 56.3202 31.9154 56.5705 33.9792C57.0921 35.7926 56.5449 36.6702 54.8423 37.3144C52.5318 38.2339 50.4334 39.579 48.2313 40.6463C45.7555 42.0791 43.1818 43.2965 40.7496 44.6976C38.6205 45.5452 38.3982 43.0545 38.4197 41.5795C38.3097 40.4998 38.2486 39.4047 38.0624 38.3671C37.8746 35.7047 37.4376 34.4896 34.6159 33.9746C32.3527 33.6002 33.2388 31.6434 31.8254 30.5848C30.474 29.6743 28.7695 30.48 27.3356 30.6424C24.4209 31.2679 21.5674 32.1955 18.7535 33.0677C12.577 34.7576 10.2594 39.1409 8.53975 44.8489C7.78212 47.9652 7.71442 51.1732 7.11781 54.299C6.80904 56.6226 7.00451 56.9071 8.96328 58.2891C10.3187 59.2232 11.6164 60.2793 12.9416 61.2088C14.6413 62.4659 16.2943 63.8236 17.9836 65.0482C19.6109 66.4712 21.1636 67.282 22.8123 65.3974C24.1992 63.6031 25.2146 61.5124 26.6984 59.8409C29.2793 56.9922 33.158 55.8927 35.8763 53.304C38.2457 51.1155 38.5214 47.6164 40.8246 45.4561C43.2516 43.2458 46.4043 42.0874 49.1536 40.4892C54.072 37.6877 59.5765 36.3862 64.9878 35.1857C76.8953 32.3295 88.7156 29.4367 100.69 27.0452Z" stroke="black" stroke-width="4" stroke-miterlimit="2.6024"/>
</svg>
