<svg width="105" height="73" viewBox="0 0 105 73" fill="none" xmlns="http://www.w3.org/2000/svg">
<path d="M63.5039 66.3393C50.7678 66.2648 38.011 66.3606 25.2706 66.3992C21.3382 66.4138 17.367 66.4019 13.4457 66.4536C11.4135 66.3556 9.31587 66.6935 7.31568 66.2552C6.09532 65.9612 5.61916 64.5894 6.33722 63.5599C7.16469 62.6574 8.17687 61.8783 8.87694 60.8685C9.70355 59.5236 10.0239 57.8247 9.53166 56.3031C9.24773 54.8005 8.45842 53.3861 8.0059 51.9098C7.15313 48.8607 7.80394 45.6884 8.13764 42.5961C9.35949 34.6739 10.4569 26.7102 11.5453 18.7563C11.9229 16.2266 12.2895 13.6599 12.6196 11.123C12.9542 7.62589 14.3591 5.50241 18.1501 6.97169C19.9794 7.59633 20.9005 9.4283 22.0021 10.8664C22.9582 12.4239 24.2823 13.7768 25.6387 15.006C27.2444 16.3275 28.8479 17.8092 30.7355 18.6854C32.5088 19.7455 34.6123 20.3862 35.8219 22.13C38.7732 26.1306 35.3037 28.9104 38.6842 33.6543C40.0473 35.4572 41.9072 36.7675 43.8058 37.8879C45.7548 39.0813 52.6812 41.7008 51.3068 44.5099C49.9843 46.7897 47.0206 45.8955 44.9313 45.5741C42.4015 45.1029 39.8748 44.4904 37.3469 44.2733C32.6629 43.7189 27.741 42.2716 23.2325 43.9588C21.2803 44.8078 17.9854 47.0622 19.1674 49.4567C20.2493 50.4533 21.8924 50.2863 23.2108 50.4536C29.1382 50.9716 35.0929 51.046 41.0229 50.9898C48.3498 50.9563 55.6832 50.8565 62.9595 50.957C64.9249 51.0391 66.9226 50.9975 68.8376 51.0066C70.8711 51.1328 73.2603 50.9891 74.5605 49.2655C76.9673 45.9211 75.1621 41.1826 72.1364 38.8982C68.4805 36.2277 63.3223 36.2497 60.2627 32.7809C56.4128 28.9332 56.6583 23.2284 58.7728 18.617C59.7977 16.2187 60.7429 13.5133 62.8703 11.9412C65.0248 10.3398 67.8923 10.7677 69.6369 12.6667C71.2788 14.589 72.2332 16.9559 73.597 18.9847C76.6311 23.9981 79.7381 28.9517 82.7223 33.9014C86.6033 40.1382 90.456 46.3763 94.2866 52.5401C95.2583 54.2381 96.3384 55.8277 97.3239 57.4122C98.2176 58.8407 99.2743 60.3278 98.935 62.0275C97.4326 67.6752 87.8417 66.2187 83.382 66.4638C76.7213 66.4207 70.1382 66.6377 63.5039 66.3393Z" stroke="white" stroke-width="12" stroke-miterlimit="3.3231"/>
<path d="M63.5039 66.3393C50.7678 66.2648 38.011 66.3606 25.2706 66.3992C21.3382 66.4138 17.367 66.4019 13.4457 66.4536C11.4135 66.3556 9.31587 66.6935 7.31568 66.2552C6.09532 65.9612 5.61916 64.5894 6.33722 63.5599C7.16469 62.6574 8.17687 61.8783 8.87694 60.8685C9.70355 59.5236 10.0239 57.8247 9.53166 56.3031C9.24773 54.8005 8.45842 53.3861 8.0059 51.9098C7.15313 48.8607 7.80394 45.6884 8.13764 42.5961C9.35949 34.6739 10.4569 26.7102 11.5453 18.7563C11.9229 16.2266 12.2895 13.6599 12.6196 11.123C12.9542 7.62589 14.3591 5.50241 18.1501 6.97169C19.9794 7.59633 20.9005 9.4283 22.0021 10.8664C22.9582 12.4239 24.2823 13.7768 25.6387 15.006C27.2444 16.3275 28.8479 17.8092 30.7355 18.6854C32.5088 19.7455 34.6123 20.3862 35.8219 22.13C38.7732 26.1306 35.3037 28.9104 38.6842 33.6543C40.0473 35.4572 41.9072 36.7675 43.8058 37.8879C45.7548 39.0813 52.6812 41.7008 51.3068 44.5099C49.9843 46.7897 47.0206 45.8955 44.9313 45.5741C42.4015 45.1029 39.8748 44.4904 37.3469 44.2733C32.6629 43.7189 27.741 42.2716 23.2325 43.9588C21.2803 44.8078 17.9854 47.0622 19.1674 49.4567C20.2493 50.4533 21.8924 50.2863 23.2108 50.4536C29.1382 50.9716 35.0929 51.046 41.0229 50.9898C48.3498 50.9563 55.6832 50.8565 62.9595 50.957C64.9249 51.0391 66.9226 50.9975 68.8376 51.0066C70.8711 51.1328 73.2603 50.9891 74.5605 49.2655C76.9673 45.9211 75.1621 41.1826 72.1364 38.8982C68.4805 36.2277 63.3223 36.2497 60.2627 32.7809C56.4128 28.9332 56.6583 23.2284 58.7728 18.617C59.7977 16.2187 60.7429 13.5133 62.8703 11.9412C65.0248 10.3398 67.8923 10.7677 69.6369 12.6667C71.2788 14.589 72.2332 16.9559 73.597 18.9847C76.6311 23.9981 79.7381 28.9517 82.7223 33.9014C86.6033 40.1382 90.456 46.3763 94.2866 52.5401C95.2583 54.2381 96.3384 55.8277 97.3239 57.4122C98.2176 58.8407 99.2743 60.3278 98.935 62.0275C97.4326 67.6752 87.8417 66.2187 83.382 66.4638C76.7213 66.4207 70.1382 66.6377 63.5039 66.3393Z" stroke="black" stroke-width="4" stroke-miterlimit="3.3231"/>
</svg>
