<svg width="106" height="73" viewBox="0 0 106 73" fill="none" xmlns="http://www.w3.org/2000/svg">
<path d="M21.0034 54.9838C17.944 57.4795 14.8148 59.8825 11.7564 62.3881C10.9945 63.0392 10.1043 63.6139 9.37518 64.2915C8.56777 64.7974 7.84466 65.8146 6.78391 65.5368C5.64951 65.0366 5.98738 63.88 6.31445 62.9047C6.70408 61.9528 7.08065 60.9722 7.46922 60.0104C8.89524 56.7472 10.1835 53.3184 12.4505 50.5264C15.0131 47.1227 18.2504 44.2279 20.7691 40.7889C24.0875 35.5439 23.9533 34.4673 30.1109 32.0136C34.6124 29.6153 37.7762 25.3673 42.0157 22.5765C45.0494 20.5939 48.51 19.4266 51.7462 17.8428C58.2795 14.5887 65.0377 11.6611 71.6697 8.67675C72.6882 8.17856 73.7667 7.77408 74.7356 7.28113C75.7041 6.8783 76.6929 6.38325 77.7192 6.52468C78.9174 6.58784 79.7186 7.53365 80.6612 8.11422C81.6075 8.63437 82.7227 8.57623 83.7028 8.28225C84.6562 7.83098 85.5224 7.21884 86.5363 6.96129C87.9902 6.69716 89.5571 7.12152 90.6064 8.14111C92.6939 9.98131 94.3967 12.2526 96.366 14.2054C97.5349 15.5025 98.9189 16.6567 99.7117 18.1838C100.185 19.2444 100.14 20.8102 99.0883 21.4621C97.0677 22.7069 95.2494 20.668 94.3117 19.0962C91.8978 15.0291 89.1777 15.4374 85.597 17.7382C83.5857 18.8819 81.4215 19.8117 79.2118 20.4061C76.9792 21.1631 74.7054 21.8143 72.5234 22.5759C70.8327 23.1553 69.0096 23.6187 67.8119 24.9765C64.7629 28.0414 65.789 33.4665 68.9814 36.0002C71.1075 37.8263 73.9528 38.3153 76.5871 38.7967C79.3313 39.2764 82.0683 39.877 84.7147 40.5672C86.9319 40.8927 89.1965 42.514 88.9237 44.9445C88.9222 45.6852 88.5714 46.3428 88.3603 46.9956C88.1098 47.8427 88.0578 48.7689 88.2945 49.5843C89.0415 52.5673 92.3753 53.2247 94.8603 54.0922C98.8449 55.4111 101.152 57.0579 98.7468 61.3756C97.6331 63.525 96.2178 65.7564 93.7115 66.2922C88.4013 67.4853 82.4805 63.2994 78.7647 59.8906C76.4784 57.7812 74.8733 55.1094 73.0813 52.6574C69.7834 47.7133 65.2598 44.9004 59.5922 43.4796C55.1504 42.099 51.7839 42.926 48.07 45.4811C44.6533 47.5343 41.1438 49.4673 37.2948 50.4655C35.5894 50.9064 33.8929 51.3364 32.2077 51.685C31.2949 51.9519 29.9161 52.1681 29.5114 51.0902C29.2849 50.6539 29.3897 50.1324 29.1752 49.7148C27.6882 48.0612 25.7809 51.0352 24.7351 51.9365C23.5269 53.0052 22.2837 54.0276 21.0034 54.9838Z" stroke="white" stroke-width="12" stroke-miterlimit="1.9459"/>
<path d="M21.0034 54.9838C17.944 57.4795 14.8148 59.8825 11.7564 62.3881C10.9945 63.0392 10.1043 63.6139 9.37518 64.2915C8.56777 64.7974 7.84466 65.8146 6.78391 65.5368C5.64951 65.0366 5.98738 63.88 6.31445 62.9047C6.70408 61.9528 7.08065 60.9722 7.46922 60.0104C8.89524 56.7472 10.1835 53.3184 12.4505 50.5264C15.0131 47.1227 18.2504 44.2279 20.7691 40.7889C24.0875 35.5439 23.9533 34.4673 30.1109 32.0136C34.6124 29.6153 37.7762 25.3673 42.0157 22.5765C45.0494 20.5939 48.51 19.4266 51.7462 17.8428C58.2795 14.5887 65.0377 11.6611 71.6697 8.67675C72.6882 8.17856 73.7667 7.77408 74.7356 7.28113C75.7041 6.8783 76.6929 6.38325 77.7192 6.52468C78.9174 6.58784 79.7186 7.53365 80.6612 8.11422C81.6075 8.63437 82.7227 8.57623 83.7028 8.28225C84.6562 7.83098 85.5224 7.21884 86.5363 6.96129C87.9902 6.69716 89.5571 7.12152 90.6064 8.14111C92.6939 9.98131 94.3967 12.2526 96.366 14.2054C97.5349 15.5025 98.9189 16.6567 99.7117 18.1838C100.185 19.2444 100.14 20.8102 99.0883 21.4621C97.0677 22.7069 95.2494 20.668 94.3117 19.0962C91.8978 15.0291 89.1777 15.4374 85.597 17.7382C83.5857 18.8819 81.4215 19.8117 79.2118 20.4061C76.9792 21.1631 74.7054 21.8143 72.5234 22.5759C70.8327 23.1553 69.0096 23.6187 67.8119 24.9765C64.7629 28.0414 65.789 33.4665 68.9814 36.0002C71.1075 37.8263 73.9528 38.3153 76.5871 38.7967C79.3313 39.2764 82.0683 39.877 84.7147 40.5672C86.9319 40.8927 89.1965 42.514 88.9237 44.9445C88.9222 45.6852 88.5714 46.3428 88.3603 46.9956C88.1098 47.8427 88.0578 48.7689 88.2945 49.5843C89.0415 52.5673 92.3753 53.2247 94.8603 54.0922C98.8449 55.4111 101.152 57.0579 98.7468 61.3756C97.6331 63.525 96.2178 65.7564 93.7115 66.2922C88.4013 67.4853 82.4805 63.2994 78.7647 59.8906C76.4784 57.7812 74.8733 55.1094 73.0813 52.6574C69.7834 47.7133 65.2598 44.9004 59.5922 43.4796C55.1504 42.099 51.7839 42.926 48.07 45.4811C44.6533 47.5343 41.1438 49.4673 37.2948 50.4655C35.5894 50.9064 33.8929 51.3364 32.2077 51.685C31.2949 51.9519 29.9161 52.1681 29.5114 51.0902C29.2849 50.6539 29.3897 50.1324 29.1752 49.7148C27.6882 48.0612 25.7809 51.0352 24.7351 51.9365C23.5269 53.0052 22.2837 54.0276 21.0034 54.9838Z" stroke="black" stroke-width="4" stroke-miterlimit="1.9459"/>
</svg>
