<svg width="111" height="72" viewBox="0 0 111 72" fill="none" xmlns="http://www.w3.org/2000/svg">
<path d="M31.0738 20.7188C26.0807 23.382 21.1921 26.3162 16.199 28.9794C12.9692 31.158 7.28244 32.9041 7 37.3638C7.11987 41.1686 12.5682 41.4463 13.0392 46.3944C13.5924 48.7418 12.3019 51.1621 12.7419 53.5502C13.2578 59.4661 18.3207 64.0146 23.9153 65.367C29.7659 66.6712 35.8807 65.5114 41.8234 65.78C53.7738 65.6395 65.7846 65.4932 77.705 65.433C79.673 65.3988 81.8025 65.6925 83.5658 64.8262C87.29 63.0201 88.2341 58.2896 87.2249 54.6415C86.2168 48.2082 81.0459 43.0698 74.951 41.2847C69.676 39.7741 64.455 38.0427 59.372 36.1711C54.0055 34.4376 47.6183 32.4525 46.6415 26.1345C45.8324 20.741 49.7914 16.5922 54.4197 14.6459C56.6775 13.7705 59.2008 11.9263 61.5821 13.1115C65.2391 15.2223 61.092 19.5558 63.2079 22.3596C64.6002 24.9764 68.1111 24.5994 69.9105 22.6817C72.0055 20.3647 73.0209 17.2345 75.2347 15.0506C77.0917 13.2309 79.0458 11.1582 81.5992 10.5333C83.5247 10.036 85.3679 11.4897 85.2033 13.4422C84.856 15.2169 83.534 16.6039 82.3054 17.8008C78.2077 22.317 78.3378 29.6363 83.3256 33.4108C87.0076 36.34 91.9638 36.7502 96.2185 38.2773C97.8586 38.5995 99.3871 39.4261 101.01 39.1133C105.22 38.1049 105.19 32.7597 104.876 29.3474C103.524 20.5725 97.1369 12.017 89.3482 7.95402C83.4508 5.06366 76.7603 6.16175 70.5558 6.4174C63.9273 6.94183 57.1798 7.33321 51.0373 9.72794C47.4755 11.1398 44.2136 13.162 40.9813 14.9494C37.6485 16.9391 34.2491 18.6064 31.0738 20.7188Z" stroke="white" stroke-width="12" stroke-miterlimit="3.7565"/>
<path d="M31.0738 20.7188C26.0807 23.382 21.1921 26.3162 16.199 28.9794C12.9692 31.158 7.28244 32.9041 7 37.3638C7.11987 41.1686 12.5682 41.4463 13.0392 46.3944C13.5924 48.7418 12.3019 51.1621 12.7419 53.5502C13.2578 59.4661 18.3207 64.0146 23.9153 65.367C29.7659 66.6712 35.8807 65.5114 41.8234 65.78C53.7738 65.6395 65.7846 65.4932 77.705 65.433C79.673 65.3988 81.8025 65.6925 83.5658 64.8262C87.29 63.0201 88.2341 58.2896 87.2249 54.6415C86.2168 48.2082 81.0459 43.0698 74.951 41.2847C69.676 39.7741 64.455 38.0427 59.372 36.1711C54.0055 34.4376 47.6183 32.4525 46.6415 26.1345C45.8324 20.741 49.7914 16.5922 54.4197 14.6459C56.6775 13.7705 59.2008 11.9263 61.5821 13.1115C65.2391 15.2223 61.092 19.5558 63.2079 22.3596C64.6002 24.9764 68.1111 24.5994 69.9105 22.6817C72.0055 20.3647 73.0209 17.2345 75.2347 15.0506C77.0917 13.2309 79.0458 11.1582 81.5992 10.5333C83.5247 10.036 85.3679 11.4897 85.2033 13.4422C84.856 15.2169 83.534 16.6039 82.3054 17.8008C78.2077 22.317 78.3378 29.6363 83.3256 33.4108C87.0076 36.34 91.9638 36.7502 96.2185 38.2773C97.8586 38.5995 99.3871 39.4261 101.01 39.1133C105.22 38.1049 105.19 32.7597 104.876 29.3474C103.524 20.5725 97.1369 12.017 89.3482 7.95402C83.4508 5.06366 76.7603 6.16175 70.5558 6.4174C63.9273 6.94183 57.1798 7.33321 51.0373 9.72794C47.4755 11.1398 44.2136 13.162 40.9813 14.9494C37.6485 16.9391 34.2491 18.6064 31.0738 20.7188Z" stroke="black" stroke-width="4" stroke-miterlimit="3.7565"/>
</svg>
