<svg width="117" height="73" viewBox="0 0 117 73" fill="none" xmlns="http://www.w3.org/2000/svg">
<path d="M79.2353 63.7417C75.3614 60.988 71.5084 58.1925 67.6555 55.4074C64.4955 53.0307 60.2857 51.1356 58.9419 47.136C57.3251 42.6757 59.9707 38.8332 58.0495 34.3415C56.8737 31.6507 54.4696 29.808 52.6219 27.6197C51.0051 26.0806 48.9789 23.5678 51.1311 21.6098C52.6743 20.1545 55.7504 21.4214 56.7372 19.2331C57.7241 15.8827 51.824 15.1184 49.5143 15.244C46.1653 15.3487 43.3938 17.537 41.3991 20.0603C36.6538 25.7351 31.919 31.4727 27.0163 37.0219C24.9376 39.5661 22.4075 41.8591 20.6858 44.6441C19.8039 46.4869 19.6779 49.0835 21.3997 50.4132C23.0164 51.9628 25.5255 51.167 27.3627 52.2036C29.2525 53.3134 29.221 55.8472 27.4152 56.9675C26.1344 57.9203 24.3917 57.7109 22.9954 57.2083C18.4076 55.2818 13.7988 52.4444 11.4157 47.9841C9.38952 44.1206 9.13756 39.6708 8.43416 35.4828C7.91974 32.5825 7.74127 29.609 7.36333 26.7297C6.86991 23.484 6.57595 19.9974 8.56014 17.2124C13.1374 10.4173 27.6882 12.5846 35.1106 10.7209C39.2049 9.66341 42.4699 7.1087 46.8687 8.39652C48.9159 8.96191 51.0471 9.80999 53.1363 9.04567C55.6139 8.35465 57.2936 6.16638 60.0547 6.54331C64.1386 6.92023 65.1779 10.9931 67.876 13.328C70.1332 15.223 72.7578 16.647 75.3404 17.9139C82.9202 21.5261 90.584 24.9079 98.0169 28.6248C100.631 30.0383 103.256 31.368 105.66 32.9699C108.599 34.5509 110.814 37.6187 109.712 40.9482C108.83 44.8326 104.368 45.6283 101.597 47.67C99.0352 49.4813 96.7256 51.5439 94.4369 53.5647C93.2191 54.9049 91.0669 55.8367 90.9829 57.7946C91.1194 58.8312 92.0748 59.407 92.4107 60.297C93.1666 62.3177 91.4659 64.2442 89.9016 65.2389C85.9752 67.6156 82.5737 66.3592 79.2353 63.7417Z" stroke="white" stroke-width="12" stroke-miterlimit="2.2737"/>
<path d="M79.2353 63.7417C75.3614 60.988 71.5084 58.1925 67.6555 55.4074C64.4955 53.0307 60.2857 51.1356 58.9419 47.136C57.3251 42.6757 59.9707 38.8332 58.0495 34.3415C56.8737 31.6507 54.4696 29.808 52.6219 27.6197C51.0051 26.0806 48.9789 23.5678 51.1311 21.6098C52.6743 20.1545 55.7504 21.4214 56.7372 19.2331C57.7241 15.8827 51.824 15.1184 49.5143 15.244C46.1653 15.3487 43.3938 17.537 41.3991 20.0603C36.6538 25.7351 31.919 31.4727 27.0163 37.0219C24.9376 39.5661 22.4075 41.8591 20.6858 44.6441C19.8039 46.4869 19.6779 49.0835 21.3997 50.4132C23.0164 51.9628 25.5255 51.167 27.3627 52.2036C29.2525 53.3134 29.221 55.8472 27.4152 56.9675C26.1344 57.9203 24.3917 57.7109 22.9954 57.2083C18.4076 55.2818 13.7988 52.4444 11.4157 47.9841C9.38952 44.1206 9.13756 39.6708 8.43416 35.4828C7.91974 32.5825 7.74127 29.609 7.36333 26.7297C6.86991 23.484 6.57595 19.9974 8.56014 17.2124C13.1374 10.4173 27.6882 12.5846 35.1106 10.7209C39.2049 9.66341 42.4699 7.1087 46.8687 8.39652C48.9159 8.96191 51.0471 9.80999 53.1363 9.04567C55.6139 8.35465 57.2936 6.16638 60.0547 6.54331C64.1386 6.92023 65.1779 10.9931 67.876 13.328C70.1332 15.223 72.7578 16.647 75.3404 17.9139C82.9202 21.5261 90.584 24.9079 98.0169 28.6248C100.631 30.0383 103.256 31.368 105.66 32.9699C108.599 34.5509 110.814 37.6187 109.712 40.9482C108.83 44.8326 104.368 45.6283 101.597 47.67C99.0352 49.4813 96.7256 51.5439 94.4369 53.5647C93.2191 54.9049 91.0669 55.8367 90.9829 57.7946C91.1194 58.8312 92.0748 59.407 92.4107 60.297C93.1666 62.3177 91.4659 64.2442 89.9016 65.2389C85.9752 67.6156 82.5737 66.3592 79.2353 63.7417Z" stroke="black" stroke-width="4" stroke-miterlimit="2.2737"/>
</svg>
