<svg width="164" height="73" viewBox="0 0 164 73" fill="none" xmlns="http://www.w3.org/2000/svg">
<path d="M31.1136 33.2267C26.8904 31.7889 23.0114 29.5573 19.4424 26.8968C17.2944 25.7323 15.451 23.3178 12.779 23.7578C10.6075 23.8691 8.72957 27.0421 6.6454 25.0233C3.91757 20.6814 10.5443 16.5069 13.3561 14.0689C16.8885 11.6443 20.9126 10.105 24.8953 8.57867C29.0774 7.0354 30.5443 10.1396 34.2965 10.6856C41.1066 11.0815 47.0606 4.67316 53.9995 7.017C56.833 7.86318 59.3341 9.6138 61.8836 10.9721C63.4727 11.9124 65.2712 13.4153 67.1545 12.9261C70.145 12.3403 69.8622 8.69242 73.1444 7.54631C76.3029 6.03916 79.7207 7.593 82.6372 8.77876C86.3722 10.2557 89.9992 12.0066 93.5078 13.8519C102.09 18.296 109.947 24.065 116.624 30.971C119.034 34.2928 116.186 37.1993 119.296 41.2724C122.186 44.6721 125.843 47.3619 129.337 50.0347C133.213 53.1355 137.137 56.3131 141.631 58.3286C145.116 59.9526 148.84 60.9189 152.46 61.9177C154.124 62.5144 155.991 62.5216 157.345 63.5817C158.943 65.1361 157.352 66.9277 155.405 66.4085C152.423 65.7803 149.749 64.13 146.784 63.7022C134.292 62.0068 121.585 61.5906 109.489 58.2055C98.9946 55.4366 88.5987 52.5454 78.2863 49.5937C75.4385 48.7749 72.6937 47.9579 69.9404 47.2236C68.2957 46.6894 66.4607 46.4206 65.2049 45.2727C64.0398 44.0506 63.419 42.3488 61.9509 41.5419C59.0743 39.6808 55.4479 39.7581 52.3488 38.7897C45.1 37.2403 38.1327 35.3168 31.1136 33.2267Z" stroke="white" stroke-width="12" stroke-miterlimit="2.1073"/>
<path d="M31.1136 33.2267C26.8904 31.7889 23.0114 29.5573 19.4424 26.8968C17.2944 25.7323 15.451 23.3178 12.779 23.7578C10.6075 23.8691 8.72957 27.0421 6.6454 25.0233C3.91757 20.6814 10.5443 16.5069 13.3561 14.0689C16.8885 11.6443 20.9126 10.105 24.8953 8.57867C29.0774 7.0354 30.5443 10.1396 34.2965 10.6856C41.1066 11.0815 47.0606 4.67316 53.9995 7.017C56.833 7.86318 59.3341 9.6138 61.8836 10.9721C63.4727 11.9124 65.2712 13.4153 67.1545 12.9261C70.145 12.3403 69.8622 8.69242 73.1444 7.54631C76.3029 6.03916 79.7207 7.593 82.6372 8.77876C86.3722 10.2557 89.9992 12.0066 93.5078 13.8519C102.09 18.296 109.947 24.065 116.624 30.971C119.034 34.2928 116.186 37.1993 119.296 41.2724C122.186 44.6721 125.843 47.3619 129.337 50.0347C133.213 53.1355 137.137 56.3131 141.631 58.3286C145.116 59.9526 148.84 60.9189 152.46 61.9177C154.124 62.5144 155.991 62.5216 157.345 63.5817C158.943 65.1361 157.352 66.9277 155.405 66.4085C152.423 65.7803 149.749 64.13 146.784 63.7022C134.292 62.0068 121.585 61.5906 109.489 58.2055C98.9946 55.4366 88.5987 52.5454 78.2863 49.5937C75.4385 48.7749 72.6937 47.9579 69.9404 47.2236C68.2957 46.6894 66.4607 46.4206 65.2049 45.2727C64.0398 44.0506 63.419 42.3488 61.9509 41.5419C59.0743 39.6808 55.4479 39.7581 52.3488 38.7897C45.1 37.2403 38.1327 35.3168 31.1136 33.2267Z" stroke="black" stroke-width="4" stroke-miterlimit="2.1073"/>
</svg>
