<svg width="105" height="72" viewBox="0 0 105 72" fill="none" xmlns="http://www.w3.org/2000/svg">
<path d="M41.6109 31.8617C44.7318 24.2327 47.7816 16.4947 50.6434 8.91978C51.0014 7.9723 52.0115 7.1303 52.9016 6.67462C53.8933 6.16686 55.0737 5.97002 56.1605 6.00365C57.2977 6.03884 58.6041 6.2625 59.5733 6.88107C60.3833 7.39799 61.1202 8.28546 61.5235 9.15204C61.8729 9.90266 62.0013 10.93 61.8315 11.7327C61.6591 12.5473 61.1061 13.4272 60.4971 14.0036C59.9428 14.5283 59.0923 14.8659 58.4443 14.7262C57.6553 14.5562 56.8289 13.7275 56.494 12.7907C56.2404 12.0812 55.1491 11.4763 54.5695 11.2682C54.1911 11.1323 53.2924 11.5093 52.9529 11.8359C52.5055 12.2663 52.0773 13.0488 52.0804 13.6424C52.084 14.3254 52.5125 15.2513 52.9016 15.8617C53.3678 16.5932 54.0099 17.4156 54.7491 17.9004C55.5837 18.4478 56.6534 18.9518 57.6231 18.8553C59.3186 18.6865 61.3173 18.3497 63.1658 18.0811C67.2363 17.4895 71.3026 16.9043 75.3802 16.3778C76.3663 16.2505 77.5235 16.1553 78.4852 16.3778C82.9495 17.411 87.1357 18.5285 91.5208 19.7843C92.3021 20.0081 93.2498 20.2174 93.8046 20.7133C94.1736 21.0432 94.2004 21.7558 94.0612 22.1585C93.9267 22.5472 93.518 22.7937 93.0347 22.9843C91.7731 23.4819 90.4634 23.9523 89.1343 24.223C87.7604 24.5028 86.3047 24.495 84.9003 24.4553C81.4463 24.3574 78.0178 24.0075 74.5591 23.8101C73.1936 23.7322 71.7891 23.6008 70.4534 23.8101C69.1546 24.0137 67.8455 24.5535 66.7583 25.2295C65.9638 25.7234 65.268 26.4744 64.8081 27.3198C64.2758 28.2981 63.9107 29.4216 63.679 30.5198C63.4317 31.6926 63.4487 32.9835 63.6534 34.1327C63.8593 35.2889 64.3152 36.3806 64.9107 37.4359C65.7521 38.9268 66.8496 40.2781 67.6821 41.7714C68.1155 42.549 68.5956 43.3891 68.7085 44.2488C68.8351 45.2128 68.7902 46.3735 68.4006 47.2424C68.0032 48.1284 67.1658 48.9438 66.3477 49.5133C65.3867 50.1825 64.2054 50.9038 63.0632 50.9585C61.3314 51.0414 59.5148 50.1661 57.7258 49.9262C56.9487 49.822 56.1029 49.8282 55.5189 50.1585C55.008 50.4475 54.6996 51.1232 54.7491 51.7585C54.8364 52.8781 55.3658 54.042 55.7756 55.1908C56.1217 56.1612 56.3282 57.1245 56.9046 57.7456C57.2862 58.1567 58.0206 58.2914 58.6495 58.2875C60.1448 58.2782 61.5835 58.2417 63.0888 58.3133C71.7109 58.7234 80.4613 59.1585 89.0573 59.4488C89.6303 59.4682 90.1219 59.0693 90.366 58.5972C90.5667 58.2091 90.2413 57.6667 90.1351 57.2037C89.9334 56.3248 89.2196 55.3372 89.4423 54.5714C89.7908 53.3727 90.3884 52.994 91.2128 52.8424C92.086 52.6817 93.2188 52.6564 94.1638 52.894C95.2716 53.1725 96.3587 53.6999 97.2174 54.4166C97.9667 55.0419 98.4373 55.6964 98.7314 56.6359C99.0189 57.5544 99.0843 58.6534 98.8853 59.6037C98.6737 60.6146 98.0413 61.583 97.4484 62.4424C96.878 63.2691 96.213 64.0564 95.3699 64.5843C94.3996 65.1918 93.2581 65.6903 92.111 65.823C89.3919 66.1376 86.6197 65.9397 83.8482 65.9262C58.3246 65.8021 32.8032 65.9168 7.32835 65.5133C6.73199 65.5039 6.19116 65.2581 6.01966 64.894C5.88324 64.6043 6.48719 63.8434 6.89212 63.6295C8.50582 62.7768 10.1309 62.129 11.9729 61.8488C14.2024 61.5097 16.3044 61.6818 18.5934 61.565C22.3748 61.372 25.9354 61.2537 29.6787 61.0746C30.2227 61.0486 31.1131 60.838 31.3467 60.3262C31.6639 59.631 31.7927 58.8069 32.0652 58.0553C35.2483 49.2757 38.0746 40.5064 41.6109 31.8617Z" stroke="white" stroke-width="12"/>
<path d="M41.6109 31.8617C44.7318 24.2327 47.7816 16.4947 50.6434 8.91978C51.0014 7.9723 52.0115 7.1303 52.9016 6.67462C53.8933 6.16686 55.0737 5.97002 56.1605 6.00365C57.2977 6.03884 58.6041 6.2625 59.5733 6.88107C60.3833 7.39799 61.1202 8.28546 61.5235 9.15204C61.8729 9.90266 62.0013 10.93 61.8315 11.7327C61.6591 12.5473 61.1061 13.4272 60.4971 14.0036C59.9428 14.5283 59.0923 14.8659 58.4443 14.7262C57.6553 14.5562 56.8289 13.7275 56.494 12.7907C56.2404 12.0812 55.1491 11.4763 54.5695 11.2682C54.1911 11.1323 53.2924 11.5093 52.9529 11.8359C52.5055 12.2663 52.0773 13.0488 52.0804 13.6424C52.084 14.3254 52.5125 15.2513 52.9016 15.8617C53.3678 16.5932 54.0099 17.4156 54.7491 17.9004C55.5837 18.4478 56.6534 18.9518 57.6231 18.8553C59.3186 18.6865 61.3173 18.3497 63.1658 18.0811C67.2363 17.4895 71.3026 16.9043 75.3802 16.3778C76.3663 16.2505 77.5235 16.1553 78.4852 16.3778C82.9495 17.411 87.1357 18.5285 91.5208 19.7843C92.3021 20.0081 93.2498 20.2174 93.8046 20.7133C94.1736 21.0432 94.2004 21.7558 94.0612 22.1585C93.9267 22.5472 93.518 22.7937 93.0347 22.9843C91.7731 23.4819 90.4634 23.9523 89.1343 24.223C87.7604 24.5028 86.3047 24.495 84.9003 24.4553C81.4463 24.3574 78.0178 24.0075 74.5591 23.8101C73.1936 23.7322 71.7891 23.6008 70.4534 23.8101C69.1546 24.0137 67.8455 24.5535 66.7583 25.2295C65.9638 25.7234 65.268 26.4744 64.8081 27.3198C64.2758 28.2981 63.9107 29.4216 63.679 30.5198C63.4317 31.6926 63.4487 32.9835 63.6534 34.1327C63.8593 35.2889 64.3152 36.3806 64.9107 37.4359C65.7521 38.9268 66.8496 40.2781 67.6821 41.7714C68.1155 42.549 68.5956 43.3891 68.7085 44.2488C68.8351 45.2128 68.7902 46.3735 68.4006 47.2424C68.0032 48.1284 67.1658 48.9438 66.3477 49.5133C65.3867 50.1825 64.2054 50.9038 63.0632 50.9585C61.3314 51.0414 59.5148 50.1661 57.7258 49.9262C56.9487 49.822 56.1029 49.8282 55.5189 50.1585C55.008 50.4475 54.6996 51.1232 54.7491 51.7585C54.8364 52.8781 55.3658 54.042 55.7756 55.1908C56.1217 56.1612 56.3282 57.1245 56.9046 57.7456C57.2862 58.1567 58.0206 58.2914 58.6495 58.2875C60.1448 58.2782 61.5835 58.2417 63.0888 58.3133C71.7109 58.7234 80.4613 59.1585 89.0573 59.4488C89.6303 59.4682 90.1219 59.0693 90.366 58.5972C90.5667 58.2091 90.2413 57.6667 90.1351 57.2037C89.9334 56.3248 89.2196 55.3372 89.4423 54.5714C89.7908 53.3727 90.3884 52.994 91.2128 52.8424C92.086 52.6817 93.2188 52.6564 94.1638 52.894C95.2716 53.1725 96.3587 53.6999 97.2174 54.4166C97.9667 55.0419 98.4373 55.6964 98.7314 56.6359C99.0189 57.5544 99.0843 58.6534 98.8853 59.6037C98.6737 60.6146 98.0413 61.583 97.4484 62.4424C96.878 63.2691 96.213 64.0564 95.3699 64.5843C94.3996 65.1918 93.2581 65.6903 92.111 65.823C89.3919 66.1376 86.6197 65.9397 83.8482 65.9262C58.3246 65.8021 32.8032 65.9168 7.32835 65.5133C6.73199 65.5039 6.19116 65.2581 6.01966 64.894C5.88324 64.6043 6.48719 63.8434 6.89212 63.6295C8.50582 62.7768 10.1309 62.129 11.9729 61.8488C14.2024 61.5097 16.3044 61.6818 18.5934 61.565C22.3748 61.372 25.9354 61.2537 29.6787 61.0746C30.2227 61.0486 31.1131 60.838 31.3467 60.3262C31.6639 59.631 31.7927 58.8069 32.0652 58.0553C35.2483 49.2757 38.0746 40.5064 41.6109 31.8617Z" stroke="black" stroke-width="4"/>
</svg>
