<svg width="143" height="73" viewBox="0 0 143 73" fill="none" xmlns="http://www.w3.org/2000/svg">
<path d="M55.5991 61.5123C56.8388 61.6274 65.5463 64.3037 70.6104 65.5591C72.392 66.0008 76.578 66.4915 78.5225 66.4123C85.7785 66.1165 88.8447 66.0168 92.5034 65.7641C93.389 65.703 99.5778 64.7495 100.023 64.3719C100.58 63.8995 101.068 63.1986 101.098 62.3131C101.125 61.5046 101.737 60.2793 102.915 59.6057C104.642 58.6184 107.786 57.5264 109.514 56.571C110.342 56.113 110.758 55.331 111.198 54.4711C115.425 46.1959 119.815 37.8599 122.897 29.3022C123.193 28.4796 122.801 27.1194 122.576 26.2667C122.1 24.4651 122.021 23.0182 123.066 22.2151C127.337 19.0705 131.444 15.7584 135.874 12.6403C136.532 12.1772 136.892 10.9167 136.992 10.1712C137.065 9.62474 136.616 9.00847 136.089 8.42891C135.801 8.11196 134.515 8.17744 134.069 8.20824C126.412 8.73768 120.642 9.1309 112.933 9.46723C111.701 9.52102 108.146 9.07436 106.938 8.82088C103.419 8.08265 101.512 7.343 98.0134 6.65914C96.7419 6.4106 95.3898 6.39868 94.7164 7.02293C94.4783 7.24366 93.5867 8.1256 93.1599 8.94492C92.6219 9.97765 91.5737 11.6326 90.7149 13.671C90.0671 15.2086 89.7475 17.5298 89.8192 19.2427C89.9361 22.0346 91.8574 31.5712 91.5799 32.9597C91.2897 34.412 88.7083 37.3192 87.5256 38.765C87.2038 39.1968 85.9847 39.1073 85.197 38.7227C84.4093 38.3382 83.5392 37.7739 82.7422 37.6923C74.2323 36.82 62.8531 36.6273 52.6775 35.7525C52.2629 35.7169 52.0167 35.4561 51.9705 34.8572C51.8941 33.8654 51.3575 33.6434 50.9091 33.7943C47.4625 34.9543 43.156 36.3499 39.626 37.6794C36.606 38.8168 34.4746 40.1524 32.0491 41.998C27.799 45.2317 22.1594 50.5727 19.334 52.8039C17.2625 54.4398 12.1639 55.9249 8.57669 57.2798C7.56035 57.6637 6.76693 58.3877 7.06255 59.4141C7.681 61.5613 8.46185 63.7804 9.48096 65.6073C9.80341 66.1853 11.2783 66.6351 11.9718 66.4627C18.6294 64.8076 24.7653 62.2156 31.4482 60.4944C32.3696 60.2571 33.9575 60.1302 35.0612 60.1933C42.6934 60.7097 47.8719 60.9628 55.5991 61.5123Z" stroke="white" stroke-width="12" stroke-linejoin="round"/>
<path d="M55.5991 61.5123C56.8388 61.6274 65.5463 64.3037 70.6104 65.5591C72.392 66.0008 76.578 66.4915 78.5225 66.4123C85.7785 66.1165 88.8447 66.0168 92.5034 65.7641C93.389 65.703 99.5778 64.7495 100.023 64.3719C100.58 63.8995 101.068 63.1986 101.098 62.3131C101.125 61.5046 101.737 60.2793 102.915 59.6057C104.642 58.6184 107.786 57.5264 109.514 56.571C110.342 56.113 110.758 55.331 111.198 54.4711C115.425 46.1959 119.815 37.8599 122.897 29.3022C123.193 28.4796 122.801 27.1194 122.576 26.2667C122.1 24.4651 122.021 23.0182 123.066 22.2151C127.337 19.0705 131.444 15.7584 135.874 12.6403C136.532 12.1772 136.892 10.9167 136.992 10.1712C137.065 9.62474 136.616 9.00847 136.089 8.42891C135.801 8.11196 134.515 8.17744 134.069 8.20824C126.412 8.73768 120.642 9.1309 112.933 9.46723C111.701 9.52102 108.146 9.07436 106.938 8.82088C103.419 8.08265 101.512 7.343 98.0134 6.65914C96.7419 6.4106 95.3898 6.39868 94.7164 7.02293C94.4783 7.24366 93.5867 8.1256 93.1599 8.94492C92.6219 9.97765 91.5737 11.6326 90.7149 13.671C90.0671 15.2086 89.7475 17.5298 89.8192 19.2427C89.9361 22.0346 91.8574 31.5712 91.5799 32.9597C91.2897 34.412 88.7083 37.3192 87.5256 38.765C87.2038 39.1968 85.9847 39.1073 85.197 38.7227C84.4093 38.3382 83.5392 37.7739 82.7422 37.6923C74.2323 36.82 62.8531 36.6273 52.6775 35.7525C52.2629 35.7169 52.0167 35.4561 51.9705 34.8572C51.8941 33.8654 51.3575 33.6434 50.9091 33.7943C47.4625 34.9543 43.156 36.3499 39.626 37.6794C36.606 38.8168 34.4746 40.1524 32.0491 41.998C27.799 45.2317 22.1594 50.5727 19.334 52.8039C17.2625 54.4398 12.1639 55.9249 8.57669 57.2798C7.56035 57.6637 6.76693 58.3877 7.06255 59.4141C7.681 61.5613 8.46185 63.7804 9.48096 65.6073C9.80341 66.1853 11.2783 66.6351 11.9718 66.4627C18.6294 64.8076 24.7653 62.2156 31.4482 60.4944C32.3696 60.2571 33.9575 60.1302 35.0612 60.1933C42.6934 60.7097 47.8719 60.9628 55.5991 61.5123Z" stroke="black" stroke-width="4" stroke-linejoin="round"/>
</svg>
