<svg width="76" height="73" viewBox="0 0 76 73" fill="none" xmlns="http://www.w3.org/2000/svg">
<path d="M6.08332 46.3397C6.0996 34.4105 6.16613 22.4305 6.22703 10.5058C6.17581 9.35055 6.10076 8.0422 6.90701 7.09567C7.90735 6.12392 9.45062 6.45712 10.4441 7.26565C12.3316 9.08489 13.2786 11.6753 14.0545 14.1202C15.308 19.6166 14.2543 25.2559 14.4599 30.8092C14.3465 33.193 15.8612 35.7398 18.5373 35.349C21.1244 34.7259 21.5967 32.0822 22.3178 29.9268C24.1278 25.7645 27.8232 24.9343 31.9311 24.257C35.5688 23.6051 39.2044 22.8638 42.8561 22.2413C45.288 21.8149 47.8335 21.4891 50.2817 21.4552C52.755 21.34 55.2695 21.374 57.0777 19.495C60.0949 16.5869 62.1934 8.4896 67.5733 11.0829C70.6216 13.1189 70.0556 17.4002 69.7479 20.5293C69.4504 22.9505 69.1389 25.3423 68.6898 27.7036C68.1975 30.8198 65.8313 29.7733 64.0574 31.3711C62.8111 32.3796 62.0411 33.8546 61.0617 35.0629C59.4157 36.9526 58.1118 39.245 59.3579 41.6644C59.8103 42.5863 60.5752 43.3161 61.0148 44.1975C62.1006 46.3106 61.4344 48.8678 59.4717 50.162C56.0868 52.2013 52.4291 52.7172 50.3507 56.5288C49.2683 58.581 49.0657 60.9558 48.009 62.9771C46.7616 65.1021 44.3068 66.6931 41.7992 66.481C37.1128 66.2574 32.3855 65.6612 27.7621 65.5387C25.7241 65.2509 20.2897 65.7339 19.2491 64.1726C17.5608 62.2225 18.9515 59.6876 19.4567 57.6054C19.965 55.7135 20.1717 53.7411 19.9919 51.8583C19.5916 47.9939 15.4598 47.5243 14.4009 51.17C13.7189 54.3789 15.1436 57.6983 14.2085 60.8484C13.5705 63.0177 10.814 64.0313 8.89065 62.951C6.87191 61.8667 5.96703 59.5262 6.00105 57.369C5.99096 53.6553 6.05607 50.0329 6.08332 46.3397Z" stroke="white" stroke-width="12" stroke-miterlimit="3.3231"/>
<path d="M6.08332 46.3397C6.0996 34.4105 6.16613 22.4305 6.22703 10.5058C6.17581 9.35055 6.10076 8.0422 6.90701 7.09567C7.90735 6.12392 9.45062 6.45712 10.4441 7.26565C12.3316 9.08489 13.2786 11.6753 14.0545 14.1202C15.308 19.6166 14.2543 25.2559 14.4599 30.8092C14.3465 33.193 15.8612 35.7398 18.5373 35.349C21.1244 34.7259 21.5967 32.0822 22.3178 29.9268C24.1278 25.7645 27.8232 24.9343 31.9311 24.257C35.5688 23.6051 39.2044 22.8638 42.8561 22.2413C45.288 21.8149 47.8335 21.4891 50.2817 21.4552C52.755 21.34 55.2695 21.374 57.0777 19.495C60.0949 16.5869 62.1934 8.4896 67.5733 11.0829C70.6216 13.1189 70.0556 17.4002 69.7479 20.5293C69.4504 22.9505 69.1389 25.3423 68.6898 27.7036C68.1975 30.8198 65.8313 29.7733 64.0574 31.3711C62.8111 32.3796 62.0411 33.8546 61.0617 35.0629C59.4157 36.9526 58.1118 39.245 59.3579 41.6644C59.8103 42.5863 60.5752 43.3161 61.0148 44.1975C62.1006 46.3106 61.4344 48.8678 59.4717 50.162C56.0868 52.2013 52.4291 52.7172 50.3507 56.5288C49.2683 58.581 49.0657 60.9558 48.009 62.9771C46.7616 65.1021 44.3068 66.6931 41.7992 66.481C37.1128 66.2574 32.3855 65.6612 27.7621 65.5387C25.7241 65.2509 20.2897 65.7339 19.2491 64.1726C17.5608 62.2225 18.9515 59.6876 19.4567 57.6054C19.965 55.7135 20.1717 53.7411 19.9919 51.8583C19.5916 47.9939 15.4598 47.5243 14.4009 51.17C13.7189 54.3789 15.1436 57.6983 14.2085 60.8484C13.5705 63.0177 10.814 64.0313 8.89065 62.951C6.87191 61.8667 5.96703 59.5262 6.00105 57.369C5.99096 53.6553 6.05607 50.0329 6.08332 46.3397Z" stroke="black" stroke-width="4" stroke-miterlimit="3.3231"/>
</svg>
