<svg width="129" height="73" viewBox="0 0 129 73" fill="none" xmlns="http://www.w3.org/2000/svg">
<path d="M98.3682 66.4784C83.6687 66.1459 68.9394 65.7152 54.2608 65.6601C53.0029 65.5651 51.7025 65.797 50.4723 65.4767C48.919 64.7232 50.3678 62.3148 46.8607 63.4942C43.8651 64.7914 40.5936 65.5401 37.3012 65.4197C34.1827 65.5319 30.9416 65.3519 28.0241 64.1319C22.8837 62.1641 19.2962 57.3895 17.7343 52.2279C16.5256 47.3076 16.0501 42.1869 15.395 37.2026C15.1762 35.6341 14.9796 34.0641 14.8299 32.5239C14.5482 31.3063 14.7278 29.5404 13.3081 29.0781C11.6179 28.4353 11.1364 26.6412 10.6947 25.0784C10.1283 23.4915 9.42259 21.9821 8.82707 20.4533C7.80255 17.9745 6.33635 15.5625 6.00221 12.909C5.9289 10.6042 7.68635 8.58553 9.88803 8.16297C12.3879 7.69563 14.9183 7.3376 17.3993 6.91633C20.9023 6.12787 23.1844 6.17919 24.9941 9.59212C28.3512 14.864 31.5859 20.2903 35.5552 25.0919C40.6314 30.5022 46.012 35.6552 51.2166 40.8437C52.976 42.5528 54.6576 44.2677 56.3668 45.9024C57.3543 46.8549 58.2751 47.9574 59.6353 48.2233C61.0074 48.4994 62.4089 47.9809 63.7272 48.2834C66.0822 48.7087 67.5547 50.9081 69.8353 51.3837C73.9638 52.0772 78.1472 51.5723 82.2372 51.7553C89.7131 51.8172 97.1683 52.048 104.567 52.272C108.194 52.3894 111.759 52.4222 115.288 52.5693C117.008 52.5737 118.71 52.479 120.252 53.0883C122.36 54.0791 123.371 56.5365 122.876 58.7056C121.484 64.5362 114.534 65.5173 109.518 65.9398C105.79 66.2653 102.106 66.5874 98.3682 66.4784Z" stroke="white" stroke-width="12" stroke-miterlimit="1.8783"/>
<path d="M98.3682 66.4784C83.6687 66.1459 68.9394 65.7152 54.2608 65.6601C53.0029 65.5651 51.7025 65.797 50.4723 65.4767C48.919 64.7232 50.3678 62.3148 46.8607 63.4942C43.8651 64.7914 40.5936 65.5401 37.3012 65.4197C34.1827 65.5319 30.9416 65.3519 28.0241 64.1319C22.8837 62.1641 19.2962 57.3895 17.7343 52.2279C16.5256 47.3076 16.0501 42.1869 15.395 37.2026C15.1762 35.6341 14.9796 34.0641 14.8299 32.5239C14.5482 31.3063 14.7278 29.5404 13.3081 29.0781C11.6179 28.4353 11.1364 26.6412 10.6947 25.0784C10.1283 23.4915 9.42259 21.9821 8.82707 20.4533C7.80255 17.9745 6.33635 15.5625 6.00221 12.909C5.9289 10.6042 7.68635 8.58553 9.88803 8.16297C12.3879 7.69563 14.9183 7.3376 17.3993 6.91633C20.9023 6.12787 23.1844 6.17919 24.9941 9.59212C28.3512 14.864 31.5859 20.2903 35.5552 25.0919C40.6314 30.5022 46.012 35.6552 51.2166 40.8437C52.976 42.5528 54.6576 44.2677 56.3668 45.9024C57.3543 46.8549 58.2751 47.9574 59.6353 48.2233C61.0074 48.4994 62.4089 47.9809 63.7272 48.2834C66.0822 48.7087 67.5547 50.9081 69.8353 51.3837C73.9638 52.0772 78.1472 51.5723 82.2372 51.7553C89.7131 51.8172 97.1683 52.048 104.567 52.272C108.194 52.3894 111.759 52.4222 115.288 52.5693C117.008 52.5737 118.71 52.479 120.252 53.0883C122.36 54.0791 123.371 56.5365 122.876 58.7056C121.484 64.5362 114.534 65.5173 109.518 65.9398C105.79 66.2653 102.106 66.5874 98.3682 66.4784Z" stroke="black" stroke-width="4" stroke-miterlimit="1.8783"/>
</svg>
