<svg width="132" height="73" viewBox="0 0 132 73" fill="none" xmlns="http://www.w3.org/2000/svg">
<path d="M98.8705 26.015C104.306 32.241 109.777 38.5108 115.227 44.7296C118.264 48.5061 121.868 51.9545 124.644 55.9351C126.388 58.895 126.998 64.3337 123.074 65.748C119.943 66.8635 117.676 64.0639 116.491 61.505C111.136 49.4247 105.265 59.8792 102.605 48.4842C100.527 43.1549 97.301 45.291 93.3118 43.76C91.2555 42.9507 89.8458 40.5594 90.3545 38.3723C90.6887 36.7465 91.5897 35.1645 91.6842 33.4658C91.7859 28.4937 86.7431 26.3066 82.4488 26.3212C78.2053 26.1899 74.0998 28.3771 71.5203 31.7088C69.6965 34.0053 68.127 36.8486 65.7218 38.5546C64.3994 39.2399 62.8662 39.67 61.4348 39.7648C60.2286 39.9106 58.9134 40.1949 57.7508 40.0054C55.2512 39.8304 54.6481 37.1111 54.372 35.0989C53.9287 32.6128 53.3474 30.1049 52.7443 27.7064C52.2575 25.6577 51.6035 23.4852 51.836 21.4074C51.9523 19.7524 52.6571 18.1558 53.2239 16.6832C53.965 15.4292 54.7425 13.14 52.6208 12.9869C47.5417 14.7366 49.4963 27.2689 34.6949 25.4026C17.038 22.9092 20.3586 9.58224 13.9861 6.44734C8.20946 4.37685 3.00682 9.89573 8.02054 14.7512C15.9989 21.7573 26.0844 25.614 36.0319 28.676C39.0184 29.7696 42.2373 30.608 45.1511 31.6432C49.0531 32.7441 52.8388 34.5886 56.7989 34.9093C64.7772 35.1499 69.4349 27.7574 74.5431 22.9165C78.5686 18.5058 78.7357 23.2956 82.0927 21.7063C88.0074 16.0708 94.6343 21.0574 98.8705 26.015Z" stroke="white" stroke-width="12" stroke-miterlimit="3.3231"/>
<path d="M98.8705 26.015C104.306 32.241 109.777 38.5108 115.227 44.7296C118.264 48.5061 121.868 51.9545 124.644 55.9351C126.388 58.895 126.998 64.3337 123.074 65.748C119.943 66.8635 117.676 64.0639 116.491 61.505C111.136 49.4247 105.265 59.8792 102.605 48.4842C100.527 43.1549 97.301 45.291 93.3118 43.76C91.2555 42.9507 89.8458 40.5594 90.3545 38.3723C90.6887 36.7465 91.5897 35.1645 91.6842 33.4658C91.7859 28.4937 86.7431 26.3066 82.4488 26.3212C78.2053 26.1899 74.0998 28.3771 71.5203 31.7088C69.6965 34.0053 68.127 36.8486 65.7218 38.5546C64.3994 39.2399 62.8662 39.67 61.4348 39.7648C60.2286 39.9106 58.9134 40.1949 57.7508 40.0054C55.2512 39.8304 54.6481 37.1111 54.372 35.0989C53.9287 32.6128 53.3474 30.1049 52.7443 27.7064C52.2575 25.6577 51.6035 23.4852 51.836 21.4074C51.9523 19.7524 52.6571 18.1558 53.2239 16.6832C53.965 15.4292 54.7425 13.14 52.6208 12.9869C47.5417 14.7366 49.4963 27.2689 34.6949 25.4026C17.038 22.9092 20.3586 9.58224 13.9861 6.44734C8.20946 4.37685 3.00682 9.89573 8.02054 14.7512C15.9989 21.7573 26.0844 25.614 36.0319 28.676C39.0184 29.7696 42.2373 30.608 45.1511 31.6432C49.0531 32.7441 52.8388 34.5886 56.7989 34.9093C64.7772 35.1499 69.4349 27.7574 74.5431 22.9165C78.5686 18.5058 78.7357 23.2956 82.0927 21.7063C88.0074 16.0708 94.6343 21.0574 98.8705 26.015Z" stroke="black" stroke-width="4" stroke-miterlimit="3.3231"/>
</svg>
