<svg width="109" height="72" viewBox="0 0 109 72" fill="none" xmlns="http://www.w3.org/2000/svg">
<path d="M90.2057 7.52573C90.2346 8.31843 90.2922 9.90373 90.3326 10.7538C90.3729 11.6039 90.396 11.7188 90.4882 11.9314C90.5805 12.1439 90.7419 12.4541 91.0907 13.0141C91.4395 13.5741 91.9756 14.384 92.31 14.8895C92.6443 15.3949 92.7769 15.596 92.921 15.8573C93.0651 16.1187 93.2208 16.4403 93.3476 16.7763C93.4744 17.1124 93.5724 17.4627 93.6387 17.7901C93.705 18.1175 93.7396 18.4219 93.754 18.689C93.7684 18.9561 93.7626 19.1858 93.7309 19.4127C93.6991 19.6396 93.6415 19.8636 93.5435 20.0933C93.4455 20.3231 93.3071 20.5586 93.1486 20.7854C92.9901 21.0123 92.8114 21.2305 92.5952 21.4545C92.3791 21.6785 92.1254 21.9083 91.843 22.1294C91.5605 22.3506 91.2492 22.5631 90.9177 22.7555C90.5863 22.9479 90.2346 23.1202 89.8974 23.2638C89.5601 23.4074 89.2373 23.5223 88.8914 23.617C88.5455 23.7118 88.1766 23.7865 87.7673 23.8497C87.358 23.9129 86.9083 23.9646 84.9483 24.0417C82.9882 24.1189 79.5179 24.2215 73.4291 24.3622C67.3404 24.5029 58.6332 24.6816 52.8773 24.7628C47.1213 24.8441 44.3171 24.8278 42.8475 24.8075C41.378 24.7872 41.2434 24.7629 41.1212 24.7081C40.9989 24.6533 40.8888 24.568 40.8032 24.4827C40.7176 24.3975 40.6564 24.3122 40.6156 23.975C40.5748 23.6379 40.5544 23.049 40.5218 21.4427C40.4892 19.8363 40.4443 17.2127 40.4077 15.799C40.371 14.3856 40.3425 14.1825 40.2956 13.951C40.2487 13.7195 40.1835 13.4596 40.0796 13.1529C39.9756 12.8463 39.833 12.493 39.674 12.1701C39.515 11.8472 39.3398 11.5548 39.1665 11.2948C38.9933 11.0349 38.8221 10.8074 38.606 10.5597C38.39 10.3119 38.1291 10.0438 37.8336 9.78996C37.5381 9.5361 37.2079 9.29648 36.8817 9.08731C36.5556 8.87813 36.2336 8.69943 35.8769 8.52475C35.5202 8.3501 35.1289 8.17951 34.6989 8.02719C34.2688 7.87487 33.8 7.74085 33.4128 7.65757C33.0255 7.57429 32.7198 7.5418 32.3386 7.52758C31.9575 7.51335 31.5009 7.51742 31.1463 7.53366C30.7916 7.5499 30.5389 7.57833 30.227 7.62707C29.9152 7.6758 29.5442 7.74485 29.1162 7.87279C28.6881 8.00072 28.2031 8.18755 27.7608 8.39873C27.3185 8.60993 26.919 8.8455 26.5113 9.13794C26.1037 9.43038 25.6879 9.77968 25.3495 10.1371C25.0112 10.4945 24.7503 10.8601 24.5139 11.2338C24.2774 11.6074 24.0655 11.9892 23.9024 12.3243C23.7393 12.6594 23.6252 12.9478 23.5376 13.2849C23.4499 13.622 23.3888 14.0078 23.346 14.3104C23.3032 14.613 23.2787 14.8324 23.2422 16.7262C23.2058 18.62 23.1572 22.1883 23.1099 24.3628C23.0626 26.5376 23.0165 27.3187 22.9473 27.9391C22.8781 28.5594 22.7858 29.0189 22.6878 29.4209C22.5898 29.823 22.4861 30.1676 22.3592 30.5065C22.2324 30.8454 22.0825 31.1785 21.8635 31.5117C21.6444 31.8448 21.3562 32.1779 21.0506 32.5168C20.7451 32.8557 20.4223 33.2003 19.9554 33.5622C19.4884 33.924 18.8774 34.3031 18.3643 34.6076C17.8512 34.912 17.4362 35.1418 16.9231 35.4117C16.41 35.6817 15.799 35.9919 15.234 36.2388C14.669 36.4858 14.1502 36.6696 13.5738 36.8879C12.9973 37.1062 12.3632 37.3589 11.827 37.6231C11.2909 37.8873 10.8528 38.163 10.4319 38.4157C10.0111 38.6685 9.60751 38.8982 9.29619 39.1452C8.98485 39.3922 8.76579 39.6564 8.52942 39.9666C8.29305 40.2768 8.03941 40.6329 7.84916 41.0637C7.65891 41.4945 7.53209 42 7.2323 43.1775C6.93253 44.355 6.45984 46.2045 6.22446 47.1647C5.98909 48.1249 5.99103 48.1957 6.00527 48.2768C6.01951 48.358 6.04601 48.4493 6.09293 48.5316C6.13985 48.6138 6.2071 48.6869 6.30801 48.761C6.40892 48.8351 6.54344 48.9103 6.80738 49.0006C7.07133 49.0909 7.46472 49.1965 7.85297 49.3387C8.24125 49.4809 8.62439 49.6596 9.27665 50.0251C9.92886 50.3907 10.8501 50.943 11.9018 51.6416C12.9536 52.3402 14.1357 53.185 15.0447 53.8348C15.9537 54.4846 16.5896 54.9395 17.0788 55.2685C17.568 55.5975 17.9104 55.8006 18.4403 56.1214C18.9703 56.4423 19.6877 56.8809 21.0044 57.6364C22.3211 58.3918 24.2369 59.464 25.7574 60.2804C27.2779 61.0968 28.403 61.6572 29.3447 62.1203C30.2863 62.5833 31.0445 62.9488 31.713 63.2412C32.3816 63.5336 32.9604 63.7529 33.6534 64.0088C34.3464 64.2647 35.1535 64.5571 35.928 64.8049C36.7026 65.0526 37.4444 65.2557 38.1863 65.41C38.9283 65.5643 39.6701 65.6699 40.3835 65.739C41.0968 65.808 41.7816 65.8405 43.3878 65.8771C44.9939 65.9136 47.5212 65.9542 51.2309 65.9786C54.9405 66.0029 59.832 66.0111 68.2741 65.9786C76.7162 65.9461 88.7089 65.873 94.7071 65.8324C100.705 65.7918 100.709 65.7837 100.73 65.7491C100.75 65.7146 100.787 65.6537 100.818 65.5461C100.85 65.4385 100.876 65.2842 100.891 65.0913C100.905 64.8983 100.907 64.6668 100.924 64.4536C100.942 64.2404 100.974 64.0454 101.027 63.8626C101.08 63.6798 101.154 63.5093 101.258 63.363C101.361 63.2168 101.496 63.0949 101.657 62.9771C101.818 62.8593 102.006 62.7456 102.146 62.6461C102.287 62.5466 102.381 62.4613 102.452 62.372C102.523 62.2826 102.572 62.1892 102.601 62.0654C102.629 61.9416 102.637 61.7872 102.702 55.8827C102.767 49.9781 102.888 38.324 102.949 32.0718C103.009 25.8195 103.009 24.9695 102.984 24.4238C102.958 23.8781 102.906 23.6369 102.839 23.3468C102.773 23.0568 102.692 22.7179 102.589 22.3819C102.485 22.0458 102.358 21.7127 102.171 21.3451C101.983 20.9775 101.736 20.5754 101.202 19.7913C100.669 19.0073 99.8505 17.8413 98.9829 16.6294C98.1153 15.4174 97.1987 14.1595 96.4319 13.0854C95.6652 12.0113 95.0483 11.121 94.4142 10.2192C93.7801 9.31745 93.1286 8.40421 92.6934 7.78672C92.2581 7.16928 92.0391 6.84759 91.8604 6.62359C91.6817 6.39958 91.5433 6.2732 91.4225 6.1893C91.3017 6.10539 91.1985 6.06401 91.0857 6.0372C90.973 6.01039 90.8507 5.9982 90.7549 6.00021C90.659 6.00223 90.5897 6.01847 90.5194 6.06011C90.449 6.10175 90.3777 6.16877 90.3206 6.24698C90.2635 6.32519 90.2207 6.41455 90.1991 6.49739C90.1776 6.58023 90.1772 6.65647 90.1771 6.69453C90.1769 6.73258 90.1769 6.73302 90.2057 7.52573Z" stroke="white" stroke-width="12"/>
<path d="M90.2057 7.52573C90.2346 8.31843 90.2922 9.90373 90.3326 10.7538C90.3729 11.6039 90.396 11.7188 90.4882 11.9314C90.5805 12.1439 90.7419 12.4541 91.0907 13.0141C91.4395 13.5741 91.9756 14.384 92.31 14.8895C92.6443 15.3949 92.7769 15.596 92.921 15.8573C93.0651 16.1187 93.2208 16.4403 93.3476 16.7763C93.4744 17.1124 93.5724 17.4627 93.6387 17.7901C93.705 18.1175 93.7396 18.4219 93.754 18.689C93.7684 18.9561 93.7626 19.1858 93.7309 19.4127C93.6991 19.6396 93.6415 19.8636 93.5435 20.0933C93.4455 20.3231 93.3071 20.5586 93.1486 20.7854C92.9901 21.0123 92.8114 21.2305 92.5952 21.4545C92.3791 21.6785 92.1254 21.9083 91.843 22.1294C91.5605 22.3506 91.2492 22.5631 90.9177 22.7555C90.5863 22.9479 90.2346 23.1202 89.8974 23.2638C89.5601 23.4074 89.2373 23.5223 88.8914 23.617C88.5455 23.7118 88.1766 23.7865 87.7673 23.8497C87.358 23.9129 86.9083 23.9646 84.9483 24.0417C82.9882 24.1189 79.5179 24.2215 73.4291 24.3622C67.3404 24.5029 58.6332 24.6816 52.8773 24.7628C47.1213 24.8441 44.3171 24.8278 42.8475 24.8075C41.378 24.7872 41.2434 24.7629 41.1212 24.7081C40.9989 24.6533 40.8888 24.568 40.8032 24.4827C40.7176 24.3975 40.6564 24.3122 40.6156 23.975C40.5748 23.6379 40.5544 23.049 40.5218 21.4427C40.4892 19.8363 40.4443 17.2127 40.4077 15.799C40.371 14.3856 40.3425 14.1825 40.2956 13.951C40.2487 13.7195 40.1835 13.4596 40.0796 13.1529C39.9756 12.8463 39.833 12.493 39.674 12.1701C39.515 11.8472 39.3398 11.5548 39.1665 11.2948C38.9933 11.0349 38.8221 10.8074 38.606 10.5597C38.39 10.3119 38.1291 10.0438 37.8336 9.78996C37.5381 9.5361 37.2079 9.29648 36.8817 9.08731C36.5556 8.87813 36.2336 8.69943 35.8769 8.52475C35.5202 8.3501 35.1289 8.17951 34.6989 8.02719C34.2688 7.87487 33.8 7.74085 33.4128 7.65757C33.0255 7.57429 32.7198 7.5418 32.3386 7.52758C31.9575 7.51335 31.5009 7.51742 31.1463 7.53366C30.7916 7.5499 30.5389 7.57833 30.227 7.62707C29.9152 7.6758 29.5442 7.74485 29.1162 7.87279C28.6881 8.00072 28.2031 8.18755 27.7608 8.39873C27.3185 8.60993 26.919 8.8455 26.5113 9.13794C26.1037 9.43038 25.6879 9.77968 25.3495 10.1371C25.0112 10.4945 24.7503 10.8601 24.5139 11.2338C24.2774 11.6074 24.0655 11.9892 23.9024 12.3243C23.7393 12.6594 23.6252 12.9478 23.5376 13.2849C23.4499 13.622 23.3888 14.0078 23.346 14.3104C23.3032 14.613 23.2787 14.8324 23.2422 16.7262C23.2058 18.62 23.1572 22.1883 23.1099 24.3628C23.0626 26.5376 23.0165 27.3187 22.9473 27.9391C22.8781 28.5594 22.7858 29.0189 22.6878 29.4209C22.5898 29.823 22.4861 30.1676 22.3592 30.5065C22.2324 30.8454 22.0825 31.1785 21.8635 31.5117C21.6444 31.8448 21.3562 32.1779 21.0506 32.5168C20.7451 32.8557 20.4223 33.2003 19.9554 33.5622C19.4884 33.924 18.8774 34.3031 18.3643 34.6076C17.8512 34.912 17.4362 35.1418 16.9231 35.4117C16.41 35.6817 15.799 35.9919 15.234 36.2388C14.669 36.4858 14.1502 36.6696 13.5738 36.8879C12.9973 37.1062 12.3632 37.3589 11.827 37.6231C11.2909 37.8873 10.8528 38.163 10.4319 38.4157C10.0111 38.6685 9.60751 38.8982 9.29619 39.1452C8.98485 39.3922 8.76579 39.6564 8.52942 39.9666C8.29305 40.2768 8.03941 40.6329 7.84916 41.0637C7.65891 41.4945 7.53209 42 7.2323 43.1775C6.93253 44.355 6.45984 46.2045 6.22446 47.1647C5.98909 48.1249 5.99103 48.1957 6.00527 48.2768C6.01951 48.358 6.04601 48.4493 6.09293 48.5316C6.13985 48.6138 6.2071 48.6869 6.30801 48.761C6.40892 48.8351 6.54344 48.9103 6.80738 49.0006C7.07133 49.0909 7.46472 49.1965 7.85297 49.3387C8.24125 49.4809 8.62439 49.6596 9.27665 50.0251C9.92886 50.3907 10.8501 50.943 11.9018 51.6416C12.9536 52.3402 14.1357 53.185 15.0447 53.8348C15.9537 54.4846 16.5896 54.9395 17.0788 55.2685C17.568 55.5975 17.9104 55.8006 18.4403 56.1214C18.9703 56.4423 19.6877 56.8809 21.0044 57.6364C22.3211 58.3918 24.2369 59.464 25.7574 60.2804C27.2779 61.0968 28.403 61.6572 29.3447 62.1203C30.2863 62.5833 31.0445 62.9488 31.713 63.2412C32.3816 63.5336 32.9604 63.7529 33.6534 64.0088C34.3464 64.2647 35.1535 64.5571 35.928 64.8049C36.7026 65.0526 37.4444 65.2557 38.1863 65.41C38.9283 65.5643 39.6701 65.6699 40.3835 65.739C41.0968 65.808 41.7816 65.8405 43.3878 65.8771C44.9939 65.9136 47.5212 65.9542 51.2309 65.9786C54.9405 66.0029 59.832 66.0111 68.2741 65.9786C76.7162 65.9461 88.7089 65.873 94.7071 65.8324C100.705 65.7918 100.709 65.7837 100.73 65.7491C100.75 65.7146 100.787 65.6537 100.818 65.5461C100.85 65.4385 100.876 65.2842 100.891 65.0913C100.905 64.8983 100.907 64.6668 100.924 64.4536C100.942 64.2404 100.974 64.0454 101.027 63.8626C101.08 63.6798 101.154 63.5093 101.258 63.363C101.361 63.2168 101.496 63.0949 101.657 62.9771C101.818 62.8593 102.006 62.7456 102.146 62.6461C102.287 62.5466 102.381 62.4613 102.452 62.372C102.523 62.2826 102.572 62.1892 102.601 62.0654C102.629 61.9416 102.637 61.7872 102.702 55.8827C102.767 49.9781 102.888 38.324 102.949 32.0718C103.009 25.8195 103.009 24.9695 102.984 24.4238C102.958 23.8781 102.906 23.6369 102.839 23.3468C102.773 23.0568 102.692 22.7179 102.589 22.3819C102.485 22.0458 102.358 21.7127 102.171 21.3451C101.983 20.9775 101.736 20.5754 101.202 19.7913C100.669 19.0073 99.8505 17.8413 98.9829 16.6294C98.1153 15.4174 97.1987 14.1595 96.4319 13.0854C95.6652 12.0113 95.0483 11.121 94.4142 10.2192C93.7801 9.31745 93.1286 8.40421 92.6934 7.78672C92.2581 7.16928 92.0391 6.84759 91.8604 6.62359C91.6817 6.39958 91.5433 6.2732 91.4225 6.1893C91.3017 6.10539 91.1985 6.06401 91.0857 6.0372C90.973 6.01039 90.8507 5.9982 90.7549 6.00021C90.659 6.00223 90.5897 6.01847 90.5194 6.06011C90.449 6.10175 90.3777 6.16877 90.3206 6.24698C90.2635 6.32519 90.2207 6.41455 90.1991 6.49739C90.1776 6.58023 90.1772 6.65647 90.1771 6.69453C90.1769 6.73258 90.1769 6.73302 90.2057 7.52573Z" stroke="black" stroke-width="4"/>
</svg>
