<svg width="109" height="73" viewBox="0 0 109 73" fill="none" xmlns="http://www.w3.org/2000/svg">
<path d="M90.2532 66C78.8425 65.7087 67.4191 65.713 56.011 65.5536C47.4322 65.7788 38.8406 66.1306 30.2744 65.8912C26.0659 65.9233 21.828 65.8417 17.6216 65.778C14.1566 65.7343 8.91665 66.2697 9.6927 61.1698C9.75379 57.3178 5.79627 59.4998 6.00822 54.2242C6.46888 50.4079 8.25001 46.9028 9.71535 43.3878C12.1213 37.8308 14.7517 32.3692 17.2271 26.8397C18.2467 24.6182 19.3541 22.341 20.5363 20.2451C21.0164 19.4396 21.4774 18.5998 21.8612 17.7849C22.4323 17.0042 22.8138 15.9471 22.5116 15.0314C22.2246 13.783 20.9068 13.3243 19.8849 12.8341C19.0673 12.2288 18.8573 11.2349 19.3145 10.3662C19.9959 9.36517 21.086 8.75129 21.8346 7.87368C23.0606 6.78625 24.8677 5.10784 26.4045 6.57393C27.0994 7.58492 27.2379 8.81613 27.1035 9.97303C27.1534 11.4217 26.9012 12.9101 26.852 14.3278C26.672 16.7622 26.4569 19.2085 26.4782 21.6164C26.3571 23.6609 26.283 26.0666 27.6498 27.6874C28.9429 29.3032 31.1325 29.6617 32.5208 31.1106C33.5667 32.0093 34.2415 33.2581 35.1968 34.1907C37.5769 36.3469 40.0394 36.6108 43.044 36.2079C45.5293 35.9175 47.9838 36.9615 49.744 38.626C50.7292 39.9001 51.5319 41.3453 52.7611 42.3594C54.8371 44.2029 57.6728 44.7483 60.2421 45.4391C66.6231 46.9805 73.246 46.2263 79.6676 46.5643C81.3899 46.536 83.0895 46.6137 84.734 46.6618C86.9149 46.4482 88.8229 47.3951 89.4678 49.5371C90.0522 51.4961 89.8773 53.577 90.2485 55.5273C90.4785 57.0111 91.3969 59.0069 93.0613 57.6927C94.1574 55.9462 95.8653 55.7508 97.6969 55.9433C99.2239 56.0436 101.002 55.6553 102.161 56.7521C104.148 58.8646 102.228 62.0351 100.309 63.4123C96.7496 65.9019 94.2897 65.9391 90.2532 66Z" stroke="white" stroke-width="12" stroke-miterlimit="3.456"/>
<path d="M90.2532 66C78.8425 65.7087 67.4191 65.713 56.011 65.5536C47.4322 65.7788 38.8406 66.1306 30.2744 65.8912C26.0659 65.9233 21.828 65.8417 17.6216 65.778C14.1566 65.7343 8.91665 66.2697 9.6927 61.1698C9.75379 57.3178 5.79627 59.4998 6.00822 54.2242C6.46888 50.4079 8.25001 46.9028 9.71535 43.3878C12.1213 37.8308 14.7517 32.3692 17.2271 26.8397C18.2467 24.6182 19.3541 22.341 20.5363 20.2451C21.0164 19.4396 21.4774 18.5998 21.8612 17.7849C22.4323 17.0042 22.8138 15.9471 22.5116 15.0314C22.2246 13.783 20.9068 13.3243 19.8849 12.8341C19.0673 12.2288 18.8573 11.2349 19.3145 10.3662C19.9959 9.36517 21.086 8.75129 21.8346 7.87368C23.0606 6.78625 24.8677 5.10784 26.4045 6.57393C27.0994 7.58492 27.2379 8.81613 27.1035 9.97303C27.1534 11.4217 26.9012 12.9101 26.852 14.3278C26.672 16.7622 26.4569 19.2085 26.4782 21.6164C26.3571 23.6609 26.283 26.0666 27.6498 27.6874C28.9429 29.3032 31.1325 29.6617 32.5208 31.1106C33.5667 32.0093 34.2415 33.2581 35.1968 34.1907C37.5769 36.3469 40.0394 36.6108 43.044 36.2079C45.5293 35.9175 47.9838 36.9615 49.744 38.626C50.7292 39.9001 51.5319 41.3453 52.7611 42.3594C54.8371 44.2029 57.6728 44.7483 60.2421 45.4391C66.6231 46.9805 73.246 46.2263 79.6676 46.5643C81.3899 46.536 83.0895 46.6137 84.734 46.6618C86.9149 46.4482 88.8229 47.3951 89.4678 49.5371C90.0522 51.4961 89.8773 53.577 90.2485 55.5273C90.4785 57.0111 91.3969 59.0069 93.0613 57.6927C94.1574 55.9462 95.8653 55.7508 97.6969 55.9433C99.2239 56.0436 101.002 55.6553 102.161 56.7521C104.148 58.8646 102.228 62.0351 100.309 63.4123C96.7496 65.9019 94.2897 65.9391 90.2532 66Z" stroke="black" stroke-width="4" stroke-miterlimit="3.456"/>
</svg>
