<svg width="179" height="73" viewBox="0 0 179 73" fill="none" xmlns="http://www.w3.org/2000/svg">
<path d="M104.375 58.9805C100.47 56.8895 92.6596 52.7075 86.3347 49.3134C80.0098 45.9192 75.1716 43.3122 72.6244 41.9301C70.0772 40.5484 69.8216 40.3919 69.5619 40.2032C69.3022 40.0144 69.0383 39.7934 68.8014 39.5513C68.5646 39.3093 68.3548 39.0462 68.2022 38.8167C68.0496 38.5873 67.9541 38.3915 67.8747 38.0992C67.7953 37.8069 67.732 37.4181 67.7349 37.0907C67.7378 36.7632 67.8069 36.4969 67.924 36.2367C68.0412 35.9765 68.2064 35.7223 68.4546 35.4489C68.7027 35.1755 69.0338 34.8827 69.4938 34.5249C69.9539 34.1671 70.5428 33.7443 71.1007 33.3427C71.6587 32.941 72.1856 32.5606 72.5561 32.2583C72.9267 31.9559 73.141 31.7317 73.3423 31.4841C73.5437 31.2365 73.7321 30.9654 73.9069 30.651C74.0817 30.3365 74.2428 29.9787 74.3646 29.5346C74.4864 29.0905 74.5688 28.5601 74.5716 27.4301C74.5743 26.3 74.4973 24.5703 74.4842 23.5407C74.471 22.5111 74.5216 22.1817 74.6361 21.7539C74.7506 21.3261 74.9288 20.8 75.1372 20.3285C75.3456 19.857 75.584 19.4402 75.8141 19.1116C76.0441 18.7829 76.2656 18.5425 76.5149 18.297C76.7642 18.0514 77.0411 17.8008 77.3882 17.5074C77.7352 17.214 78.1522 16.8779 78.6571 16.5462C79.162 16.2146 79.7548 15.8874 80.3211 15.5972C80.8875 15.307 81.4274 15.0538 82.0778 14.7722C82.7282 14.4907 83.489 14.1807 84.2479 13.9227C85.0069 13.6648 85.7639 13.4588 86.4593 13.3071C87.1548 13.1555 87.7886 13.0583 89.0125 12.9653C90.2364 12.8724 92.0503 12.7838 93.2812 12.7664C94.5121 12.7491 95.1599 12.803 95.7491 12.8872C96.3384 12.9714 96.8691 13.0859 97.5263 13.2752C98.1835 13.4645 98.9673 13.7285 99.8505 14.0763C100.734 14.4241 101.716 14.8555 105.818 16.982C109.92 19.1085 117.14 22.9298 121.06 24.9892C124.98 27.0484 125.599 27.3452 126.116 27.5771C126.632 27.8091 127.045 27.9762 127.553 28.1116C128.06 28.247 128.662 28.3507 129.163 28.4185C129.664 28.4862 130.064 28.5182 130.502 28.5006C130.94 28.4831 131.415 28.4162 131.851 28.3428C132.286 28.2695 132.682 28.1898 133.177 28.0103C133.672 27.8307 134.266 27.5514 134.875 27.2196C135.483 26.8878 136.106 26.5035 136.774 26.0695C137.442 25.6355 138.156 25.1517 138.804 24.6986C139.451 24.2454 140.032 23.8229 140.522 23.5198C141.013 23.2167 141.412 23.0331 141.872 22.8749C142.332 22.7168 142.853 22.5841 143.603 22.5101C144.353 22.4361 145.333 22.4209 146.064 22.4595C146.795 22.498 147.277 22.5905 147.782 22.7699C148.288 22.9493 148.816 23.2156 149.406 23.6072C149.996 23.9988 150.646 24.5158 151.335 25.0991C152.024 25.6824 152.751 26.332 153.345 26.8234C153.938 27.3147 154.398 27.6476 154.973 27.976C155.548 28.3043 156.239 28.628 156.862 28.8626C157.485 29.0972 158.041 29.2426 158.578 29.313C159.115 29.3833 159.632 29.3786 160.233 29.3346C160.833 29.2906 161.515 29.2074 162.202 29.0521C162.889 28.8968 163.582 28.6695 164.308 28.3809C165.034 28.0923 165.793 27.7424 166.465 27.4041C167.137 27.0658 167.722 26.7389 168.284 26.3491C168.847 25.9592 169.387 25.5064 169.879 25.0555C170.371 24.6046 170.815 24.1555 171.189 23.6255C171.562 23.0955 171.865 22.4844 172.086 21.9445C172.308 21.4046 172.449 20.9358 172.549 20.5605C172.65 20.1851 172.71 19.9032 172.704 19.3444C172.698 18.7857 172.624 17.9502 172.546 17.3903C172.468 16.8305 172.385 16.5463 172.188 16.2068C171.991 15.8673 171.68 15.4725 171.308 15.1201C170.935 14.7677 170.5 14.4578 170.072 14.2234C169.644 13.989 169.223 13.8302 168.781 13.7321C168.339 13.6341 167.875 13.5968 167.385 13.6084C166.895 13.62 166.38 13.6806 165.854 13.7975C165.329 13.9144 164.794 14.0875 164.097 14.2152C163.401 14.3429 162.543 14.4251 161.643 14.4332C160.742 14.4413 159.799 14.3753 158.862 14.273C157.925 14.1708 156.995 14.0324 155.577 13.7498C154.159 13.4672 152.253 13.0404 150.842 12.7416C149.431 12.4427 148.515 12.2718 147.25 12.1388C145.986 12.0058 144.372 11.9107 143.341 11.8641C142.311 11.8175 141.865 11.8194 137.476 12.099C133.087 12.3785 124.755 12.9357 119.832 13.2207C114.909 13.5056 113.395 13.5183 112.186 13.4869C110.977 13.4554 110.073 13.3798 109.228 13.2739C108.383 13.168 107.596 13.0318 106.768 12.8414C105.939 12.651 105.068 12.4063 104.094 12.0581C103.119 11.7098 102.041 11.2579 100.964 10.8299C99.8866 10.4019 98.8103 9.99784 97.7872 9.62754C96.764 9.25726 95.7941 8.92081 94.9621 8.64668C94.1301 8.37256 93.4361 8.16079 92.5183 7.93404C91.6005 7.70728 90.4589 7.46551 89.4717 7.29744C88.4845 7.12936 87.6517 7.03494 86.6361 6.95184C85.6204 6.86874 84.4218 6.79695 82.733 6.82465C81.0441 6.85236 78.8651 6.97954 77.3553 7.0959C75.8454 7.21226 75.0046 7.31779 73.8562 7.50352C72.7077 7.68926 71.2516 7.95518 69.6631 8.29829C68.0745 8.64139 66.3535 9.06167 64.7771 9.50808C63.2006 9.95451 61.7687 10.4271 59.5818 11.2533C57.3949 12.0796 54.4525 13.2594 51.2131 14.5869C47.9738 15.9145 44.4377 17.3896 42.0728 18.3625C39.708 19.3354 38.5148 19.806 36.956 20.5089C35.3972 21.2119 33.473 22.1472 31.0315 23.3969C28.59 24.6465 25.6312 26.2105 23.1491 27.5747C20.6671 28.9389 18.6618 30.1033 17.4853 30.8506C16.3089 31.5978 15.9614 31.928 15.6942 32.2266C15.4271 32.5253 15.2405 32.7925 15.133 33.0649C15.0255 33.3374 14.9971 33.6152 15.0299 33.8708C15.0626 34.1264 15.1564 34.3597 15.3963 34.6522C15.6363 34.9448 16.0223 35.2963 16.7089 35.7629C17.3954 36.2295 18.3825 36.8111 19.0338 37.1718C19.6851 37.5326 20.0007 37.6724 20.3756 37.886C20.7506 38.0997 21.1848 38.3872 21.5677 38.7304C21.9506 39.0736 22.2821 39.4725 22.5284 39.8523C22.7747 40.2321 22.9356 40.5926 23.0481 41.0088C23.1605 41.425 23.2245 41.8967 23.2096 42.3716C23.1947 42.8466 23.1011 43.3246 22.9485 43.8079C22.7958 44.2912 22.5842 44.7796 22.3197 45.2137C22.0551 45.6478 21.7377 46.0275 21.3331 46.3402C20.9284 46.6528 20.4365 46.8984 19.0148 47.0705C17.593 47.2426 15.2415 47.3413 13.9083 47.4449C12.5753 47.5485 12.2608 47.6569 11.8778 47.8479C11.4948 48.0389 11.0434 48.3126 10.6327 48.6085C10.2221 48.9044 9.85214 49.2227 9.21193 50.1586C8.57171 51.0946 7.6612 52.6483 7.19075 53.4936C6.72029 54.3389 6.68988 54.4758 6.70815 54.6348C6.72641 54.7937 6.79342 54.9747 6.93543 55.1387C7.07744 55.3028 7.29454 55.4498 7.5205 55.5685C7.74646 55.6873 7.98122 55.7777 8.183 55.8894C8.38476 56.001 8.55347 56.134 8.68626 56.2644C8.81903 56.3949 8.9158 56.5228 8.97633 56.7399C9.03685 56.9571 9.06103 57.2636 9.05123 57.6174C9.04144 57.9711 8.99766 58.3721 8.83616 59.1193C8.67465 59.8664 8.39544 60.9596 8.18252 61.8108C7.9696 62.662 7.82299 63.2711 7.73166 63.8305C7.64033 64.3899 7.6043 64.8995 7.60251 65.2108C7.60071 65.5221 7.63323 65.6351 7.71153 65.7989C7.78984 65.9628 7.91399 66.1774 8.06819 66.3469C8.22239 66.5165 8.40672 66.6408 8.65098 66.7189C8.89524 66.797 9.19939 66.8288 33.2573 66.8158C57.3148 66.8028 105.123 66.745 129.066 66.7117C153.009 66.6784 153.085 66.6694 153.206 66.622C153.326 66.5747 153.492 66.489 153.649 66.3924C153.806 66.2958 153.954 66.1882 154.109 65.99C154.265 65.7917 154.428 65.5029 154.525 65.2505C154.622 64.9981 154.653 64.7823 154.64 64.5316C154.627 64.2808 154.571 63.9951 154.467 63.731C154.364 63.4669 154.213 63.2245 153.948 62.9528C153.684 62.6811 153.306 62.38 152.116 61.5948C150.926 60.8096 148.925 59.5402 147.65 58.7923C146.374 58.0444 145.824 57.818 145.191 57.6401C144.559 57.4621 143.843 57.3327 143.13 57.254C142.416 57.1753 141.705 57.1473 140.879 57.2086C140.053 57.2699 139.112 57.4205 138.197 57.6661C137.283 57.9116 136.394 58.2521 135.682 58.6138C134.969 58.9755 134.432 59.3583 133.806 59.7843C133.181 60.2102 132.467 60.6792 131.6 61.1318C130.733 61.5844 129.713 62.0205 128.58 62.4328C127.446 62.8453 126.199 63.234 125.133 63.4969C124.067 63.7598 123.182 63.8969 122.097 63.9798C121.013 64.0627 119.729 64.0916 118.64 64.0674C117.551 64.0432 116.657 63.9661 115.692 63.7901C114.727 63.6142 113.69 63.3395 112.707 63.0118C111.725 62.6841 110.797 62.3035 110.067 61.9713C109.338 61.6391 108.808 61.3554 108.544 61.2136C108.279 61.0718 108.279 61.0717 104.374 58.9807L104.375 58.9805Z" stroke="white" stroke-width="12"/>
<path d="M104.67 58.6619C100.765 56.5709 92.9553 52.3889 86.6304 48.9948C80.3054 45.6006 75.4672 42.9936 72.9201 41.6115C70.3729 40.2297 70.1173 40.0733 69.8576 39.8846C69.5978 39.6958 69.3339 39.4748 69.0971 39.2327C68.8603 38.9907 68.6505 38.7276 68.4979 38.4981C68.3453 38.2687 68.2498 38.0729 68.1704 37.7806C68.091 37.4883 68.0276 37.0995 68.0305 36.7721C68.0334 36.4446 68.1025 36.1783 68.2197 35.9181C68.3368 35.6579 68.5021 35.4037 68.7502 35.1303C68.9984 34.8569 69.3295 34.5641 69.7895 34.2063C70.2495 33.8485 70.8385 33.4257 71.3964 33.0241C71.9543 32.6224 72.4812 32.242 72.8518 31.9397C73.2224 31.6373 73.4366 31.4131 73.638 31.1655C73.8394 30.9179 74.0278 30.6468 74.2026 30.3324C74.3774 30.0179 74.5385 29.6601 74.6602 29.216C74.782 28.7719 74.8645 28.2415 74.8672 27.1115C74.8699 25.9814 74.793 24.2517 74.7798 23.2221C74.7666 22.1925 74.8173 21.8631 74.9317 21.4353C75.0462 21.0075 75.2245 20.4813 75.4328 20.0099C75.6412 19.5384 75.8797 19.1216 76.1097 18.793C76.3397 18.4643 76.5613 18.2239 76.8106 17.9783C77.0598 17.7328 77.3368 17.4822 77.6838 17.1888C78.0308 16.8954 78.4479 16.5593 78.9528 16.2276C79.4577 15.896 80.0504 15.5688 80.6168 15.2786C81.1831 14.9884 81.723 14.7352 82.3734 14.4536C83.0238 14.1721 83.7847 13.8621 84.5436 13.6041C85.3025 13.3462 86.0596 13.1402 86.755 12.9885C87.4504 12.8369 88.0842 12.7397 89.3081 12.6467C90.532 12.5538 92.3459 12.4652 93.5768 12.4478C94.8077 12.4305 95.4556 12.4844 96.0448 12.5686C96.634 12.6528 97.1647 12.7673 97.8219 12.9566C98.4791 13.1459 99.2629 13.4099 100.146 13.7577C101.029 14.1055 102.012 14.5369 106.114 16.6634C110.216 18.7899 117.436 22.6112 121.356 24.6706C125.276 26.7298 125.895 27.0266 126.411 27.2585C126.928 27.4905 127.341 27.6576 127.848 27.793C128.356 27.9284 128.958 28.0321 129.459 28.0999C129.96 28.1676 130.36 28.1995 130.797 28.182C131.235 28.1645 131.711 28.0976 132.146 28.0242C132.582 27.9509 132.977 27.8712 133.472 27.6917C133.967 27.5121 134.562 27.2328 135.171 26.901C135.779 26.5692 136.401 26.1849 137.07 25.7509C137.738 25.3169 138.452 24.8331 139.1 24.38C139.747 23.9268 140.328 23.5043 140.818 23.2012C141.308 22.8981 141.707 22.7145 142.167 22.5563C142.627 22.3982 143.148 22.2655 143.899 22.1915C144.649 22.1175 145.629 22.1023 146.36 22.1409C147.091 22.1794 147.573 22.2719 148.078 22.4513C148.583 22.6307 149.112 22.897 149.702 23.2886C150.291 23.6802 150.942 24.1972 151.631 24.7805C152.319 25.3638 153.047 26.0134 153.64 26.5048C154.234 26.9961 154.694 27.329 155.269 27.6573C155.844 27.9857 156.534 28.3094 157.157 28.544C157.781 28.7786 158.336 28.924 158.873 28.9944C159.41 29.0647 159.928 29.06 160.528 29.016C161.128 28.972 161.81 28.8888 162.498 28.7335C163.185 28.5782 163.878 28.3509 164.603 28.0623C165.329 27.7737 166.089 27.4238 166.761 27.0855C167.433 26.7472 168.017 26.4203 168.58 26.0305C169.142 25.6406 169.682 25.1878 170.174 24.7369C170.667 24.286 171.111 23.8369 171.484 23.3069C171.858 22.7769 172.16 22.1658 172.382 21.6259C172.603 21.086 172.744 20.6172 172.845 20.2419C172.945 19.8665 173.006 19.5846 173 19.0258C172.993 18.4671 172.92 17.6316 172.842 17.0717C172.764 16.5119 172.681 16.2277 172.484 15.8882C172.287 15.5487 171.976 15.1539 171.603 14.8015C171.23 14.4491 170.796 14.1392 170.368 13.9048C169.94 13.6704 169.519 13.5116 169.077 13.4135C168.634 13.3155 168.17 13.2782 167.681 13.2898C167.191 13.3014 166.675 13.362 166.15 13.4789C165.624 13.5957 165.089 13.7689 164.393 13.8966C163.696 14.0243 162.839 14.1065 161.938 14.1146C161.038 14.1227 160.095 14.0567 159.158 13.9544C158.221 13.8522 157.291 13.7138 155.873 13.4312C154.454 13.1486 152.548 12.7218 151.137 12.423C149.726 12.1241 148.811 11.9531 147.546 11.8202C146.281 11.6871 144.667 11.5921 143.637 11.5455C142.607 11.4989 142.161 11.5008 137.772 11.7804C133.383 12.0599 125.051 12.6171 120.128 12.9021C115.205 13.187 113.691 13.1997 112.482 13.1683C111.273 13.1368 110.369 13.0612 109.524 12.9553C108.679 12.8494 107.892 12.7132 107.063 12.5228C106.235 12.3324 105.364 12.0877 104.39 11.7395C103.415 11.3912 102.337 10.9393 101.26 10.5113C100.182 10.0833 99.106 9.67923 98.0829 9.30894C97.0597 8.93866 96.0897 8.60221 95.2577 8.32808C94.4257 8.05396 93.7318 7.84219 92.8139 7.61544C91.8961 7.38867 90.7546 7.14691 89.7674 6.97884C88.7802 6.81075 87.9474 6.71633 86.9317 6.63323C85.916 6.55013 84.7175 6.47835 83.0286 6.50605C81.3398 6.53375 79.1607 6.66093 77.651 6.77729C76.141 6.89365 75.3003 6.99918 74.1518 7.18492C73.0034 7.37066 71.5473 7.63658 69.9587 7.97969C68.3701 8.32279 66.6492 8.74306 65.0727 9.18948C63.4962 9.63591 62.0643 10.1085 59.8774 10.9347C57.6905 11.761 54.7481 12.9408 51.5088 14.2683C48.2695 15.5959 44.7333 17.071 42.3685 18.0439C40.0037 19.0168 38.8104 19.4874 37.2516 20.1903C35.6928 20.8933 33.7687 21.8286 31.3272 23.0783C28.8856 24.3279 25.9268 25.8919 23.4448 27.2561C20.9627 28.6203 18.9575 29.7847 17.781 30.532C16.6046 31.2792 16.257 31.6094 15.9899 31.908C15.7228 32.2067 15.5362 32.4739 15.4287 32.7463C15.3212 33.0188 15.2928 33.2966 15.3255 33.5522C15.3582 33.8078 15.4521 34.0411 15.692 34.3336C15.9319 34.6261 16.3179 34.9777 17.0045 35.4443C17.6911 35.9109 18.6781 36.4925 19.3294 36.8532C19.9808 37.2139 20.2964 37.3538 20.6713 37.5674C21.0462 37.7811 21.4804 38.0686 21.8633 38.4118C22.2462 38.755 22.5778 39.1539 22.8241 39.5337C23.0704 39.9134 23.2313 40.274 23.3437 40.6902C23.4562 41.1063 23.5201 41.5781 23.5053 42.053C23.4904 42.528 23.3967 43.006 23.2441 43.4893C23.0915 43.9726 22.8799 44.461 22.6153 44.8951C22.3508 45.3292 22.0334 45.7089 21.6287 46.0216C21.224 46.3342 20.7322 46.5798 19.3104 46.7519C17.8886 46.924 15.5371 47.0227 14.204 47.1263C12.8709 47.2299 12.5564 47.3383 12.1734 47.5293C11.7905 47.7203 11.3391 47.9939 10.9284 48.2899C10.5177 48.5858 10.1478 48.9041 9.50758 49.84C8.86737 50.776 7.95685 52.3297 7.48641 53.175C7.01595 54.0203 6.98554 54.1572 7.0038 54.3162C7.02207 54.4751 7.08907 54.6561 7.23109 54.8201C7.3731 54.9842 7.5902 55.1312 7.81616 55.2499C8.04212 55.3687 8.27688 55.4591 8.47865 55.5708C8.68041 55.6824 8.84913 55.8154 8.98191 55.9458C9.11468 56.0763 9.21145 56.2041 9.27198 56.4213C9.33251 56.6385 9.35668 56.945 9.34689 57.2988C9.3371 57.6525 9.29331 58.0535 9.13181 58.8007C8.97031 59.5478 8.69109 60.641 8.47817 61.4922C8.26526 62.3434 8.11865 62.9525 8.02732 63.5119C7.93599 64.0713 7.89996 64.5809 7.89817 64.8922C7.89637 65.2035 7.92888 65.3165 8.00719 65.4803C8.08549 65.6442 8.20964 65.8588 8.36384 66.0283C8.51805 66.1978 8.70237 66.3222 8.94664 66.4003C9.19089 66.4784 9.49505 66.5102 33.553 66.4972C57.6105 66.4842 105.418 66.4264 129.362 66.3931C153.305 66.3598 153.381 66.3508 153.501 66.3034C153.622 66.2561 153.788 66.1704 153.945 66.0738C154.101 65.9772 154.249 65.8696 154.405 65.6714C154.56 65.4731 154.724 65.1843 154.821 64.9319C154.918 64.6795 154.949 64.4637 154.936 64.213C154.923 63.9622 154.866 63.6765 154.763 63.4124C154.659 63.1483 154.509 62.9059 154.244 62.6342C153.98 62.3625 153.601 62.0614 152.412 61.2762C151.222 60.491 149.221 59.2216 147.945 58.4737C146.67 57.7258 146.12 57.4994 145.487 57.3214C144.854 57.1435 144.139 57.0141 143.425 56.9354C142.712 56.8567 142.001 56.8287 141.175 56.89C140.349 56.9513 139.408 57.1019 138.493 57.3475C137.578 57.593 136.69 57.9335 135.977 58.2952C135.265 58.6569 134.728 59.0397 134.102 59.4657C133.476 59.8916 132.762 60.3606 131.896 60.8132C131.029 61.2658 130.009 61.7018 128.875 62.1142C127.742 62.5266 126.495 62.9154 125.429 63.1783C124.363 63.4412 123.478 63.5783 122.393 63.6612C121.308 63.7441 120.024 63.773 118.936 63.7488C117.847 63.7246 116.953 63.6475 115.988 63.4715C115.023 63.2956 113.986 63.0209 113.003 62.6932C112.021 62.3655 111.092 61.9849 110.363 61.6527C109.634 61.3205 109.104 61.0368 108.839 60.895C108.574 60.7532 108.574 60.7531 104.669 58.6621L104.67 58.6619Z" stroke="black" stroke-width="4"/>
</svg>
