<svg width="134" height="73" viewBox="0 0 134 73" fill="none" xmlns="http://www.w3.org/2000/svg">
<path d="M16.3173 29.3721C19.1178 24.5071 22.2325 19.7594 26.2236 15.8124C28.0495 14.2023 29.66 11.6673 32.1805 11.3118C34.9316 10.7619 37.3855 12.7188 39.7686 13.7656C42.4196 15.3497 45.3692 16.3909 48.1881 17.6245C50.3181 18.5677 52.5297 19.4117 54.6702 20.2774C56.5279 21.1039 58.396 22.1634 60.3602 22.6677C64.4705 24.1122 68.9634 24.3937 72.9237 26.328C76.1857 27.6548 79.2282 29.6354 82.7052 30.4182C87.3613 31.3909 91.871 29.4954 92.8162 24.4833C92.96 23.0714 92.9789 21.6158 92.6752 20.2207C92.2086 18.7134 92.3033 17.0841 92.7892 15.5828C94.2286 12.803 97.511 11.9268 100.322 11.2062C103.071 10.2034 105.846 9.28821 108.636 8.32798C111.45 7.31304 118.958 4.09111 117.999 9.78564C117.032 11.9731 116.201 14.2108 116.005 16.5894C115.882 17.4937 115.671 18.5488 116.045 19.3852C116.498 20.3745 117.904 20.396 118.256 19.3815C118.634 17.5229 117.119 15.6333 118.03 13.8172C118.797 11.5916 121.481 11.8852 123.296 12.1741C125.274 12.6171 126.945 13.1176 127.497 15.3474C127.6 18.6939 124.598 21.062 122.607 23.3494C120.281 25.6744 117.897 28.002 115.333 29.994C110.31 33.5976 104.928 37.8727 98.5672 38.0004C91.5537 37.1847 84.4269 36.4322 77.7232 34.3329C75.116 33.4708 72.5328 32.4699 70.1122 31.3127C68.4065 30.7179 66.8417 29.5846 65.0739 29.3708C63.0914 29.0798 61.5433 31.1917 59.6093 29.0702C55.8045 24.9412 50.494 22.8826 45.737 20.2165C42.4877 18.602 39.2144 16.2366 35.5087 16.3696C31.9081 16.6173 28.674 18.9953 26.6041 21.7508C25.0967 23.3682 24.2981 25.5158 23.6686 27.4973C23.2793 30.4913 23.3301 33.5622 22.1199 36.2738C21.353 38.768 20.6479 41.5023 18.852 43.3166C17.5085 44.6515 15.4774 44.9907 14.4568 46.5336C12.5233 49.1712 12.2197 52.5772 12.4056 55.6563C12.5624 58.1365 13.5678 60.424 14.4455 62.6094C15.184 63.9649 14.9306 65.9933 13.448 66.4982C11.4875 66.5472 9.63769 65.5849 8.03793 64.7101C6.53029 63.3479 6.26936 61.8692 6.66567 60.0238C6.97831 58.1773 7.47091 56.3558 7.61228 54.575C8.80195 45.6644 11.758 37.0937 16.3173 29.3721Z" stroke="white" stroke-width="12" stroke-miterlimit="3.9273"/>
<path d="M16.8173 29.3721C19.6178 24.5071 22.7325 19.7594 26.7236 15.8124C28.5495 14.2023 30.16 11.6673 32.6805 11.3118C35.4316 10.7619 37.8855 12.7188 40.2686 13.7656C42.9196 15.3497 45.8692 16.3909 48.6881 17.6245C50.8181 18.5677 53.0297 19.4117 55.1702 20.2774C57.0279 21.1039 58.896 22.1634 60.8602 22.6677C64.9705 24.1122 69.4634 24.3937 73.4237 26.328C76.6856 27.6548 79.7282 29.6354 83.2052 30.4182C87.8613 31.3909 92.371 29.4954 93.3162 24.4833C93.46 23.0714 93.4788 21.6157 93.1752 20.2207C92.7086 18.7134 92.8033 17.0841 93.2892 15.5828C94.7286 12.803 98.011 11.9268 100.822 11.2062C103.571 10.2034 106.346 9.28821 109.136 8.32798C111.95 7.31304 119.458 4.09111 118.499 9.78564C117.532 11.9731 116.701 14.2108 116.505 16.5894C116.382 17.4936 116.171 18.5488 116.545 19.3852C116.998 20.3745 118.404 20.396 118.756 19.3815C119.134 17.5229 117.619 15.6333 118.53 13.8172C119.297 11.5916 121.981 11.8852 123.796 12.1741C125.774 12.6171 127.445 13.1176 127.997 15.3474C128.1 18.6939 125.098 21.062 123.107 23.3494C120.781 25.6744 118.397 28.002 115.833 29.994C110.81 33.5976 105.428 37.8727 99.0672 38.0004C92.0537 37.1847 84.9269 36.4322 78.2232 34.3329C75.616 33.4708 73.0328 32.4699 70.6122 31.3127C68.9065 30.7179 67.3417 29.5846 65.5739 29.3708C63.5914 29.0798 62.0433 31.1917 60.1093 29.0702C56.3045 24.9412 50.9939 22.8826 46.237 20.2165C42.9877 18.602 39.7144 16.2366 36.0087 16.3696C32.4081 16.6173 29.174 18.9953 27.1041 21.7508C25.5967 23.3682 24.7981 25.5158 24.1686 27.4973C23.7793 30.4913 23.8301 33.5622 22.6199 36.2738C21.853 38.768 21.1479 41.5023 19.352 43.3166C18.0085 44.6515 15.9774 44.9907 14.9568 46.5336C13.0233 49.1711 12.7197 52.5772 12.9056 55.6563C13.0624 58.1365 14.0678 60.424 14.9455 62.6094C15.684 63.9649 15.4306 65.9933 13.948 66.4982C11.9875 66.5472 10.1377 65.5849 8.53793 64.7101C7.03029 63.3479 6.76936 61.8692 7.16567 60.0238C7.47831 58.1773 7.97091 56.3558 8.11228 54.575C9.30195 45.6644 12.258 37.0937 16.8173 29.3721Z" stroke="black" stroke-width="4" stroke-miterlimit="3.9273"/>
</svg>
