<svg width="83" height="73" viewBox="0 0 83 73" fill="none" xmlns="http://www.w3.org/2000/svg">
<path d="M15.5186 28.9226C17.2452 24.3919 19.1242 19.8756 20.8145 15.3305C21.9462 12.7128 22.5484 9.73548 24.3693 7.49171C26.1757 5.6291 28.9905 6.53524 29.5926 9.00194C29.9046 10.5337 29.1211 12.0655 28.577 13.4607C27.5541 15.3089 26.7633 17.3585 26.328 19.4297C25.8928 21.2636 26.0016 23.1837 25.8202 25.0391C25.4647 28.8075 23.1578 29.8431 20.0165 31.1519C18.9065 31.4756 17.8184 32.4033 17.695 33.5971C17.7603 34.9779 19.0807 36.0494 20.4518 35.9703C23.6221 35.7474 26.4224 33.9782 29.5201 33.3813C32.2261 32.8851 35.0119 33.0577 37.7178 33.5252C39.8942 33.8344 42.0924 34.5967 44.3196 34.2443C46.3581 34.2156 48.3386 33.4604 50.1233 32.5183C51.654 31.6625 53.1194 30.5479 54.7662 29.9294C57.6463 28.5918 60.9109 28.3185 64.0522 28.3472C66.1633 28.3257 68.3324 28.3185 70.3637 28.9226C74.6947 30.3105 76.8929 34.2731 75.6596 38.6312C74.9994 40.7239 73.4107 42.3348 72.1774 44.0968C71.5245 45.3121 70.7482 46.5275 70.2912 47.8364C69.631 49.476 69.0651 51.2811 67.752 52.5109C65.7498 54.4886 63.051 54.6755 60.4249 54.3088C57.5158 53.7119 52.6987 51.763 52.8075 48.2679C53.4169 44.7656 57.2473 44.4635 60.1347 44.4563C61.796 44.255 63.4791 43.7803 64.7776 42.7304C66.7146 41.0907 66.7219 38.5377 64.7776 36.9771C62.8914 35.3734 60.1782 35.7258 57.8857 35.6107C55.0927 35.7402 52.2706 35.8121 49.5429 36.3299C43.1516 37.3295 36.9851 39.6092 31.4063 42.6584C29.9118 43.5862 27.7862 44.3628 26.4731 42.867C25.1093 41.2992 22.9329 40.8462 21.7576 42.8023C20.9959 44.406 21.5617 46.2326 21.8302 47.8364C22.7805 51.8133 24.1226 55.7039 24.6595 59.7024C25.8637 65.2471 20.5534 66.9803 16.0192 66.3906C8.88063 66.1605 4.41903 59.5298 6.52287 52.9424C9.24336 44.78 12.4427 36.9124 15.5186 28.9226Z" stroke="white" stroke-width="12"/>
<path d="M15.5186 28.9226C17.2452 24.3919 19.1242 19.8756 20.8145 15.3305C21.9462 12.7128 22.5484 9.73548 24.3693 7.49171C26.1757 5.6291 28.9905 6.53524 29.5926 9.00194C29.9046 10.5337 29.1211 12.0655 28.577 13.4607C27.5541 15.3089 26.7633 17.3585 26.328 19.4297C25.8928 21.2636 26.0016 23.1837 25.8202 25.0391C25.4647 28.8075 23.1578 29.8431 20.0165 31.1519C18.9065 31.4756 17.8184 32.4033 17.695 33.5971C17.7603 34.9779 19.0807 36.0494 20.4518 35.9703C23.6221 35.7474 26.4224 33.9782 29.5201 33.3813C32.2261 32.8851 35.0119 33.0577 37.7178 33.5252C39.8942 33.8344 42.0924 34.5967 44.3196 34.2443C46.3581 34.2156 48.3386 33.4604 50.1233 32.5183C51.654 31.6625 53.1194 30.5479 54.7662 29.9294C57.6463 28.5918 60.9109 28.3185 64.0522 28.3472C66.1633 28.3257 68.3324 28.3185 70.3637 28.9226C74.6947 30.3105 76.8929 34.2731 75.6596 38.6312C74.9994 40.7239 73.4107 42.3348 72.1774 44.0968C71.5245 45.3121 70.7482 46.5275 70.2912 47.8364C69.631 49.476 69.0651 51.2811 67.752 52.5109C65.7498 54.4886 63.051 54.6755 60.4249 54.3088C57.5158 53.7119 52.6987 51.763 52.8075 48.2679C53.4169 44.7656 57.2473 44.4635 60.1347 44.4563C61.796 44.255 63.4791 43.7803 64.7776 42.7304C66.7146 41.0907 66.7219 38.5377 64.7776 36.9771C62.8914 35.3734 60.1782 35.7258 57.8857 35.6107C55.0927 35.7402 52.2706 35.8121 49.5429 36.3299C43.1516 37.3295 36.9851 39.6092 31.4063 42.6584C29.9118 43.5862 27.7862 44.3628 26.4731 42.867C25.1093 41.2992 22.9329 40.8462 21.7576 42.8023C20.9959 44.406 21.5617 46.2326 21.8302 47.8364C22.7805 51.8133 24.1226 55.7039 24.6595 59.7024C25.8637 65.2471 20.5534 66.9803 16.0192 66.3906C8.88063 66.1605 4.41903 59.5298 6.52287 52.9424C9.24336 44.78 12.4427 36.9124 15.5186 28.9226Z" stroke="black" stroke-width="4"/>
</svg>
