<svg width="95" height="72" viewBox="0 0 95 72" fill="none" xmlns="http://www.w3.org/2000/svg">
<path fill-rule="evenodd" clip-rule="evenodd" d="M44.82 65.9984C35.2741 66.0211 26.0963 65.7945 17.0378 65.7684C11.6909 65.7531 11.0556 59.8265 14.0112 58.2212C17.3317 56.4178 20.4549 54.8866 23.6964 52.9946C26.1306 51.5738 26.3226 47.6871 23.3207 46.1582C20.1443 44.5406 18.1816 43.4852 15.1175 41.747C14.37 41.323 13.3835 40.1995 13.0928 39.3846C10.6176 32.4439 8.56946 26.0745 6.22556 19.0427C5.51111 16.8993 6.5186 14.9242 8.89732 14.1087C10.7281 13.4812 11.5417 13.1764 13.5103 12.5408C15.2745 11.9712 17.5102 13.4546 18.2485 15.3631C19.7923 19.3538 20.891 23.3177 22.1726 27.2589C22.4651 28.1582 23.6989 29.2819 24.4478 29.2659C25.0408 29.2532 26.1775 28.7194 26.2847 27.9906C27.2196 21.6299 28.131 15.2726 28.9355 8.92396C29.0995 7.63038 30.4425 6.60962 31.3777 6.20613C32.2515 5.82912 33.5487 6.01108 34.3834 6.4152C35.2185 6.81946 36.031 7.69881 36.3873 8.63127C36.8937 9.9567 36.8562 11.4779 37.3892 12.8126C38.0807 14.5442 38.9194 16.3286 40.207 17.7046C41.092 18.6503 42.6432 19.6444 43.6269 20.7886C44.227 21.4866 45.4335 22.7803 44.9661 24.3947C44.4137 26.3027 43.1063 30.0489 42.2735 34.0116C42.0662 34.9977 42.6378 36.2619 43.4006 36.7713C44.3077 37.3769 46.0389 37.3403 47.1995 37.0012C49.3786 36.3647 51.6188 35.5147 53.5867 34.2207C55.2646 33.1174 56.6594 31.7341 58.0118 30.2485C59.0539 29.1038 59.9818 27.7816 60.6419 26.3599C62.5701 22.2065 64.1043 17.9408 65.8184 13.6488C66.3308 12.3658 67.2121 10.7353 68.3232 10.0738C68.9973 9.67246 70.3191 9.07393 71.0784 9.07031C74.1617 9.05559 75.8874 9.03441 79.0102 9.09121C79.8149 9.10595 81.2885 10.0121 81.6611 10.7219C83.311 13.8645 84.7569 16.3724 86.5037 19.3772C86.9747 20.1874 87.0173 22.0402 86.2741 22.9103C82.5705 27.2462 79.8393 30.6475 76.0045 34.9315C74.911 36.1531 74.221 38.33 75.0861 39.6564C79.546 46.4946 83.2284 52.8883 88.3196 59.831C90.0289 62.1618 88.3114 65.6487 85.46 65.6639C71.6838 65.7375 58.7633 65.9653 44.82 65.9984Z" stroke="white" stroke-width="12" stroke-linejoin="round"/>
<path fill-rule="evenodd" clip-rule="evenodd" d="M44.82 65.9984C35.2741 66.0211 26.0963 65.7945 17.0378 65.7684C11.6909 65.7531 11.0556 59.8265 14.0112 58.2212C17.3317 56.4178 20.4549 54.8866 23.6964 52.9946C26.1306 51.5738 26.3226 47.6871 23.3207 46.1582C20.1443 44.5406 18.1816 43.4852 15.1175 41.747C14.37 41.323 13.3835 40.1995 13.0928 39.3846C10.6176 32.4439 8.56946 26.0745 6.22556 19.0427C5.51111 16.8993 6.5186 14.9242 8.89732 14.1087C10.7281 13.4812 11.5417 13.1764 13.5103 12.5408C15.2745 11.9712 17.5102 13.4546 18.2485 15.3631C19.7923 19.3538 20.891 23.3177 22.1726 27.2589C22.4651 28.1582 23.6989 29.2819 24.4478 29.2659C25.0408 29.2532 26.1775 28.7194 26.2847 27.9906C27.2196 21.6299 28.131 15.2726 28.9355 8.92396C29.0995 7.63038 30.4425 6.60962 31.3777 6.20613C32.2515 5.82912 33.5487 6.01108 34.3834 6.4152C35.2185 6.81946 36.031 7.69881 36.3873 8.63127C36.8937 9.9567 36.8562 11.4779 37.3892 12.8126C38.0807 14.5442 38.9194 16.3286 40.207 17.7046C41.092 18.6503 42.6432 19.6444 43.6269 20.7886C44.227 21.4866 45.4335 22.7803 44.9661 24.3947C44.4137 26.3027 43.1063 30.0489 42.2735 34.0116C42.0662 34.9977 42.6378 36.2619 43.4006 36.7713C44.3077 37.3769 46.0389 37.3403 47.1995 37.0012C49.3786 36.3647 51.6188 35.5147 53.5867 34.2207C55.2646 33.1174 56.6594 31.7341 58.0118 30.2485C59.0539 29.1038 59.9818 27.7816 60.6419 26.3599C62.5701 22.2065 64.1043 17.9408 65.8184 13.6488C66.3308 12.3658 67.2121 10.7353 68.3232 10.0738C68.9973 9.67246 70.3191 9.07393 71.0784 9.07031C74.1617 9.05559 75.8874 9.03441 79.0102 9.09121C79.8149 9.10595 81.2885 10.0121 81.6611 10.7219C83.311 13.8645 84.7569 16.3724 86.5037 19.3772C86.9747 20.1874 87.0173 22.0402 86.2741 22.9103C82.5705 27.2462 79.8393 30.6475 76.0045 34.9315C74.911 36.1531 74.221 38.33 75.0861 39.6564C79.546 46.4946 83.2284 52.8883 88.3196 59.831C90.0289 62.1618 88.3114 65.6487 85.46 65.6639C71.6838 65.7375 58.7633 65.9653 44.82 65.9984Z" stroke="black" stroke-width="4" stroke-linejoin="round"/>
</svg>
