<svg width="115" height="73" viewBox="0 0 115 73" fill="none" xmlns="http://www.w3.org/2000/svg">
  <path d="M103.466 8.75882C101.584 9.9861 97.8203 12.4407 95.5749 13.9029C93.3298 15.3652 92.603 15.8352 91.7594 16.4488C90.9158 17.0624 89.9554 17.8197 86.6329 20.5877C83.3105 23.3555 77.6261 28.134 74.7057 30.6007C71.7852 33.0673 71.6287 33.2221 71.5135 33.356C71.3983 33.4899 71.3251 33.603 71.2815 33.7114C71.2379 33.8199 71.2241 33.9238 71.2276 34.0208C71.231 34.1177 71.2517 34.2077 71.2953 34.2977C71.3389 34.3877 71.4054 34.4778 71.511 34.5885C71.6165 34.6993 71.761 34.8309 71.878 34.9509C71.995 35.0709 72.0845 35.1794 72.1453 35.2706C72.2061 35.3617 72.2382 35.4356 72.2554 35.5083C72.2726 35.581 72.2749 35.6525 72.2607 35.7469C72.2465 35.8413 72.2158 35.9585 72.1688 36.0676C72.1218 36.1768 72.0585 36.278 71.9901 36.3602C71.9217 36.4424 71.8482 36.5055 71.7415 36.5706C71.6348 36.6357 71.4949 36.7026 71.3159 36.7615C71.137 36.8203 70.919 36.8711 70.6908 36.9115C70.4625 36.9519 70.2239 36.9819 70.0186 37.004C69.8133 37.0262 69.6414 37.0405 69.3932 37.046C69.145 37.0516 68.8205 37.0483 68.4701 37.0549C68.1197 37.0614 67.7433 37.0777 67.4724 37.1054C67.2015 37.1332 67.036 37.1723 66.8689 37.218C66.7018 37.2637 66.5331 37.316 66.3141 37.3976C66.0951 37.4792 65.8258 37.5901 65.5451 37.7191C65.2645 37.848 64.9725 37.9949 64.6707 38.1581C64.369 38.3213 64.0575 38.5008 63.7168 38.7114C63.3762 38.9219 63.0063 39.1634 62.651 39.3838C62.2957 39.6041 61.9551 39.8032 61.6225 40.0007C61.2899 40.1981 60.9655 40.394 60.6621 40.5768C60.3588 40.7596 60.0765 40.9293 59.8088 41.0865C59.5411 41.2438 59.288 41.3886 59.0284 41.5371C58.7688 41.6857 58.5027 41.838 58.2411 41.9926C57.9796 42.1473 57.7226 42.3042 57.4634 42.4496C57.2041 42.595 56.9426 42.7289 56.6879 42.8559C56.4333 42.9828 56.1855 43.1028 55.9905 43.1905C55.7955 43.2782 55.6532 43.3336 55.5466 43.385C55.4399 43.4363 55.3687 43.4837 55.3005 43.531C55.2322 43.5783 55.1668 43.6256 55.106 43.6816C55.0452 43.7376 54.989 43.8022 54.9581 43.8639C54.9271 43.9257 54.9214 43.9846 54.9237 44.1069C54.926 44.2292 54.9363 44.415 54.9403 44.6049C54.9443 44.7947 54.9419 44.9886 54.934 45.1951C54.9259 45.4017 54.9122 45.621 54.8898 45.8168C54.8675 46.0126 54.8366 46.185 54.8009 46.3227C54.7652 46.4603 54.7246 46.5631 54.6711 46.6839C54.6176 46.8046 54.551 46.9433 54.4634 47.0902C54.3759 47.2371 54.2672 47.3922 54.1877 47.5048C54.1082 47.6174 54.0579 47.6875 53.9747 47.7815C53.8916 47.8756 53.7756 47.9934 53.6453 48.1146C53.515 48.2359 53.3705 48.3605 53.2179 48.4782C53.0653 48.5959 52.9047 48.7067 52.7442 48.8083C52.5836 48.9098 52.423 49.0022 52.2475 49.0841C52.072 49.166 51.8815 49.2376 51.6716 49.2976C51.4617 49.3576 51.2323 49.4061 51.0011 49.4315C50.7699 49.4569 50.537 49.4592 50.3297 49.4539C50.1224 49.4485 49.9407 49.4355 49.7655 49.4061C49.5903 49.3767 49.4215 49.331 49.2479 49.2821C49.0744 49.2331 48.8959 49.1809 48.7223 49.1352C48.5488 49.0895 48.38 49.0503 48.2 49.0193C48.0199 48.9883 47.8285 48.9654 47.65 48.9573C47.4716 48.9491 47.3061 48.9556 47.1325 48.9785C46.9589 49.0013 46.7772 49.0405 46.6101 49.0878C46.443 49.1351 46.2906 49.1906 46.1332 49.2559C45.9758 49.3212 45.8136 49.3963 45.6578 49.4795C45.5021 49.5627 45.3529 49.6541 45.1951 49.7621C45.0375 49.8701 44.8713 49.9947 44.6873 50.1262C44.5033 50.2578 44.3014 50.3962 44.1247 50.5301C43.9481 50.664 43.7967 50.7932 43.6567 50.9363C43.5168 51.0794 43.3883 51.2364 43.2713 51.4072C43.1543 51.578 43.0487 51.7626 42.9707 51.9311C42.8927 52.0996 42.8423 52.2519 42.7987 52.4181C42.7551 52.5843 42.7184 52.7643 42.684 52.9513C42.6495 53.1382 42.6174 53.3321 42.5853 53.4913C42.5532 53.6506 42.5211 53.7752 42.4866 53.886C42.4522 53.9968 42.4155 54.0937 42.3673 54.1791C42.3192 54.2645 42.2595 54.3383 42.1815 54.4284C42.1035 54.5184 42.0072 54.6245 41.8856 54.7238C41.764 54.823 41.6172 54.9153 41.4382 55.0077C41.2593 55.1 41.0482 55.1923 40.828 55.2846C40.6077 55.3769 40.3783 55.4693 39.9153 55.6461C39.4523 55.8229 38.7557 56.0841 38.3328 56.2409C37.9099 56.3976 37.7607 56.4499 37.6228 56.4825C37.4849 56.5152 37.3584 56.5282 37.1978 56.5331C37.0372 56.538 36.8425 56.5348 36.664 56.5282C36.4856 56.5217 36.3234 56.5119 36.2017 56.4956C36.08 56.4793 35.9989 56.4564 35.9048 56.4222C35.8108 56.3879 35.7037 56.3422 35.5966 56.29C35.4895 56.2377 35.3825 56.179 35.2592 56.099C35.1359 56.0191 34.9964 55.9179 34.8739 55.8077C34.7514 55.6976 34.6459 55.5784 34.5405 55.4544C34.4351 55.3303 34.3296 55.2014 34.2258 55.0774C34.122 54.9534 34.0198 54.8342 33.9184 54.7281C33.817 54.622 33.7164 54.529 33.6223 54.4482C33.5282 54.3674 33.4406 54.2989 33.3384 54.2279C33.2362 54.1569 33.1194 54.0835 33.0067 54.0239C32.8939 53.9643 32.7852 53.9186 32.679 53.8811C32.5727 53.8435 32.4689 53.8141 32.3488 53.7937C32.2288 53.7733 32.0925 53.7619 31.9676 53.7578C31.8427 53.7537 31.7291 53.757 31.5945 53.7766C31.4598 53.7962 31.3041 53.8321 31.137 53.8753C30.9699 53.9186 30.7915 53.9692 30.6325 54.0149C30.4735 54.0606 30.334 54.1014 30.1815 54.143C30.029 54.1846 29.8635 54.227 29.6494 54.2711C29.4353 54.3152 29.1725 54.3609 28.9097 54.3935C28.6468 54.4261 28.3841 54.4457 28.0515 54.4523C27.7189 54.4588 27.3166 54.4522 26.9013 54.4506C26.486 54.4489 26.0577 54.4522 25.7755 54.462C25.4932 54.4718 25.3569 54.4881 25.1729 54.5132C24.9889 54.5383 24.7571 54.5722 24.5058 54.6214C24.2545 54.6707 23.9838 54.7353 23.7039 54.8091C23.424 54.883 23.135 54.9661 22.8138 55.0676C22.4926 55.1692 22.1393 55.2892 21.7882 55.4161C21.4372 55.5431 21.0885 55.677 20.7329 55.8131C20.3773 55.9493 20.0148 56.0878 19.6431 56.2378C19.2715 56.3878 18.8906 56.5494 17.5605 57.1356C16.2304 57.7217 13.951 58.7325 12.0974 59.5513C10.2439 60.3702 8.81646 60.9968 8.07666 61.3264C7.3369 61.6561 7.28499 61.6887 7.21523 61.7393C7.14547 61.7899 7.05787 61.8585 6.96702 61.9417C6.87617 62.0249 6.78209 62.1229 6.68961 62.2273C6.59713 62.3318 6.50629 62.4427 6.42356 62.5586C6.34082 62.6745 6.2662 62.7953 6.20292 62.9291C6.13965 63.063 6.08774 63.2098 6.05529 63.3257C6.02285 63.4416 6.00987 63.5265 6.00339 63.6929C5.9969 63.8594 5.9969 64.1075 6.02936 64.3311C6.06182 64.5547 6.12671 64.7538 6.19485 64.9219C6.26299 65.09 6.33437 65.2271 6.42198 65.3593C6.50959 65.4915 6.61341 65.6188 6.73022 65.7379C6.84703 65.857 6.97682 65.968 7.12282 66.0692C7.26883 66.1704 7.43106 66.2618 7.56408 66.3287C7.6971 66.3956 7.80094 66.438 7.9729 66.4641C8.14485 66.4902 8.38495 66.5 8.61043 66.5C8.83593 66.5 9.04681 66.4902 9.25771 66.4641C9.4686 66.438 9.67948 66.3955 9.88065 66.3449C10.0818 66.2943 10.2732 66.2356 10.4712 66.1556C10.6691 66.0757 10.8735 65.9745 11.0795 65.8553C11.2855 65.7362 11.4932 65.5991 11.6627 65.4708C11.8323 65.3424 11.9637 65.2228 12.0983 65.0914C12.2329 64.96 12.3705 64.8169 12.5197 64.6461C12.6688 64.4753 12.8294 64.2768 12.9739 64.083C13.1185 63.8891 13.2469 63.6998 13.3616 63.5291C13.4763 63.3583 13.5773 63.2059 13.6851 63.0513C13.793 62.8966 13.9077 62.7397 14.0384 62.585C14.1692 62.4304 14.316 62.2781 14.445 62.1394C14.5739 62.0008 14.685 61.8758 14.8298 61.7284C14.9745 61.5811 15.153 61.4113 15.3509 61.2383C15.5488 61.0653 15.7662 60.8891 15.9933 60.7177C16.2204 60.5464 16.4573 60.3799 16.7233 60.2167C16.9894 60.0535 17.2846 59.8935 17.6237 59.7303C17.9628 59.5672 18.3456 59.4007 18.7025 59.2701C19.0594 59.1395 19.3904 59.0449 19.7083 58.9682C20.0263 58.8915 20.3313 58.8327 20.6152 58.7854C20.8991 58.7381 21.1619 58.7022 21.3776 58.6826C21.5934 58.663 21.7621 58.6597 22.012 58.6581C22.2618 58.6565 22.5927 58.6565 22.8312 58.6614C23.0697 58.6663 23.2157 58.6761 23.3795 58.6957C23.5434 58.7152 23.7251 58.7446 23.9311 58.7756C24.1371 58.8066 24.3675 58.8393 24.5703 58.867C24.773 58.8948 24.9483 58.9176 25.1429 58.929C25.3376 58.9405 25.5517 58.9405 25.7707 58.9356C25.9897 58.9307 26.2136 58.9209 26.4683 58.8997C26.723 58.8784 27.0085 58.8458 27.2518 58.8066C27.4952 58.7675 27.6963 58.7218 27.8878 58.6646C28.0792 58.6075 28.2609 58.539 28.4913 58.4557C28.7216 58.3725 29.0006 58.2746 29.2278 58.2044C29.4549 58.1342 29.6301 58.0918 29.7761 58.0689C29.9221 58.0461 30.0389 58.0428 30.1735 58.0543C30.3082 58.0657 30.4607 58.0918 30.5742 58.1245C30.6878 58.1571 30.7624 58.1963 30.8744 58.2665C30.9863 58.3367 31.1355 58.4378 31.2686 58.56C31.4016 58.6822 31.5184 58.8253 31.6261 58.9649C31.7338 59.1046 31.8325 59.2408 31.9265 59.3654C32.0206 59.49 32.1101 59.6031 32.2087 59.7128C32.3074 59.8224 32.4152 59.9285 32.5368 60.0278C32.6584 60.127 32.7938 60.2194 32.9383 60.3059C33.0829 60.3925 33.2366 60.4732 33.3673 60.5379C33.4981 60.6025 33.606 60.651 33.7207 60.6833C33.8354 60.7156 33.957 60.7317 34.121 60.7456C34.285 60.7594 34.4915 60.771 34.6842 60.7767C34.8769 60.7825 35.0559 60.7825 35.2555 60.7663C35.4551 60.7502 35.6753 60.7179 35.9231 60.6648C36.1709 60.6117 36.4462 60.5378 36.749 60.4455C37.0519 60.3532 37.3822 60.2424 37.7034 60.1224C38.0246 60.0024 38.3366 59.8731 38.6326 59.7439C38.9285 59.6146 39.2084 59.4854 39.4745 59.3515C39.7407 59.2176 39.993 59.0791 40.2454 58.9291C40.4978 58.7791 40.7501 58.6175 40.975 58.4606C41.1998 58.3037 41.3971 58.1513 41.596 57.984C41.795 57.8167 41.9955 57.6344 42.2418 57.3996C42.4881 57.1648 42.7801 56.8776 43.0494 56.6067C43.3187 56.3358 43.5653 56.0812 43.8476 55.7907C44.1298 55.5001 44.4478 55.1738 44.7658 54.8669C45.0837 54.5601 45.4017 54.2729 45.697 54.0085C45.9922 53.7441 46.2647 53.5025 46.5016 53.31C46.7385 53.1174 46.9396 52.9738 47.1797 52.8106C47.4198 52.6474 47.6988 52.4646 47.9227 52.334C48.1466 52.2034 48.3153 52.1251 48.5035 52.0402C48.6917 51.9554 48.8993 51.864 49.1362 51.7661C49.3731 51.6681 49.6391 51.5637 49.9473 51.4527C50.2556 51.3417 50.606 51.2242 50.9596 51.1132C51.3133 51.0023 51.6702 50.8978 52.0206 50.7705C52.371 50.6432 52.7149 50.4931 53.0426 50.3299C53.3703 50.1667 53.6818 49.9904 53.9643 49.8239C54.2469 49.6574 54.5005 49.5006 54.781 49.3045C55.0615 49.1084 55.369 48.873 55.6534 48.6445C55.9379 48.416 56.1995 48.1945 56.4404 47.9752C56.6813 47.756 56.9015 47.539 57.1378 47.2759C57.3741 47.0128 57.6265 46.7035 57.8383 46.4204C58.0502 46.1372 58.2215 45.8802 58.3915 45.6277C58.5615 45.3751 58.7302 45.1271 58.9087 44.8888C59.0871 44.6505 59.2753 44.422 59.4992 44.1609C59.723 43.8998 59.9826 43.606 60.2389 43.3416C60.4952 43.0772 60.7483 42.8422 60.9754 42.6463C61.2025 42.4505 61.4037 42.2938 61.6438 42.1143C61.8839 41.9348 62.1629 41.7324 62.4647 41.53C62.7664 41.3277 63.0909 41.1253 63.4834 40.9033C63.876 40.6814 64.3367 40.4398 64.7905 40.2208C65.2443 40.0017 65.6912 39.8052 66.1096 39.64C66.5281 39.4747 66.9181 39.3409 67.3219 39.2185C67.7257 39.0962 68.1432 38.9854 68.6044 38.8793C69.0655 38.7731 69.5702 38.6716 70.0245 38.5931C70.4787 38.5146 70.8825 38.4592 71.2014 38.4246C71.5203 38.39 71.7543 38.3761 71.9379 38.36C72.1214 38.3438 72.2545 38.3253 72.3829 38.2861C72.5114 38.2469 72.6353 38.1869 72.7454 38.1315C72.8555 38.0761 72.9519 38.0253 73.0505 37.9468C73.1492 37.8684 73.2501 37.7622 73.3625 37.6283C73.475 37.4944 73.5988 37.3329 73.6998 37.1783C73.8007 37.0236 73.8787 36.8759 73.9361 36.742C73.9934 36.6082 74.0301 36.4882 74.0646 36.3497C74.099 36.2112 74.1311 36.0543 74.1701 35.8996C74.2091 35.745 74.255 35.5927 74.3146 35.4149C74.3743 35.2372 74.4477 35.0341 74.5349 34.8448C74.6221 34.6556 74.723 34.4802 74.8423 34.3094C74.9616 34.1386 75.0993 33.9724 75.2324 33.8316C75.3654 33.6908 75.4939 33.5754 75.6591 33.4508C75.8243 33.3261 76.0262 33.1923 76.4254 32.9245C76.8246 32.6568 77.421 32.2552 77.7835 32.0129C78.146 31.7705 78.2745 31.6874 78.4512 31.602C78.6278 31.5166 78.8527 31.4289 79.0362 31.3574C79.2197 31.2858 79.362 31.2305 79.5662 31.1981C79.7704 31.1658 80.0365 31.1566 80.3325 31.1635C80.6284 31.1705 80.9542 31.1935 81.4491 31.2528C81.9439 31.312 82.6079 31.4075 83.2416 31.4911C83.8754 31.5747 84.4788 31.6465 85.0921 31.7183C85.7053 31.7901 86.3282 31.8619 86.8863 31.9011C87.4443 31.9403 87.9375 31.9468 88.3593 31.9435C88.7811 31.9403 89.1315 31.9272 89.5143 31.8815C89.8972 31.8358 90.3125 31.7575 90.7083 31.6628C91.1041 31.5682 91.4805 31.4572 91.8455 31.3348C92.2105 31.2124 92.5642 31.0786 92.9162 30.9317C93.2682 30.7848 93.6186 30.6249 93.9853 30.4306C94.3519 30.2364 94.7347 30.0079 95.163 29.7272C95.5913 29.4465 96.065 29.1136 96.5468 28.7709C97.0286 28.4281 97.5186 28.0756 97.9582 27.7525C98.3978 27.4293 98.7871 27.1356 99.157 26.8418C99.5269 26.5481 99.8773 26.2543 100.205 25.9671C100.533 25.6798 100.838 25.3991 101.139 25.1086C101.441 24.8181 101.74 24.5178 102.067 24.1555C102.395 23.7932 102.752 23.3689 103.083 22.9511C103.414 22.5333 103.719 22.122 104.027 21.6748C104.335 21.2277 104.647 20.7446 104.899 20.3371C105.15 19.9295 105.342 19.5976 105.553 19.1962C105.764 18.7948 105.993 18.324 106.204 17.8485C106.415 17.373 106.608 16.893 106.773 16.4545C106.939 16.0159 107.076 15.619 107.228 15.125C107.379 14.6311 107.544 14.0403 107.709 13.4402C107.875 12.8401 108.04 12.2308 108.181 11.7047C108.323 11.1787 108.441 10.7359 108.559 10.2958C108.676 9.85571 108.793 9.41835 108.871 9.09847C108.949 8.77859 108.988 8.57623 108.998 8.38039C109.007 8.18456 108.988 7.99525 108.913 7.78634C108.839 7.57745 108.709 7.34897 108.582 7.1727C108.456 6.99643 108.333 6.87241 108.193 6.77121C108.054 6.67001 107.898 6.59167 107.703 6.54596C107.508 6.50025 107.275 6.4872 107.064 6.5133C106.853 6.53941 106.665 6.60469 106.383 6.78095C106.1 6.95722 105.724 7.24446 105.536 7.38806C105.348 7.53168 105.348 7.53154 103.466 8.75882Z" stroke="white" stroke-width="12"/>
  <path d="M103.466 8.75882C101.584 9.9861 97.8203 12.4407 95.5749 13.9029C93.3298 15.3652 92.603 15.8352 91.7594 16.4488C90.9158 17.0624 89.9554 17.8197 86.6329 20.5877C83.3105 23.3555 77.6261 28.134 74.7057 30.6007C71.7852 33.0673 71.6287 33.2221 71.5135 33.356C71.3983 33.4899 71.3251 33.603 71.2815 33.7114C71.2379 33.8199 71.2241 33.9238 71.2276 34.0208C71.231 34.1177 71.2517 34.2077 71.2953 34.2977C71.3389 34.3877 71.4054 34.4778 71.511 34.5885C71.6165 34.6993 71.761 34.8309 71.878 34.9509C71.995 35.0709 72.0845 35.1794 72.1453 35.2706C72.2061 35.3617 72.2382 35.4356 72.2554 35.5083C72.2726 35.581 72.2749 35.6525 72.2607 35.7469C72.2465 35.8413 72.2158 35.9585 72.1688 36.0676C72.1218 36.1768 72.0585 36.278 71.9901 36.3602C71.9217 36.4424 71.8482 36.5055 71.7415 36.5706C71.6348 36.6357 71.4949 36.7026 71.3159 36.7615C71.137 36.8203 70.919 36.8711 70.6908 36.9115C70.4625 36.9519 70.2239 36.9819 70.0186 37.004C69.8133 37.0262 69.6414 37.0405 69.3932 37.046C69.145 37.0516 68.8205 37.0483 68.4701 37.0549C68.1197 37.0614 67.7433 37.0777 67.4724 37.1054C67.2015 37.1332 67.036 37.1723 66.8689 37.218C66.7018 37.2637 66.5331 37.316 66.3141 37.3976C66.0951 37.4792 65.8258 37.5901 65.5451 37.7191C65.2645 37.848 64.9725 37.9949 64.6707 38.1581C64.369 38.3213 64.0575 38.5008 63.7168 38.7114C63.3762 38.9219 63.0063 39.1634 62.651 39.3838C62.2957 39.6041 61.9551 39.8032 61.6225 40.0007C61.2899 40.1981 60.9655 40.394 60.6621 40.5768C60.3588 40.7596 60.0765 40.9293 59.8088 41.0865C59.5411 41.2438 59.288 41.3886 59.0284 41.5371C58.7688 41.6857 58.5027 41.838 58.2411 41.9926C57.9796 42.1473 57.7226 42.3042 57.4634 42.4496C57.2041 42.595 56.9426 42.7289 56.6879 42.8559C56.4333 42.9828 56.1855 43.1028 55.9905 43.1905C55.7955 43.2782 55.6532 43.3336 55.5466 43.385C55.4399 43.4363 55.3687 43.4837 55.3005 43.531C55.2322 43.5783 55.1668 43.6256 55.106 43.6816C55.0452 43.7376 54.989 43.8022 54.9581 43.8639C54.9271 43.9257 54.9214 43.9846 54.9237 44.1069C54.926 44.2292 54.9363 44.415 54.9403 44.6049C54.9443 44.7947 54.9419 44.9886 54.934 45.1951C54.9259 45.4017 54.9122 45.621 54.8898 45.8168C54.8675 46.0126 54.8366 46.185 54.8009 46.3227C54.7652 46.4603 54.7246 46.5631 54.6711 46.6839C54.6176 46.8046 54.551 46.9433 54.4634 47.0902C54.3759 47.2371 54.2672 47.3922 54.1877 47.5048C54.1082 47.6174 54.0579 47.6875 53.9747 47.7815C53.8916 47.8756 53.7756 47.9934 53.6453 48.1146C53.515 48.2359 53.3705 48.3605 53.2179 48.4782C53.0653 48.5959 52.9047 48.7067 52.7442 48.8083C52.5836 48.9098 52.423 49.0022 52.2475 49.0841C52.072 49.166 51.8815 49.2376 51.6716 49.2976C51.4617 49.3576 51.2323 49.4061 51.0011 49.4315C50.7699 49.4569 50.537 49.4592 50.3297 49.4539C50.1224 49.4485 49.9407 49.4355 49.7655 49.4061C49.5903 49.3767 49.4215 49.331 49.2479 49.2821C49.0744 49.2331 48.8959 49.1809 48.7223 49.1352C48.5488 49.0895 48.38 49.0503 48.2 49.0193C48.0199 48.9883 47.8285 48.9654 47.65 48.9573C47.4716 48.9491 47.3061 48.9556 47.1325 48.9785C46.9589 49.0013 46.7772 49.0405 46.6101 49.0878C46.443 49.1351 46.2906 49.1906 46.1332 49.2559C45.9758 49.3212 45.8136 49.3963 45.6578 49.4795C45.5021 49.5627 45.3529 49.6541 45.1951 49.7621C45.0375 49.8701 44.8713 49.9947 44.6873 50.1262C44.5033 50.2578 44.3014 50.3962 44.1247 50.5301C43.9481 50.664 43.7967 50.7932 43.6567 50.9363C43.5168 51.0794 43.3883 51.2364 43.2713 51.4072C43.1543 51.578 43.0487 51.7626 42.9707 51.9311C42.8927 52.0996 42.8423 52.2519 42.7987 52.4181C42.7551 52.5843 42.7184 52.7643 42.684 52.9513C42.6495 53.1382 42.6174 53.3321 42.5853 53.4913C42.5532 53.6506 42.5211 53.7752 42.4866 53.886C42.4522 53.9968 42.4155 54.0937 42.3673 54.1791C42.3192 54.2645 42.2595 54.3383 42.1815 54.4284C42.1035 54.5184 42.0072 54.6245 41.8856 54.7238C41.764 54.823 41.6172 54.9153 41.4382 55.0077C41.2593 55.1 41.0482 55.1923 40.828 55.2846C40.6077 55.3769 40.3783 55.4693 39.9153 55.6461C39.4523 55.8229 38.7557 56.0841 38.3328 56.2409C37.9099 56.3976 37.7607 56.4499 37.6228 56.4825C37.4849 56.5152 37.3584 56.5282 37.1978 56.5331C37.0372 56.538 36.8425 56.5348 36.664 56.5282C36.4856 56.5217 36.3234 56.5119 36.2017 56.4956C36.08 56.4793 35.9989 56.4564 35.9048 56.4222C35.8108 56.3879 35.7037 56.3422 35.5966 56.29C35.4895 56.2377 35.3825 56.179 35.2592 56.099C35.1359 56.0191 34.9964 55.9179 34.8739 55.8077C34.7514 55.6976 34.6459 55.5784 34.5405 55.4544C34.4351 55.3303 34.3296 55.2014 34.2258 55.0774C34.122 54.9534 34.0198 54.8342 33.9184 54.7281C33.817 54.622 33.7164 54.529 33.6223 54.4482C33.5282 54.3674 33.4406 54.2989 33.3384 54.2279C33.2362 54.1569 33.1194 54.0835 33.0067 54.0239C32.8939 53.9643 32.7852 53.9186 32.679 53.8811C32.5727 53.8435 32.4689 53.8141 32.3488 53.7937C32.2288 53.7733 32.0925 53.7619 31.9676 53.7578C31.8427 53.7537 31.7291 53.757 31.5945 53.7766C31.4598 53.7962 31.3041 53.8321 31.137 53.8753C30.9699 53.9186 30.7915 53.9692 30.6325 54.0149C30.4735 54.0606 30.334 54.1014 30.1815 54.143C30.029 54.1846 29.8635 54.227 29.6494 54.2711C29.4353 54.3152 29.1725 54.3609 28.9097 54.3935C28.6468 54.4261 28.3841 54.4457 28.0515 54.4523C27.7189 54.4588 27.3166 54.4522 26.9013 54.4506C26.486 54.4489 26.0577 54.4522 25.7755 54.462C25.4932 54.4718 25.3569 54.4881 25.1729 54.5132C24.9889 54.5383 24.7571 54.5722 24.5058 54.6214C24.2545 54.6707 23.9838 54.7353 23.7039 54.8091C23.424 54.883 23.135 54.9661 22.8138 55.0676C22.4926 55.1692 22.1393 55.2892 21.7882 55.4161C21.4372 55.5431 21.0885 55.677 20.7329 55.8131C20.3773 55.9493 20.0148 56.0878 19.6431 56.2378C19.2715 56.3878 18.8906 56.5494 17.5605 57.1356C16.2304 57.7217 13.951 58.7325 12.0974 59.5513C10.2439 60.3702 8.81646 60.9968 8.07666 61.3264C7.3369 61.6561 7.28499 61.6887 7.21523 61.7393C7.14547 61.7899 7.05787 61.8585 6.96702 61.9417C6.87617 62.0249 6.78209 62.1229 6.68961 62.2273C6.59713 62.3318 6.50629 62.4427 6.42356 62.5586C6.34082 62.6745 6.2662 62.7953 6.20292 62.9291C6.13965 63.063 6.08774 63.2098 6.05529 63.3257C6.02285 63.4416 6.00987 63.5265 6.00339 63.6929C5.9969 63.8594 5.9969 64.1075 6.02936 64.3311C6.06182 64.5547 6.12671 64.7538 6.19485 64.9219C6.26299 65.09 6.33437 65.2271 6.42198 65.3593C6.50959 65.4915 6.61341 65.6188 6.73022 65.7379C6.84703 65.857 6.97682 65.968 7.12282 66.0692C7.26883 66.1704 7.43106 66.2618 7.56408 66.3287C7.6971 66.3956 7.80094 66.438 7.9729 66.4641C8.14485 66.4902 8.38495 66.5 8.61043 66.5C8.83593 66.5 9.04681 66.4902 9.25771 66.4641C9.4686 66.438 9.67948 66.3955 9.88065 66.3449C10.0818 66.2943 10.2732 66.2356 10.4712 66.1556C10.6691 66.0757 10.8735 65.9745 11.0795 65.8553C11.2855 65.7362 11.4932 65.5991 11.6627 65.4708C11.8323 65.3424 11.9637 65.2228 12.0983 65.0914C12.2329 64.96 12.3705 64.8169 12.5197 64.6461C12.6688 64.4753 12.8294 64.2768 12.9739 64.083C13.1185 63.8891 13.2469 63.6998 13.3616 63.5291C13.4763 63.3583 13.5773 63.2059 13.6851 63.0513C13.793 62.8966 13.9077 62.7397 14.0384 62.585C14.1692 62.4304 14.316 62.2781 14.445 62.1394C14.5739 62.0008 14.685 61.8758 14.8298 61.7284C14.9745 61.5811 15.153 61.4113 15.3509 61.2383C15.5488 61.0653 15.7662 60.8891 15.9933 60.7177C16.2204 60.5464 16.4573 60.3799 16.7233 60.2167C16.9894 60.0535 17.2846 59.8935 17.6237 59.7303C17.9628 59.5672 18.3456 59.4007 18.7025 59.2701C19.0594 59.1395 19.3904 59.0449 19.7083 58.9682C20.0263 58.8915 20.3313 58.8327 20.6152 58.7854C20.8991 58.7381 21.1619 58.7022 21.3776 58.6826C21.5934 58.663 21.7621 58.6597 22.012 58.6581C22.2618 58.6565 22.5927 58.6565 22.8312 58.6614C23.0697 58.6663 23.2157 58.6761 23.3795 58.6957C23.5434 58.7152 23.7251 58.7446 23.9311 58.7756C24.1371 58.8066 24.3675 58.8393 24.5703 58.867C24.773 58.8948 24.9483 58.9176 25.1429 58.929C25.3376 58.9405 25.5517 58.9405 25.7707 58.9356C25.9897 58.9307 26.2136 58.9209 26.4683 58.8997C26.723 58.8784 27.0085 58.8458 27.2518 58.8066C27.4952 58.7675 27.6963 58.7218 27.8878 58.6646C28.0792 58.6075 28.2609 58.539 28.4913 58.4557C28.7216 58.3725 29.0006 58.2746 29.2278 58.2044C29.4549 58.1342 29.6301 58.0918 29.7761 58.0689C29.9221 58.0461 30.0389 58.0428 30.1735 58.0543C30.3082 58.0657 30.4607 58.0918 30.5742 58.1245C30.6878 58.1571 30.7624 58.1963 30.8744 58.2665C30.9863 58.3367 31.1355 58.4378 31.2686 58.56C31.4016 58.6822 31.5184 58.8253 31.6261 58.9649C31.7338 59.1046 31.8325 59.2408 31.9265 59.3654C32.0206 59.49 32.1101 59.6031 32.2087 59.7128C32.3074 59.8224 32.4152 59.9285 32.5368 60.0278C32.6584 60.127 32.7938 60.2194 32.9383 60.3059C33.0829 60.3925 33.2366 60.4732 33.3673 60.5379C33.4981 60.6025 33.606 60.651 33.7207 60.6833C33.8354 60.7156 33.957 60.7317 34.121 60.7456C34.285 60.7594 34.4915 60.771 34.6842 60.7767C34.8769 60.7825 35.0559 60.7825 35.2555 60.7663C35.4551 60.7502 35.6753 60.7179 35.9231 60.6648C36.1709 60.6117 36.4462 60.5378 36.749 60.4455C37.0519 60.3532 37.3822 60.2424 37.7034 60.1224C38.0246 60.0024 38.3366 59.8731 38.6326 59.7439C38.9285 59.6146 39.2084 59.4854 39.4745 59.3515C39.7407 59.2176 39.993 59.0791 40.2454 58.9291C40.4978 58.7791 40.7501 58.6175 40.975 58.4606C41.1998 58.3037 41.3971 58.1513 41.596 57.984C41.795 57.8167 41.9955 57.6344 42.2418 57.3996C42.4881 57.1648 42.7801 56.8776 43.0494 56.6067C43.3187 56.3358 43.5653 56.0812 43.8476 55.7907C44.1298 55.5001 44.4478 55.1738 44.7658 54.8669C45.0837 54.5601 45.4017 54.2729 45.697 54.0085C45.9922 53.7441 46.2647 53.5025 46.5016 53.31C46.7385 53.1174 46.9396 52.9738 47.1797 52.8106C47.4198 52.6474 47.6988 52.4646 47.9227 52.334C48.1466 52.2034 48.3153 52.1251 48.5035 52.0402C48.6917 51.9554 48.8993 51.864 49.1362 51.7661C49.3731 51.6681 49.6391 51.5637 49.9473 51.4527C50.2556 51.3417 50.606 51.2242 50.9596 51.1132C51.3133 51.0023 51.6702 50.8978 52.0206 50.7705C52.371 50.6432 52.7149 50.4931 53.0426 50.3299C53.3703 50.1667 53.6818 49.9904 53.9643 49.8239C54.2469 49.6574 54.5005 49.5006 54.781 49.3045C55.0615 49.1084 55.369 48.873 55.6534 48.6445C55.9379 48.416 56.1995 48.1945 56.4404 47.9752C56.6813 47.756 56.9015 47.539 57.1378 47.2759C57.3741 47.0128 57.6265 46.7035 57.8383 46.4204C58.0502 46.1372 58.2215 45.8802 58.3915 45.6277C58.5615 45.3751 58.7302 45.1271 58.9087 44.8888C59.0871 44.6505 59.2753 44.422 59.4992 44.1609C59.723 43.8998 59.9826 43.606 60.2389 43.3416C60.4952 43.0772 60.7483 42.8422 60.9754 42.6463C61.2025 42.4505 61.4037 42.2938 61.6438 42.1143C61.8839 41.9348 62.1629 41.7324 62.4647 41.53C62.7664 41.3277 63.0909 41.1253 63.4834 40.9033C63.876 40.6814 64.3367 40.4398 64.7905 40.2208C65.2443 40.0017 65.6912 39.8052 66.1096 39.64C66.5281 39.4747 66.9181 39.3409 67.3219 39.2185C67.7257 39.0962 68.1432 38.9854 68.6044 38.8793C69.0655 38.7731 69.5702 38.6716 70.0245 38.5931C70.4787 38.5146 70.8825 38.4592 71.2014 38.4246C71.5203 38.39 71.7543 38.3761 71.9379 38.36C72.1214 38.3438 72.2545 38.3253 72.3829 38.2861C72.5114 38.2469 72.6353 38.1869 72.7454 38.1315C72.8555 38.0761 72.9519 38.0253 73.0505 37.9468C73.1492 37.8684 73.2501 37.7622 73.3625 37.6283C73.475 37.4944 73.5988 37.3329 73.6998 37.1783C73.8007 37.0236 73.8787 36.8759 73.9361 36.742C73.9934 36.6082 74.0301 36.4882 74.0646 36.3497C74.099 36.2112 74.1311 36.0543 74.1701 35.8996C74.2091 35.745 74.255 35.5927 74.3146 35.4149C74.3743 35.2372 74.4477 35.0341 74.5349 34.8448C74.6221 34.6556 74.723 34.4802 74.8423 34.3094C74.9616 34.1386 75.0993 33.9724 75.2324 33.8316C75.3654 33.6908 75.4939 33.5754 75.6591 33.4508C75.8243 33.3261 76.0262 33.1923 76.4254 32.9245C76.8246 32.6568 77.421 32.2552 77.7835 32.0129C78.146 31.7705 78.2745 31.6874 78.4512 31.602C78.6278 31.5166 78.8527 31.4289 79.0362 31.3574C79.2197 31.2858 79.362 31.2305 79.5662 31.1981C79.7704 31.1658 80.0365 31.1566 80.3325 31.1635C80.6284 31.1705 80.9542 31.1935 81.4491 31.2528C81.9439 31.312 82.6079 31.4075 83.2416 31.4911C83.8754 31.5747 84.4788 31.6465 85.0921 31.7183C85.7053 31.7901 86.3282 31.8619 86.8863 31.9011C87.4443 31.9403 87.9375 31.9468 88.3593 31.9435C88.7811 31.9403 89.1315 31.9272 89.5143 31.8815C89.8972 31.8358 90.3125 31.7575 90.7083 31.6628C91.1041 31.5682 91.4805 31.4572 91.8455 31.3348C92.2105 31.2124 92.5642 31.0786 92.9162 30.9317C93.2682 30.7848 93.6186 30.6249 93.9853 30.4306C94.3519 30.2364 94.7347 30.0079 95.163 29.7272C95.5913 29.4465 96.065 29.1136 96.5468 28.7709C97.0286 28.4281 97.5186 28.0756 97.9582 27.7525C98.3978 27.4293 98.7871 27.1356 99.157 26.8418C99.5269 26.5481 99.8773 26.2543 100.205 25.9671C100.533 25.6798 100.838 25.3991 101.139 25.1086C101.441 24.8181 101.74 24.5178 102.067 24.1555C102.395 23.7932 102.752 23.3689 103.083 22.9511C103.414 22.5333 103.719 22.122 104.027 21.6748C104.335 21.2277 104.647 20.7446 104.899 20.3371C105.15 19.9295 105.342 19.5976 105.553 19.1962C105.764 18.7948 105.993 18.324 106.204 17.8485C106.415 17.373 106.608 16.893 106.773 16.4545C106.939 16.0159 107.076 15.619 107.228 15.125C107.379 14.6311 107.544 14.0403 107.709 13.4402C107.875 12.8401 108.04 12.2308 108.181 11.7047C108.323 11.1787 108.441 10.7359 108.559 10.2958C108.676 9.85571 108.793 9.41835 108.871 9.09847C108.949 8.77859 108.988 8.57623 108.998 8.38039C109.007 8.18456 108.988 7.99525 108.913 7.78634C108.839 7.57745 108.709 7.34897 108.582 7.1727C108.456 6.99643 108.333 6.87241 108.193 6.77121C108.054 6.67001 107.898 6.59167 107.703 6.54596C107.508 6.50025 107.275 6.4872 107.064 6.5133C106.853 6.53941 106.665 6.60469 106.383 6.78095C106.1 6.95722 105.724 7.24446 105.536 7.38806C105.348 7.53168 105.348 7.53154 103.466 8.75882Z" stroke="black" stroke-width="4"/>
</svg>