<svg width="141" height="72" viewBox="0 0 141 72" fill="none" xmlns="http://www.w3.org/2000/svg">
<path d="M131.707 50.9977C132.41 43.4957 133.16 35.9867 133.878 28.4972C134.157 26.5944 134.241 24.6007 134.44 22.6968C134.767 20.4368 135.066 18.1072 134.987 15.8143C134.897 14.103 133.833 12.5932 132.344 11.7743C131.479 11.3993 130.633 11.0198 129.863 10.4696C129.378 9.93266 128.712 9.51478 128.356 8.85522C127.643 7.94987 127.035 6.75457 125.901 6.2982C122.383 4.73962 120.992 9.67019 120.882 12.3051C120.499 16.3228 121.577 20.3619 121.994 24.3438C122.111 28.8749 123.519 37.3787 117.83 38.9126C115.486 39.5817 113.057 38.8557 110.852 37.9846C108.559 37.2186 106.248 36.3764 103.92 35.7191C96.5063 33.2859 88.7041 31.696 81.6716 28.2201C78.1191 26.4646 75.3331 23.5597 72.5284 20.8481C70.0115 18.2133 67.3335 15.6125 64.7392 13.0764C63.7476 11.9434 62.5692 10.9911 61.5133 9.97771C60.4584 8.88371 59.2992 7.77408 57.7854 7.47967C53.4266 6.92724 50.9612 12.1795 48.3232 14.775C46.8787 16.5466 44.7783 20.141 42.2086 18.186C40.8824 17.1358 40.5471 15.3577 39.9864 13.8859C39.528 12.4382 38.736 11.1456 38.0648 9.83653C35.6455 6.21805 32.5813 4.94641 28.9067 7.85462C26.7821 9.91512 25.0147 12.3296 23.0249 14.4669C19.69 18.1834 16.4498 21.9942 12.9527 25.4837C11.8523 26.5993 10.7908 27.7781 9.72598 28.8571C8.12992 30.2423 6.63617 32.1461 7.07891 34.3451C7.48678 39.089 13.8147 39.3421 13.5684 43.4281C13.1387 45.6639 12.6671 47.773 13.6528 49.9204C14.3868 51.6488 15.8442 52.8288 17.0633 54.1414C18.7563 55.9614 19.4209 58.4016 20.0155 60.6814C20.6764 63.3275 22.853 63.1401 24.0762 61.0106C25.431 58.0583 26.1518 54.8574 27.4835 51.9265C29.6728 46.0158 32.3356 40.2709 35.3953 34.8263C37.1021 31.8312 38.9387 28.8577 40.8028 26.0345C41.5076 25.0323 42.0466 23.856 43.0164 23.1411C45.2616 21.8642 47.5918 23.6907 48.4418 25.6892C51.0801 29.9797 53.3485 34.7311 57.2447 37.9251C58.5749 38.9583 60.0829 39.6199 61.5644 40.2033C68.0579 42.4254 88 48 92.2914 49.5148C93.9841 50.1123 96.9982 51.1601 98.5 52C100.669 53.4827 98.5601 55.4982 99.574 57.5264C100.56 59.8266 103.061 60.9294 105.296 61.484C108.603 62.4532 111.931 63.3289 115.145 64.3482C117.657 64.9861 120.106 66.2742 122.684 65.9479C126.699 65.3674 129.499 62.0101 130.763 58.4159C131.41 55.9438 131.593 53.4969 131.707 50.9977Z" stroke="white" stroke-width="12"/>
<path d="M131.707 50.9977C132.41 43.4957 133.16 35.9867 133.878 28.4972C134.157 26.5944 134.241 24.6007 134.44 22.6968C134.767 20.4368 135.066 18.1072 134.987 15.8143C134.897 14.103 133.833 12.5932 132.344 11.7743C131.479 11.3993 130.633 11.0198 129.863 10.4696C129.378 9.93266 128.712 9.51478 128.356 8.85522C127.643 7.94987 127.035 6.75457 125.901 6.2982C122.383 4.73962 120.992 9.67019 120.882 12.3051C120.499 16.3228 121.577 20.3619 121.994 24.3438C122.111 28.8749 123.519 37.3787 117.83 38.9126C115.486 39.5817 113.057 38.8557 110.852 37.9846C108.559 37.2186 106.248 36.3764 103.92 35.7191C96.5063 33.2859 88.7041 31.696 81.6716 28.2201C78.1191 26.4646 75.3331 23.5597 72.5284 20.8481C70.0115 18.2133 67.3335 15.6125 64.7392 13.0764C63.7476 11.9434 62.5692 10.9911 61.5133 9.97771C60.4584 8.88371 59.2992 7.77408 57.7854 7.47967C53.4266 6.92724 50.9612 12.1795 48.3232 14.775C46.8787 16.5466 44.7783 20.141 42.2086 18.186C40.8824 17.1358 40.5471 15.3577 39.9864 13.8859C39.528 12.4382 38.736 11.1456 38.0648 9.83653C35.6455 6.21805 32.5813 4.94641 28.9067 7.85462C26.7821 9.91512 25.0147 12.3296 23.0249 14.4669C19.69 18.1834 16.4498 21.9942 12.9527 25.4837C11.8523 26.5993 10.7908 27.7781 9.72598 28.8571C8.12992 30.2423 6.63617 32.1461 7.07891 34.3451C7.48678 39.089 13.8147 39.3421 13.5684 43.4281C13.1387 45.6639 12.6671 47.773 13.6528 49.9204C14.3868 51.6488 15.8442 52.8288 17.0633 54.1414C18.7563 55.9614 19.4209 58.4016 20.0155 60.6814C20.6764 63.3275 22.853 63.1401 24.0762 61.0106C25.431 58.0583 26.1518 54.8574 27.4835 51.9265C29.6728 46.0158 32.3356 40.2709 35.3953 34.8263C37.1021 31.8312 38.9387 28.8577 40.8028 26.0345C41.5076 25.0323 42.0466 23.856 43.0164 23.1411C45.2616 21.8642 47.5918 23.6907 48.4418 25.6892C51.0801 29.9797 53.3485 34.7311 57.2447 37.9251C58.5749 38.9583 60.0829 39.6199 61.5644 40.2033C68.0579 42.4254 88 48 92.2914 49.5148C93.9841 50.1123 96.9982 51.1601 98.5 52C100.669 53.4827 98.5601 55.4982 99.574 57.5264C100.56 59.8266 103.061 60.9294 105.296 61.484C108.603 62.4532 111.931 63.3289 115.145 64.3482C117.657 64.9861 120.106 66.2742 122.684 65.9479C126.699 65.3674 129.499 62.0101 130.763 58.4159C131.41 55.9438 131.593 53.4969 131.707 50.9977Z" stroke="black" stroke-width="4"/>
</svg>
