<svg width="143" height="73" viewBox="0 0 143 73" fill="none" xmlns="http://www.w3.org/2000/svg">
<path d="M108.339 44.6893C86.8446 51.1185 65.3524 57.5788 43.8615 64.0548C41.5189 64.8534 39.0457 65.5839 36.6468 66.1599C34.1137 67.0281 31.1298 66.2165 29.645 63.9274C27.9886 60.2267 26.7025 57.6718 22.2718 56.9872C20.5253 56.6832 18.7251 56.9 16.9727 56.7216C13.7518 56.3902 10.7616 54.5848 8.8886 51.9342C5.28045 46.6927 7.15387 39.3151 11.8719 35.4057C16.3324 31.4067 22.2981 29.9612 27.902 28.2932C30.465 27.5088 33.0315 26.5676 35.6329 25.8743C38.1575 24.8972 41.1109 23.9967 43.8049 24.7054C48.0754 26.0521 48.7957 31.32 46.5438 34.7108C45.1264 37.3484 42.1228 38.7147 39.4053 39.5266C36.3141 40.3672 33.1318 41.0426 30.1197 41.9946C28.2178 42.5167 26.1972 42.8209 24.5818 43.9081C21.8273 45.3569 22.0141 48.9906 24.5539 50.541C26.4359 51.5861 28.5742 52.1966 30.6034 52.7137C32.6338 53.3482 34.7014 53.9563 36.7509 54.3309C40.9877 55.14 45.3728 55.335 49.5323 54.2321C52.0894 53.6752 54.8262 53.2141 56.9051 51.6372C60.5046 48.6594 58.6136 45.47 58.3058 41.7908C57.9585 38.1069 59.6402 34.5329 60.6609 31.1195C62.0439 26.0107 64.1046 19.9416 69.7612 18.4495C75.2454 16.9551 80.4734 19.9504 85.7188 20.9402C96.4757 23.6276 107.053 27.3386 117.782 29.5661C120.751 30.2772 122.466 27.2408 120.532 25.0176C118.88 22.5848 117.304 19.8252 114.623 18.5754C112.378 17.4955 109.501 18.0692 107.557 16.4183C103.699 13.9281 105.362 8.39068 109.28 7.09504C111.682 6.15865 114.317 6.61348 116.751 6.59061C119.532 6.70541 122.379 6.89523 125.193 7.22555C130.593 7.85949 135.082 23.1161 135.571 25.2383C136.63 28.8205 135.672 32.738 133.316 35.487C130.465 38.83 125.952 39.6156 122.014 40.7484C117.407 42.0345 112.944 43.5756 108.339 44.6893Z" stroke="white" stroke-width="12" stroke-miterlimit="3.456"/>
<path d="M108.339 44.6893C86.8446 51.1185 65.3524 57.5788 43.8615 64.0548C41.5189 64.8534 39.0457 65.5839 36.6468 66.1599C34.1137 67.0281 31.1298 66.2165 29.645 63.9274C27.9886 60.2267 26.7025 57.6718 22.2718 56.9872C20.5253 56.6832 18.7251 56.9 16.9727 56.7216C13.7518 56.3902 10.7616 54.5848 8.8886 51.9342C5.28045 46.6927 7.15387 39.3151 11.8719 35.4057C16.3324 31.4067 22.2981 29.9612 27.902 28.2932C30.465 27.5088 33.0315 26.5676 35.6329 25.8743C38.1575 24.8972 41.1109 23.9967 43.8049 24.7054C48.0754 26.0521 48.7957 31.32 46.5438 34.7108C45.1264 37.3484 42.1228 38.7147 39.4053 39.5266C36.3141 40.3672 33.1318 41.0426 30.1197 41.9946C28.2178 42.5167 26.1972 42.8209 24.5818 43.9081C21.8273 45.3569 22.0141 48.9906 24.5539 50.541C26.4359 51.5861 28.5742 52.1966 30.6034 52.7137C32.6338 53.3482 34.7014 53.9563 36.7509 54.3309C40.9877 55.14 45.3728 55.335 49.5323 54.2321C52.0894 53.6752 54.8262 53.2141 56.9051 51.6372C60.5046 48.6594 58.6136 45.47 58.3058 41.7908C57.9585 38.1069 59.6402 34.5329 60.6609 31.1195C62.0439 26.0107 64.1046 19.9416 69.7612 18.4495C75.2454 16.9551 80.4734 19.9504 85.7188 20.9402C96.4757 23.6276 107.053 27.3386 117.782 29.5661C120.751 30.2772 122.466 27.2408 120.532 25.0176C118.88 22.5848 117.304 19.8252 114.623 18.5754C112.378 17.4955 109.501 18.0692 107.557 16.4183C103.699 13.9281 105.362 8.39068 109.28 7.09504C111.682 6.15865 114.317 6.61348 116.751 6.59061C119.532 6.70541 122.379 6.89523 125.193 7.22555C130.593 7.85949 135.082 23.1161 135.571 25.2383C136.63 28.8205 135.672 32.738 133.316 35.487C130.465 38.83 125.952 39.6156 122.014 40.7484C117.407 42.0345 112.944 43.5756 108.339 44.6893Z" stroke="black" stroke-width="4" stroke-miterlimit="3.456"/>
</svg>
