<svg width="113" height="73" viewBox="0 0 113 73" fill="none" xmlns="http://www.w3.org/2000/svg">
<path d="M11.6529 46.2906C19.7337 52.3046 27.9156 58.2307 35.8614 64.4409C37.1228 65.2865 38.2155 66.4703 39.6725 66.9709C42.6201 67.3227 42.2896 64.4003 41.1834 62.5873C39.1059 59.0154 37.8513 55.5518 40.5089 51.8514C42.5392 48.9695 46.3502 48.3674 48.8055 45.9524C50.62 44.552 51.254 42.2249 52.7312 40.554C53.6958 39.3092 55.2809 38.6801 56.3197 37.5165C58.1746 35.92 58.1206 33.2749 59.2876 31.2793C60.6771 28.7154 64.0901 27.66 66.6263 29.1416C70.579 31.2793 73.1962 31.2251 75.874 27.3421C76.9263 25.847 78.6396 25.015 80.3596 25.8267C81.3579 26.2529 82.0526 27.1188 83.0509 27.5112C85.2836 28.2621 87.5905 27.3962 89.7219 26.7806C93.8905 25.6238 95.8196 23.4184 98.4098 20.2051C100.723 17.215 103.111 14.2858 105.472 11.3837C106.086 10.6328 106.733 9.88862 106.983 8.96859C107.125 7.87267 106.369 7.05412 105.303 7C103.327 7.14883 101.567 8.23121 99.6981 8.79947C95.597 10.2607 91.4285 11.5122 87.3139 12.7908C77.6008 15.6997 67.6314 17.4315 57.6687 18.9198C54.1882 19.4271 50.7009 19.8804 47.2474 20.3269C46.4919 20.3472 45.7162 20.4757 45.0079 20.611C44.0164 20.6448 42.7955 20.9492 42.4313 21.9572C41.8512 23.9867 44.1176 25.3126 45.2305 26.625C51.679 31.6649 46.2963 35.4667 42.9304 31.8475C41.5544 30.3728 41.2036 28.0862 39.5713 26.8483C38.8428 26.1312 37.6557 25.9282 36.772 26.2935C35.2881 27.3556 36.1313 29.4054 37.1093 30.4539C38.1413 31.719 39.3217 32.8555 40.1379 34.222C41.6893 36.8062 41.2778 40.0534 39.4634 42.3128C36.4685 45.79 31.1398 45.8035 28.0303 42.5902C25.2377 40.1345 24.226 35.23 20.6308 33.992C18.3711 33.2411 16.0845 34.5264 14.1284 35.4532C12.6175 36.1635 11.1335 36.8062 9.70352 37.53C8.31401 38.3148 6.06786 38.7004 6.00715 40.5675C5.88574 42.1572 7.33596 43.172 8.42194 43.9973C9.49442 44.7685 10.5332 45.5668 11.6529 46.2906Z" stroke="white" stroke-width="12" stroke-miterlimit="3.3231"/>
<path d="M11.6529 46.2906C19.7337 52.3046 27.9156 58.2307 35.8614 64.4409C37.1228 65.2865 38.2155 66.4703 39.6725 66.9709C42.6201 67.3227 42.2896 64.4003 41.1834 62.5873C39.1059 59.0154 37.8513 55.5518 40.5089 51.8514C42.5392 48.9695 46.3502 48.3674 48.8055 45.9524C50.62 44.552 51.254 42.2249 52.7312 40.554C53.6958 39.3092 55.2809 38.6801 56.3197 37.5165C58.1746 35.92 58.1206 33.2749 59.2876 31.2793C60.6771 28.7154 64.0901 27.66 66.6263 29.1416C70.579 31.2793 73.1962 31.2251 75.874 27.3421C76.9263 25.847 78.6396 25.015 80.3596 25.8267C81.3579 26.2529 82.0526 27.1188 83.0509 27.5112C85.2836 28.2621 87.5905 27.3962 89.7219 26.7806C93.8905 25.6238 95.8196 23.4184 98.4098 20.2051C100.723 17.215 103.111 14.2858 105.472 11.3837C106.086 10.6328 106.733 9.88862 106.983 8.96859C107.125 7.87267 106.369 7.05412 105.303 7C103.327 7.14883 101.567 8.23121 99.6981 8.79947C95.597 10.2607 91.4285 11.5122 87.3139 12.7908C77.6008 15.6997 67.6314 17.4315 57.6687 18.9198C54.1882 19.4271 50.7009 19.8804 47.2474 20.3269C46.4919 20.3472 45.7162 20.4757 45.0079 20.611C44.0164 20.6448 42.7955 20.9492 42.4313 21.9572C41.8512 23.9867 44.1176 25.3126 45.2305 26.625C51.679 31.6649 46.2963 35.4667 42.9304 31.8475C41.5544 30.3728 41.2036 28.0862 39.5713 26.8483C38.8428 26.1312 37.6557 25.9282 36.772 26.2935C35.2881 27.3556 36.1313 29.4054 37.1093 30.4539C38.1413 31.719 39.3217 32.8555 40.1379 34.222C41.6893 36.8062 41.2778 40.0534 39.4634 42.3128C36.4685 45.79 31.1398 45.8035 28.0303 42.5902C25.2377 40.1345 24.226 35.23 20.6308 33.992C18.3711 33.2411 16.0845 34.5264 14.1284 35.4532C12.6175 36.1635 11.1335 36.8062 9.70352 37.53C8.31401 38.3148 6.06786 38.7004 6.00715 40.5675C5.88574 42.1572 7.33596 43.172 8.42194 43.9973C9.49442 44.7685 10.5332 45.5668 11.6529 46.2906Z" stroke="black" stroke-width="4" stroke-miterlimit="3.3231"/>
</svg>
